M48
; DRILL file {KiCad (5.1.8)-1} date 03/12/21 16:38:48
; FORMAT={-:-/ absolute / inch / decimal}
; #@! TF.CreationDate,2021-03-12T16:38:48+01:00
; #@! TF.GenerationSoftware,Kicad,Pcbnew,(5.1.8)-1
; #@! TF.FileFunction,Plated,1,2,PTH
FMAT,2
INCH
T1C0.0157
T2C0.0354
T3C0.0394
%
G90
G05
T1
X3.6266Y-3.322
X3.6266Y-3.7157
X3.6275Y-2.1399
X3.6275Y-2.2187
X3.6275Y-2.2974
X3.6275Y-2.3762
X3.6275Y-2.4549
X3.6275Y-2.5336
X3.6275Y-2.6124
X3.6275Y-2.6911
X3.6275Y-2.7699
X3.6275Y-2.8486
X3.6275Y-2.9273
X3.6275Y-3.0061
X3.6275Y-3.0848
X3.6275Y-3.1636
X3.6275Y-3.2423
X3.6275Y-3.3998
X3.6275Y-3.4785
X3.6275Y-3.5573
X3.6275Y-3.636
X3.6275Y-3.7935
X3.6275Y-3.8722
X3.6275Y-3.951
X3.6275Y-4.0297
X3.6275Y-4.1084
X3.6275Y-4.1872
X3.6275Y-4.2659
X3.6275Y-4.3447
X3.6275Y-4.4234
X3.6624Y-2.0165
X3.705Y-4.03
X3.7116Y-1.9378
X3.72Y-3.485
X3.7706Y-1.8787
X3.83Y-3.685
X3.8395Y-1.8393
X3.845Y-4.015
X3.865Y-2.825
X3.895Y-3.535
X3.9Y-3.21
X3.925Y-3.29
X3.9254Y-1.8125
X4.0042Y-1.8125
X4.005Y-3.495
X4.025Y-3.295
X4.045Y-3.925
X4.06Y-3.005
X4.0829Y-1.8125
X4.1024Y-4.185
X4.1438Y-4.185
X4.15Y-2.7
X4.16Y-2.54
X4.1616Y-1.8125
X4.1704Y-3.8554
X4.1996Y-3.8846
X4.2404Y-1.8125
X4.245Y-4.155
X4.28Y-4.08
X4.285Y-3.955
X4.2855Y-3.9949
X4.3405Y-1.8125
X4.37Y-3.485
X4.405Y-3.93
X4.4301Y-1.8393
X4.4438Y-3.9365
X4.465Y-4.245
X4.5088Y-1.8885
X4.5679Y-1.9476
X4.6073Y-2.0165
X4.6305Y-3.3121
X4.6305Y-3.7058
X4.6314Y-2.1034
X4.6314Y-2.2088
X4.6314Y-2.2876
X4.6314Y-2.3663
X4.6314Y-2.4451
X4.6314Y-2.5238
X4.6314Y-2.6025
X4.6314Y-2.6813
X4.6314Y-2.76
X4.6314Y-2.8388
X4.6314Y-2.9175
X4.6314Y-2.9962
X4.6314Y-3.075
X4.6314Y-3.1537
X4.6314Y-3.2325
X4.6314Y-3.3899
X4.6314Y-3.4687
X4.6314Y-3.5474
X4.6314Y-3.6262
X4.6314Y-3.7836
X4.6314Y-3.8624
X4.6314Y-3.9411
X4.6314Y-4.0199
X4.6314Y-4.0986
X4.6314Y-4.1773
X4.6314Y-4.2561
X4.6314Y-4.3348
X4.6314Y-4.4136
T3
X4.515Y-2.47
X4.515Y-2.57
X4.515Y-2.67
X4.515Y-2.77
X4.515Y-2.87
X4.515Y-2.97
X4.515Y-3.07
X4.515Y-3.17
X3.9775Y-2.3625
X3.9775Y-2.4625
X3.9775Y-2.5625
X3.9775Y-2.6625
X3.9775Y-2.7625
X3.9775Y-2.8625
X3.9775Y-2.9625
X3.9775Y-3.0625
X4.2775Y-2.3625
X4.2775Y-2.4625
X4.2775Y-2.5625
X4.2775Y-2.6625
X4.2775Y-2.7625
X4.2775Y-2.8625
X4.2775Y-2.9625
X4.2775Y-3.0625
T2
G00X3.8987Y-4.376
M15
G01X3.8987Y-4.439
M16
G05
G00X4.3475Y-4.376
M15
G01X4.3475Y-4.439
M16
G05
T0
M30
