%TF.GenerationSoftware,KiCad,Pcbnew,(5.1.8)-1*%
%TF.CreationDate,2021-03-15T19:10:07+01:00*%
%TF.ProjectId,CH341Apro,43483334-3141-4707-926f-2e6b69636164,rev?*%
%TF.SameCoordinates,Original*%
%TF.FileFunction,Soldermask,Top*%
%TF.FilePolarity,Negative*%
%FSLAX46Y46*%
G04 Gerber Fmt 4.6, Leading zero omitted, Abs format (unit mm)*
G04 Created by KiCad (PCBNEW (5.1.8)-1) date 2021-03-15 19:10:07*
%MOMM*%
%LPD*%
G01*
G04 APERTURE LIST*
%ADD10C,0.100000*%
%ADD11C,1.400000*%
%ADD12C,1.350000*%
%ADD13R,0.500000X0.800000*%
%ADD14R,0.400000X0.800000*%
%ADD15R,2.000000X3.800000*%
%ADD16R,2.000000X1.500000*%
%ADD17R,1.100000X2.500000*%
%ADD18O,1.900000X3.500000*%
%ADD19C,1.100000*%
%ADD20R,2.400000X3.500000*%
%ADD21R,1.700000X1.700000*%
%ADD22O,1.700000X1.700000*%
G04 APERTURE END LIST*
D10*
G36*
X156108400Y-62255400D02*
G01*
X157530800Y-62687200D01*
X158648400Y-63220600D01*
X160324800Y-64465200D01*
X161493200Y-65684400D01*
X162661600Y-67640200D01*
X163195000Y-68935600D01*
X163525200Y-70637400D01*
X163550600Y-73152000D01*
X163525200Y-130937000D01*
X155702000Y-130937000D01*
X156083000Y-130683000D01*
X156337000Y-130429000D01*
X156591000Y-129921000D01*
X161417000Y-129921000D01*
X161417000Y-71628000D01*
X161163000Y-70104000D01*
X160375600Y-68072000D01*
X158877000Y-66268600D01*
X157073600Y-64973200D01*
X155651200Y-64465200D01*
X154305000Y-64211200D01*
X145796000Y-64211200D01*
X144576800Y-64312800D01*
X143256000Y-64643000D01*
X141579600Y-65481200D01*
X140335000Y-66573400D01*
X139090400Y-68300600D01*
X138607800Y-69469000D01*
X138353800Y-70510400D01*
X138226800Y-71983600D01*
X138226800Y-129921000D01*
X142494000Y-129921000D01*
X142621000Y-130302000D01*
X142748000Y-130556000D01*
X143002000Y-130810000D01*
X143383000Y-130937000D01*
X136017000Y-130937000D01*
X136042400Y-71755000D01*
X136296400Y-69545200D01*
X137033000Y-67411600D01*
X138404600Y-65328800D01*
X140233400Y-63728600D01*
X141630400Y-62890400D01*
X143459200Y-62230000D01*
X145008600Y-61976000D01*
X148640800Y-62001400D01*
X154482800Y-61976000D01*
X156108400Y-62255400D01*
G37*
X156108400Y-62255400D02*
X157530800Y-62687200D01*
X158648400Y-63220600D01*
X160324800Y-64465200D01*
X161493200Y-65684400D01*
X162661600Y-67640200D01*
X163195000Y-68935600D01*
X163525200Y-70637400D01*
X163550600Y-73152000D01*
X163525200Y-130937000D01*
X155702000Y-130937000D01*
X156083000Y-130683000D01*
X156337000Y-130429000D01*
X156591000Y-129921000D01*
X161417000Y-129921000D01*
X161417000Y-71628000D01*
X161163000Y-70104000D01*
X160375600Y-68072000D01*
X158877000Y-66268600D01*
X157073600Y-64973200D01*
X155651200Y-64465200D01*
X154305000Y-64211200D01*
X145796000Y-64211200D01*
X144576800Y-64312800D01*
X143256000Y-64643000D01*
X141579600Y-65481200D01*
X140335000Y-66573400D01*
X139090400Y-68300600D01*
X138607800Y-69469000D01*
X138353800Y-70510400D01*
X138226800Y-71983600D01*
X138226800Y-129921000D01*
X142494000Y-129921000D01*
X142621000Y-130302000D01*
X142748000Y-130556000D01*
X143002000Y-130810000D01*
X143383000Y-130937000D01*
X136017000Y-130937000D01*
X136042400Y-71755000D01*
X136296400Y-69545200D01*
X137033000Y-67411600D01*
X138404600Y-65328800D01*
X140233400Y-63728600D01*
X141630400Y-62890400D01*
X143459200Y-62230000D01*
X145008600Y-61976000D01*
X148640800Y-62001400D01*
X154482800Y-61976000D01*
X156108400Y-62255400D01*
%TO.C,RUN*%
G36*
G01*
X160105500Y-129314000D02*
X159680500Y-129314000D01*
G75*
G02*
X159468000Y-129101500I0J212500D01*
G01*
X159468000Y-128301500D01*
G75*
G02*
X159680500Y-128089000I212500J0D01*
G01*
X160105500Y-128089000D01*
G75*
G02*
X160318000Y-128301500I0J-212500D01*
G01*
X160318000Y-129101500D01*
G75*
G02*
X160105500Y-129314000I-212500J0D01*
G01*
G37*
G36*
G01*
X160105500Y-127689000D02*
X159680500Y-127689000D01*
G75*
G02*
X159468000Y-127476500I0J212500D01*
G01*
X159468000Y-126676500D01*
G75*
G02*
X159680500Y-126464000I212500J0D01*
G01*
X160105500Y-126464000D01*
G75*
G02*
X160318000Y-126676500I0J-212500D01*
G01*
X160318000Y-127476500D01*
G75*
G02*
X160105500Y-127689000I-212500J0D01*
G01*
G37*
%TD*%
%TO.C,C1*%
G36*
G01*
X140318000Y-126475500D02*
X140318000Y-126000500D01*
G75*
G02*
X140555500Y-125763000I237500J0D01*
G01*
X141130500Y-125763000D01*
G75*
G02*
X141368000Y-126000500I0J-237500D01*
G01*
X141368000Y-126475500D01*
G75*
G02*
X141130500Y-126713000I-237500J0D01*
G01*
X140555500Y-126713000D01*
G75*
G02*
X140318000Y-126475500I0J237500D01*
G01*
G37*
G36*
G01*
X142068000Y-126475500D02*
X142068000Y-126000500D01*
G75*
G02*
X142305500Y-125763000I237500J0D01*
G01*
X142880500Y-125763000D01*
G75*
G02*
X143118000Y-126000500I0J-237500D01*
G01*
X143118000Y-126475500D01*
G75*
G02*
X142880500Y-126713000I-237500J0D01*
G01*
X142305500Y-126713000D01*
G75*
G02*
X142068000Y-126475500I0J237500D01*
G01*
G37*
%TD*%
D11*
%TO.C,J3*%
X153479500Y-94805500D03*
X145859500Y-94805500D03*
X153479500Y-92265500D03*
X145859500Y-92265500D03*
X153479500Y-89725500D03*
X145859500Y-89725500D03*
X153479500Y-87185500D03*
X145859500Y-87185500D03*
X153479500Y-84645500D03*
X145859500Y-84645500D03*
D12*
X153479500Y-82105500D03*
D11*
X145859500Y-82105500D03*
D12*
X153479500Y-79565500D03*
X145859500Y-79565500D03*
D11*
X153479500Y-77025500D03*
D12*
X145859500Y-77025500D03*
%TD*%
D13*
%TO.C,RN1*%
X156978200Y-119369000D03*
D14*
X155378200Y-119369000D03*
X156178200Y-119369000D03*
D13*
X154578200Y-119369000D03*
D14*
X156178200Y-121169000D03*
D13*
X156978200Y-121169000D03*
D14*
X155378200Y-121169000D03*
D13*
X154578200Y-121169000D03*
%TD*%
D15*
%TO.C,U1*%
X150724000Y-118999000D03*
D16*
X144424000Y-118999000D03*
X144424000Y-121299000D03*
X144424000Y-116699000D03*
%TD*%
%TO.C,U2*%
G36*
G01*
X139532500Y-113879000D02*
X139232500Y-113879000D01*
G75*
G02*
X139082500Y-113729000I0J150000D01*
G01*
X139082500Y-111979000D01*
G75*
G02*
X139232500Y-111829000I150000J0D01*
G01*
X139532500Y-111829000D01*
G75*
G02*
X139682500Y-111979000I0J-150000D01*
G01*
X139682500Y-113729000D01*
G75*
G02*
X139532500Y-113879000I-150000J0D01*
G01*
G37*
G36*
G01*
X140802500Y-113879000D02*
X140502500Y-113879000D01*
G75*
G02*
X140352500Y-113729000I0J150000D01*
G01*
X140352500Y-111979000D01*
G75*
G02*
X140502500Y-111829000I150000J0D01*
G01*
X140802500Y-111829000D01*
G75*
G02*
X140952500Y-111979000I0J-150000D01*
G01*
X140952500Y-113729000D01*
G75*
G02*
X140802500Y-113879000I-150000J0D01*
G01*
G37*
G36*
G01*
X142072500Y-113879000D02*
X141772500Y-113879000D01*
G75*
G02*
X141622500Y-113729000I0J150000D01*
G01*
X141622500Y-111979000D01*
G75*
G02*
X141772500Y-111829000I150000J0D01*
G01*
X142072500Y-111829000D01*
G75*
G02*
X142222500Y-111979000I0J-150000D01*
G01*
X142222500Y-113729000D01*
G75*
G02*
X142072500Y-113879000I-150000J0D01*
G01*
G37*
G36*
G01*
X143342500Y-113879000D02*
X143042500Y-113879000D01*
G75*
G02*
X142892500Y-113729000I0J150000D01*
G01*
X142892500Y-111979000D01*
G75*
G02*
X143042500Y-111829000I150000J0D01*
G01*
X143342500Y-111829000D01*
G75*
G02*
X143492500Y-111979000I0J-150000D01*
G01*
X143492500Y-113729000D01*
G75*
G02*
X143342500Y-113879000I-150000J0D01*
G01*
G37*
G36*
G01*
X144612500Y-113879000D02*
X144312500Y-113879000D01*
G75*
G02*
X144162500Y-113729000I0J150000D01*
G01*
X144162500Y-111979000D01*
G75*
G02*
X144312500Y-111829000I150000J0D01*
G01*
X144612500Y-111829000D01*
G75*
G02*
X144762500Y-111979000I0J-150000D01*
G01*
X144762500Y-113729000D01*
G75*
G02*
X144612500Y-113879000I-150000J0D01*
G01*
G37*
G36*
G01*
X145882500Y-113879000D02*
X145582500Y-113879000D01*
G75*
G02*
X145432500Y-113729000I0J150000D01*
G01*
X145432500Y-111979000D01*
G75*
G02*
X145582500Y-111829000I150000J0D01*
G01*
X145882500Y-111829000D01*
G75*
G02*
X146032500Y-111979000I0J-150000D01*
G01*
X146032500Y-113729000D01*
G75*
G02*
X145882500Y-113879000I-150000J0D01*
G01*
G37*
G36*
G01*
X147152500Y-113879000D02*
X146852500Y-113879000D01*
G75*
G02*
X146702500Y-113729000I0J150000D01*
G01*
X146702500Y-111979000D01*
G75*
G02*
X146852500Y-111829000I150000J0D01*
G01*
X147152500Y-111829000D01*
G75*
G02*
X147302500Y-111979000I0J-150000D01*
G01*
X147302500Y-113729000D01*
G75*
G02*
X147152500Y-113879000I-150000J0D01*
G01*
G37*
G36*
G01*
X148422500Y-113879000D02*
X148122500Y-113879000D01*
G75*
G02*
X147972500Y-113729000I0J150000D01*
G01*
X147972500Y-111979000D01*
G75*
G02*
X148122500Y-111829000I150000J0D01*
G01*
X148422500Y-111829000D01*
G75*
G02*
X148572500Y-111979000I0J-150000D01*
G01*
X148572500Y-113729000D01*
G75*
G02*
X148422500Y-113879000I-150000J0D01*
G01*
G37*
G36*
G01*
X149692500Y-113879000D02*
X149392500Y-113879000D01*
G75*
G02*
X149242500Y-113729000I0J150000D01*
G01*
X149242500Y-111979000D01*
G75*
G02*
X149392500Y-111829000I150000J0D01*
G01*
X149692500Y-111829000D01*
G75*
G02*
X149842500Y-111979000I0J-150000D01*
G01*
X149842500Y-113729000D01*
G75*
G02*
X149692500Y-113879000I-150000J0D01*
G01*
G37*
G36*
G01*
X150962500Y-113879000D02*
X150662500Y-113879000D01*
G75*
G02*
X150512500Y-113729000I0J150000D01*
G01*
X150512500Y-111979000D01*
G75*
G02*
X150662500Y-111829000I150000J0D01*
G01*
X150962500Y-111829000D01*
G75*
G02*
X151112500Y-111979000I0J-150000D01*
G01*
X151112500Y-113729000D01*
G75*
G02*
X150962500Y-113879000I-150000J0D01*
G01*
G37*
G36*
G01*
X152232500Y-113879000D02*
X151932500Y-113879000D01*
G75*
G02*
X151782500Y-113729000I0J150000D01*
G01*
X151782500Y-111979000D01*
G75*
G02*
X151932500Y-111829000I150000J0D01*
G01*
X152232500Y-111829000D01*
G75*
G02*
X152382500Y-111979000I0J-150000D01*
G01*
X152382500Y-113729000D01*
G75*
G02*
X152232500Y-113879000I-150000J0D01*
G01*
G37*
G36*
G01*
X153502500Y-113879000D02*
X153202500Y-113879000D01*
G75*
G02*
X153052500Y-113729000I0J150000D01*
G01*
X153052500Y-111979000D01*
G75*
G02*
X153202500Y-111829000I150000J0D01*
G01*
X153502500Y-111829000D01*
G75*
G02*
X153652500Y-111979000I0J-150000D01*
G01*
X153652500Y-113729000D01*
G75*
G02*
X153502500Y-113879000I-150000J0D01*
G01*
G37*
G36*
G01*
X154772500Y-113879000D02*
X154472500Y-113879000D01*
G75*
G02*
X154322500Y-113729000I0J150000D01*
G01*
X154322500Y-111979000D01*
G75*
G02*
X154472500Y-111829000I150000J0D01*
G01*
X154772500Y-111829000D01*
G75*
G02*
X154922500Y-111979000I0J-150000D01*
G01*
X154922500Y-113729000D01*
G75*
G02*
X154772500Y-113879000I-150000J0D01*
G01*
G37*
G36*
G01*
X156042500Y-113879000D02*
X155742500Y-113879000D01*
G75*
G02*
X155592500Y-113729000I0J150000D01*
G01*
X155592500Y-111979000D01*
G75*
G02*
X155742500Y-111829000I150000J0D01*
G01*
X156042500Y-111829000D01*
G75*
G02*
X156192500Y-111979000I0J-150000D01*
G01*
X156192500Y-113729000D01*
G75*
G02*
X156042500Y-113879000I-150000J0D01*
G01*
G37*
G36*
G01*
X156042500Y-104579000D02*
X155742500Y-104579000D01*
G75*
G02*
X155592500Y-104429000I0J150000D01*
G01*
X155592500Y-102679000D01*
G75*
G02*
X155742500Y-102529000I150000J0D01*
G01*
X156042500Y-102529000D01*
G75*
G02*
X156192500Y-102679000I0J-150000D01*
G01*
X156192500Y-104429000D01*
G75*
G02*
X156042500Y-104579000I-150000J0D01*
G01*
G37*
G36*
G01*
X154772500Y-104579000D02*
X154472500Y-104579000D01*
G75*
G02*
X154322500Y-104429000I0J150000D01*
G01*
X154322500Y-102679000D01*
G75*
G02*
X154472500Y-102529000I150000J0D01*
G01*
X154772500Y-102529000D01*
G75*
G02*
X154922500Y-102679000I0J-150000D01*
G01*
X154922500Y-104429000D01*
G75*
G02*
X154772500Y-104579000I-150000J0D01*
G01*
G37*
G36*
G01*
X153502500Y-104579000D02*
X153202500Y-104579000D01*
G75*
G02*
X153052500Y-104429000I0J150000D01*
G01*
X153052500Y-102679000D01*
G75*
G02*
X153202500Y-102529000I150000J0D01*
G01*
X153502500Y-102529000D01*
G75*
G02*
X153652500Y-102679000I0J-150000D01*
G01*
X153652500Y-104429000D01*
G75*
G02*
X153502500Y-104579000I-150000J0D01*
G01*
G37*
G36*
G01*
X152232500Y-104579000D02*
X151932500Y-104579000D01*
G75*
G02*
X151782500Y-104429000I0J150000D01*
G01*
X151782500Y-102679000D01*
G75*
G02*
X151932500Y-102529000I150000J0D01*
G01*
X152232500Y-102529000D01*
G75*
G02*
X152382500Y-102679000I0J-150000D01*
G01*
X152382500Y-104429000D01*
G75*
G02*
X152232500Y-104579000I-150000J0D01*
G01*
G37*
G36*
G01*
X150962500Y-104579000D02*
X150662500Y-104579000D01*
G75*
G02*
X150512500Y-104429000I0J150000D01*
G01*
X150512500Y-102679000D01*
G75*
G02*
X150662500Y-102529000I150000J0D01*
G01*
X150962500Y-102529000D01*
G75*
G02*
X151112500Y-102679000I0J-150000D01*
G01*
X151112500Y-104429000D01*
G75*
G02*
X150962500Y-104579000I-150000J0D01*
G01*
G37*
G36*
G01*
X149692500Y-104579000D02*
X149392500Y-104579000D01*
G75*
G02*
X149242500Y-104429000I0J150000D01*
G01*
X149242500Y-102679000D01*
G75*
G02*
X149392500Y-102529000I150000J0D01*
G01*
X149692500Y-102529000D01*
G75*
G02*
X149842500Y-102679000I0J-150000D01*
G01*
X149842500Y-104429000D01*
G75*
G02*
X149692500Y-104579000I-150000J0D01*
G01*
G37*
G36*
G01*
X148422500Y-104579000D02*
X148122500Y-104579000D01*
G75*
G02*
X147972500Y-104429000I0J150000D01*
G01*
X147972500Y-102679000D01*
G75*
G02*
X148122500Y-102529000I150000J0D01*
G01*
X148422500Y-102529000D01*
G75*
G02*
X148572500Y-102679000I0J-150000D01*
G01*
X148572500Y-104429000D01*
G75*
G02*
X148422500Y-104579000I-150000J0D01*
G01*
G37*
G36*
G01*
X147152500Y-104579000D02*
X146852500Y-104579000D01*
G75*
G02*
X146702500Y-104429000I0J150000D01*
G01*
X146702500Y-102679000D01*
G75*
G02*
X146852500Y-102529000I150000J0D01*
G01*
X147152500Y-102529000D01*
G75*
G02*
X147302500Y-102679000I0J-150000D01*
G01*
X147302500Y-104429000D01*
G75*
G02*
X147152500Y-104579000I-150000J0D01*
G01*
G37*
G36*
G01*
X145882500Y-104579000D02*
X145582500Y-104579000D01*
G75*
G02*
X145432500Y-104429000I0J150000D01*
G01*
X145432500Y-102679000D01*
G75*
G02*
X145582500Y-102529000I150000J0D01*
G01*
X145882500Y-102529000D01*
G75*
G02*
X146032500Y-102679000I0J-150000D01*
G01*
X146032500Y-104429000D01*
G75*
G02*
X145882500Y-104579000I-150000J0D01*
G01*
G37*
G36*
G01*
X144612500Y-104579000D02*
X144312500Y-104579000D01*
G75*
G02*
X144162500Y-104429000I0J150000D01*
G01*
X144162500Y-102679000D01*
G75*
G02*
X144312500Y-102529000I150000J0D01*
G01*
X144612500Y-102529000D01*
G75*
G02*
X144762500Y-102679000I0J-150000D01*
G01*
X144762500Y-104429000D01*
G75*
G02*
X144612500Y-104579000I-150000J0D01*
G01*
G37*
G36*
G01*
X143342500Y-104579000D02*
X143042500Y-104579000D01*
G75*
G02*
X142892500Y-104429000I0J150000D01*
G01*
X142892500Y-102679000D01*
G75*
G02*
X143042500Y-102529000I150000J0D01*
G01*
X143342500Y-102529000D01*
G75*
G02*
X143492500Y-102679000I0J-150000D01*
G01*
X143492500Y-104429000D01*
G75*
G02*
X143342500Y-104579000I-150000J0D01*
G01*
G37*
G36*
G01*
X142072500Y-104579000D02*
X141772500Y-104579000D01*
G75*
G02*
X141622500Y-104429000I0J150000D01*
G01*
X141622500Y-102679000D01*
G75*
G02*
X141772500Y-102529000I150000J0D01*
G01*
X142072500Y-102529000D01*
G75*
G02*
X142222500Y-102679000I0J-150000D01*
G01*
X142222500Y-104429000D01*
G75*
G02*
X142072500Y-104579000I-150000J0D01*
G01*
G37*
G36*
G01*
X140802500Y-104579000D02*
X140502500Y-104579000D01*
G75*
G02*
X140352500Y-104429000I0J150000D01*
G01*
X140352500Y-102679000D01*
G75*
G02*
X140502500Y-102529000I150000J0D01*
G01*
X140802500Y-102529000D01*
G75*
G02*
X140952500Y-102679000I0J-150000D01*
G01*
X140952500Y-104429000D01*
G75*
G02*
X140802500Y-104579000I-150000J0D01*
G01*
G37*
G36*
G01*
X139532500Y-104579000D02*
X139232500Y-104579000D01*
G75*
G02*
X139082500Y-104429000I0J150000D01*
G01*
X139082500Y-102679000D01*
G75*
G02*
X139232500Y-102529000I150000J0D01*
G01*
X139532500Y-102529000D01*
G75*
G02*
X139682500Y-102679000I0J-150000D01*
G01*
X139682500Y-104429000D01*
G75*
G02*
X139532500Y-104579000I-150000J0D01*
G01*
G37*
%TD*%
D17*
%TO.C,J1*%
X150557500Y-126218500D03*
X148557500Y-126218500D03*
X153057500Y-126218500D03*
X146057500Y-126218500D03*
D18*
X155257500Y-128968500D03*
X143857500Y-128968500D03*
D19*
X151857500Y-128968500D03*
X147257500Y-128968500D03*
%TD*%
%TO.C,C2*%
G36*
G01*
X140205000Y-116569500D02*
X140205000Y-116094500D01*
G75*
G02*
X140442500Y-115857000I237500J0D01*
G01*
X141017500Y-115857000D01*
G75*
G02*
X141255000Y-116094500I0J-237500D01*
G01*
X141255000Y-116569500D01*
G75*
G02*
X141017500Y-116807000I-237500J0D01*
G01*
X140442500Y-116807000D01*
G75*
G02*
X140205000Y-116569500I0J237500D01*
G01*
G37*
G36*
G01*
X141955000Y-116569500D02*
X141955000Y-116094500D01*
G75*
G02*
X142192500Y-115857000I237500J0D01*
G01*
X142767500Y-115857000D01*
G75*
G02*
X143005000Y-116094500I0J-237500D01*
G01*
X143005000Y-116569500D01*
G75*
G02*
X142767500Y-116807000I-237500J0D01*
G01*
X142192500Y-116807000D01*
G75*
G02*
X141955000Y-116569500I0J237500D01*
G01*
G37*
%TD*%
%TO.C,C3*%
G36*
G01*
X141969000Y-115121700D02*
X141969000Y-114646700D01*
G75*
G02*
X142206500Y-114409200I237500J0D01*
G01*
X142781500Y-114409200D01*
G75*
G02*
X143019000Y-114646700I0J-237500D01*
G01*
X143019000Y-115121700D01*
G75*
G02*
X142781500Y-115359200I-237500J0D01*
G01*
X142206500Y-115359200D01*
G75*
G02*
X141969000Y-115121700I0J237500D01*
G01*
G37*
G36*
G01*
X140219000Y-115121700D02*
X140219000Y-114646700D01*
G75*
G02*
X140456500Y-114409200I237500J0D01*
G01*
X141031500Y-114409200D01*
G75*
G02*
X141269000Y-114646700I0J-237500D01*
G01*
X141269000Y-115121700D01*
G75*
G02*
X141031500Y-115359200I-237500J0D01*
G01*
X140456500Y-115359200D01*
G75*
G02*
X140219000Y-115121700I0J237500D01*
G01*
G37*
%TD*%
%TO.C,C5*%
G36*
G01*
X159241500Y-103522000D02*
X158766500Y-103522000D01*
G75*
G02*
X158529000Y-103284500I0J237500D01*
G01*
X158529000Y-102709500D01*
G75*
G02*
X158766500Y-102472000I237500J0D01*
G01*
X159241500Y-102472000D01*
G75*
G02*
X159479000Y-102709500I0J-237500D01*
G01*
X159479000Y-103284500D01*
G75*
G02*
X159241500Y-103522000I-237500J0D01*
G01*
G37*
G36*
G01*
X159241500Y-101772000D02*
X158766500Y-101772000D01*
G75*
G02*
X158529000Y-101534500I0J237500D01*
G01*
X158529000Y-100959500D01*
G75*
G02*
X158766500Y-100722000I237500J0D01*
G01*
X159241500Y-100722000D01*
G75*
G02*
X159479000Y-100959500I0J-237500D01*
G01*
X159479000Y-101534500D01*
G75*
G02*
X159241500Y-101772000I-237500J0D01*
G01*
G37*
%TD*%
%TO.C,C6*%
G36*
G01*
X158766500Y-114636000D02*
X159241500Y-114636000D01*
G75*
G02*
X159479000Y-114873500I0J-237500D01*
G01*
X159479000Y-115448500D01*
G75*
G02*
X159241500Y-115686000I-237500J0D01*
G01*
X158766500Y-115686000D01*
G75*
G02*
X158529000Y-115448500I0J237500D01*
G01*
X158529000Y-114873500D01*
G75*
G02*
X158766500Y-114636000I237500J0D01*
G01*
G37*
G36*
G01*
X158766500Y-112886000D02*
X159241500Y-112886000D01*
G75*
G02*
X159479000Y-113123500I0J-237500D01*
G01*
X159479000Y-113698500D01*
G75*
G02*
X159241500Y-113936000I-237500J0D01*
G01*
X158766500Y-113936000D01*
G75*
G02*
X158529000Y-113698500I0J237500D01*
G01*
X158529000Y-113123500D01*
G75*
G02*
X158766500Y-112886000I237500J0D01*
G01*
G37*
%TD*%
%TO.C,PWR*%
G36*
G01*
X158200500Y-127689000D02*
X157775500Y-127689000D01*
G75*
G02*
X157563000Y-127476500I0J212500D01*
G01*
X157563000Y-126676500D01*
G75*
G02*
X157775500Y-126464000I212500J0D01*
G01*
X158200500Y-126464000D01*
G75*
G02*
X158413000Y-126676500I0J-212500D01*
G01*
X158413000Y-127476500D01*
G75*
G02*
X158200500Y-127689000I-212500J0D01*
G01*
G37*
G36*
G01*
X158200500Y-129314000D02*
X157775500Y-129314000D01*
G75*
G02*
X157563000Y-129101500I0J212500D01*
G01*
X157563000Y-128301500D01*
G75*
G02*
X157775500Y-128089000I212500J0D01*
G01*
X158200500Y-128089000D01*
G75*
G02*
X158413000Y-128301500I0J-212500D01*
G01*
X158413000Y-129101500D01*
G75*
G02*
X158200500Y-129314000I-212500J0D01*
G01*
G37*
%TD*%
%TO.C,R1*%
G36*
G01*
X155347500Y-123587500D02*
X155347500Y-124062500D01*
G75*
G02*
X155110000Y-124300000I-237500J0D01*
G01*
X154610000Y-124300000D01*
G75*
G02*
X154372500Y-124062500I0J237500D01*
G01*
X154372500Y-123587500D01*
G75*
G02*
X154610000Y-123350000I237500J0D01*
G01*
X155110000Y-123350000D01*
G75*
G02*
X155347500Y-123587500I0J-237500D01*
G01*
G37*
G36*
G01*
X153522500Y-123587500D02*
X153522500Y-124062500D01*
G75*
G02*
X153285000Y-124300000I-237500J0D01*
G01*
X152785000Y-124300000D01*
G75*
G02*
X152547500Y-124062500I0J237500D01*
G01*
X152547500Y-123587500D01*
G75*
G02*
X152785000Y-123350000I237500J0D01*
G01*
X153285000Y-123350000D01*
G75*
G02*
X153522500Y-123587500I0J-237500D01*
G01*
G37*
%TD*%
D20*
%TO.C,Y1*%
X159004000Y-105604000D03*
X159004000Y-110804000D03*
%TD*%
D21*
%TO.C,J4*%
X159512000Y-79756000D03*
D22*
X159512000Y-82296000D03*
X159512000Y-84836000D03*
X159512000Y-87376000D03*
X159512000Y-89916000D03*
X159512000Y-92456000D03*
X159512000Y-94996000D03*
X159512000Y-97536000D03*
%TD*%
D21*
%TO.C,JP1*%
X159512000Y-119253000D03*
D22*
X159512000Y-121793000D03*
%TD*%
D21*
%TO.C,JP2*%
X140843000Y-123825000D03*
D22*
X140843000Y-121285000D03*
X140843000Y-118745000D03*
%TD*%
M02*
