%TF.GenerationSoftware,KiCad,Pcbnew,(5.1.8)-1*%
%TF.CreationDate,2021-03-15T19:10:07+01:00*%
%TF.ProjectId,CH341Apro,43483334-3141-4707-926f-2e6b69636164,rev?*%
%TF.SameCoordinates,Original*%
%TF.FileFunction,Legend,Bot*%
%TF.FilePolarity,Positive*%
%FSLAX46Y46*%
G04 Gerber Fmt 4.6, Leading zero omitted, Abs format (unit mm)*
G04 Created by KiCad (PCBNEW (5.1.8)-1) date 2021-03-15 19:10:07*
%MOMM*%
%LPD*%
G01*
G04 APERTURE LIST*
%ADD10C,0.120000*%
%ADD11C,0.150000*%
G04 APERTURE END LIST*
D10*
X149098000Y-96012000D02*
G75*
G02*
X150622000Y-96012000I762000J0D01*
G01*
X149098000Y-85852000D02*
G75*
G02*
X150622000Y-85852000I762000J0D01*
G01*
D11*
X142812428Y-110037619D02*
X142812428Y-111037619D01*
X143145761Y-110323333D01*
X143479095Y-111037619D01*
X143479095Y-110037619D01*
X143955285Y-110037619D02*
X143955285Y-110704285D01*
X143955285Y-111037619D02*
X143907666Y-110990000D01*
X143955285Y-110942380D01*
X144002904Y-110990000D01*
X143955285Y-111037619D01*
X143955285Y-110942380D01*
X144431476Y-110704285D02*
X144431476Y-110037619D01*
X144431476Y-110609047D02*
X144479095Y-110656666D01*
X144574333Y-110704285D01*
X144717190Y-110704285D01*
X144812428Y-110656666D01*
X144860047Y-110561428D01*
X144860047Y-110037619D01*
X145336238Y-110037619D02*
X145336238Y-110704285D01*
X145336238Y-111037619D02*
X145288619Y-110990000D01*
X145336238Y-110942380D01*
X145383857Y-110990000D01*
X145336238Y-111037619D01*
X145336238Y-110942380D01*
X146574333Y-110037619D02*
X146574333Y-111037619D01*
X146955285Y-111037619D01*
X147050523Y-110990000D01*
X147098142Y-110942380D01*
X147145761Y-110847142D01*
X147145761Y-110704285D01*
X147098142Y-110609047D01*
X147050523Y-110561428D01*
X146955285Y-110513809D01*
X146574333Y-110513809D01*
X147574333Y-110037619D02*
X147574333Y-110704285D01*
X147574333Y-110513809D02*
X147621952Y-110609047D01*
X147669571Y-110656666D01*
X147764809Y-110704285D01*
X147860047Y-110704285D01*
X148336238Y-110037619D02*
X148241000Y-110085238D01*
X148193380Y-110132857D01*
X148145761Y-110228095D01*
X148145761Y-110513809D01*
X148193380Y-110609047D01*
X148241000Y-110656666D01*
X148336238Y-110704285D01*
X148479095Y-110704285D01*
X148574333Y-110656666D01*
X148621952Y-110609047D01*
X148669571Y-110513809D01*
X148669571Y-110228095D01*
X148621952Y-110132857D01*
X148574333Y-110085238D01*
X148479095Y-110037619D01*
X148336238Y-110037619D01*
X149526714Y-110704285D02*
X149526714Y-109894761D01*
X149479095Y-109799523D01*
X149431476Y-109751904D01*
X149336238Y-109704285D01*
X149193380Y-109704285D01*
X149098142Y-109751904D01*
X149526714Y-110085238D02*
X149431476Y-110037619D01*
X149241000Y-110037619D01*
X149145761Y-110085238D01*
X149098142Y-110132857D01*
X149050523Y-110228095D01*
X149050523Y-110513809D01*
X149098142Y-110609047D01*
X149145761Y-110656666D01*
X149241000Y-110704285D01*
X149431476Y-110704285D01*
X149526714Y-110656666D01*
X150002904Y-110037619D02*
X150002904Y-110704285D01*
X150002904Y-110513809D02*
X150050523Y-110609047D01*
X150098142Y-110656666D01*
X150193380Y-110704285D01*
X150288619Y-110704285D01*
X151050523Y-110037619D02*
X151050523Y-110561428D01*
X151002904Y-110656666D01*
X150907666Y-110704285D01*
X150717190Y-110704285D01*
X150621952Y-110656666D01*
X151050523Y-110085238D02*
X150955285Y-110037619D01*
X150717190Y-110037619D01*
X150621952Y-110085238D01*
X150574333Y-110180476D01*
X150574333Y-110275714D01*
X150621952Y-110370952D01*
X150717190Y-110418571D01*
X150955285Y-110418571D01*
X151050523Y-110466190D01*
X151526714Y-110037619D02*
X151526714Y-110704285D01*
X151526714Y-110609047D02*
X151574333Y-110656666D01*
X151669571Y-110704285D01*
X151812428Y-110704285D01*
X151907666Y-110656666D01*
X151955285Y-110561428D01*
X151955285Y-110037619D01*
X151955285Y-110561428D02*
X152002904Y-110656666D01*
X152098142Y-110704285D01*
X152241000Y-110704285D01*
X152336238Y-110656666D01*
X152383857Y-110561428D01*
X152383857Y-110037619D01*
X152860047Y-110037619D02*
X152860047Y-110704285D01*
X152860047Y-110609047D02*
X152907666Y-110656666D01*
X153002904Y-110704285D01*
X153145761Y-110704285D01*
X153241000Y-110656666D01*
X153288619Y-110561428D01*
X153288619Y-110037619D01*
X153288619Y-110561428D02*
X153336238Y-110656666D01*
X153431476Y-110704285D01*
X153574333Y-110704285D01*
X153669571Y-110656666D01*
X153717190Y-110561428D01*
X153717190Y-110037619D01*
X154574333Y-110085238D02*
X154479095Y-110037619D01*
X154288619Y-110037619D01*
X154193380Y-110085238D01*
X154145761Y-110180476D01*
X154145761Y-110561428D01*
X154193380Y-110656666D01*
X154288619Y-110704285D01*
X154479095Y-110704285D01*
X154574333Y-110656666D01*
X154621952Y-110561428D01*
X154621952Y-110466190D01*
X154145761Y-110370952D01*
X155050523Y-110037619D02*
X155050523Y-110704285D01*
X155050523Y-110513809D02*
X155098142Y-110609047D01*
X155145761Y-110656666D01*
X155241000Y-110704285D01*
X155336238Y-110704285D01*
X156336238Y-110704285D02*
X156574333Y-110037619D01*
X156812428Y-110704285D01*
X157145761Y-110942380D02*
X157193380Y-110990000D01*
X157288619Y-111037619D01*
X157526714Y-111037619D01*
X157621952Y-110990000D01*
X157669571Y-110942380D01*
X157717190Y-110847142D01*
X157717190Y-110751904D01*
X157669571Y-110609047D01*
X157098142Y-110037619D01*
X157717190Y-110037619D01*
X146719571Y-111660857D02*
X146638619Y-111579904D01*
X146395761Y-111498952D01*
X146233857Y-111498952D01*
X145991000Y-111579904D01*
X145829095Y-111741809D01*
X145748142Y-111903714D01*
X145667190Y-112227523D01*
X145667190Y-112470380D01*
X145748142Y-112794190D01*
X145829095Y-112956095D01*
X145991000Y-113118000D01*
X146233857Y-113198952D01*
X146395761Y-113198952D01*
X146638619Y-113118000D01*
X146719571Y-113037047D01*
X147448142Y-111498952D02*
X147448142Y-113198952D01*
X147448142Y-112389428D02*
X148419571Y-112389428D01*
X148419571Y-111498952D02*
X148419571Y-113198952D01*
X149067190Y-113198952D02*
X150119571Y-113198952D01*
X149552904Y-112551333D01*
X149795761Y-112551333D01*
X149957666Y-112470380D01*
X150038619Y-112389428D01*
X150119571Y-112227523D01*
X150119571Y-111822761D01*
X150038619Y-111660857D01*
X149957666Y-111579904D01*
X149795761Y-111498952D01*
X149310047Y-111498952D01*
X149148142Y-111579904D01*
X149067190Y-111660857D01*
X151576714Y-112632285D02*
X151576714Y-111498952D01*
X151171952Y-113279904D02*
X150767190Y-112065619D01*
X151819571Y-112065619D01*
X153357666Y-111498952D02*
X152386238Y-111498952D01*
X152871952Y-111498952D02*
X152871952Y-113198952D01*
X152710047Y-112956095D01*
X152548142Y-112794190D01*
X152386238Y-112713238D01*
X154005285Y-111984666D02*
X154814809Y-111984666D01*
X153843380Y-111498952D02*
X154410047Y-113198952D01*
X154976714Y-111498952D01*
X150629428Y-83787904D02*
X150629428Y-83454571D01*
X150105619Y-83311714D02*
X150105619Y-83787904D01*
X151105619Y-83787904D01*
X151105619Y-83311714D01*
X150629428Y-82883142D02*
X150629428Y-82549809D01*
X150105619Y-82406952D02*
X150105619Y-82883142D01*
X151105619Y-82883142D01*
X151105619Y-82406952D01*
X150105619Y-81978380D02*
X151105619Y-81978380D01*
X151105619Y-81597428D01*
X151058000Y-81502190D01*
X151010380Y-81454571D01*
X150915142Y-81406952D01*
X150772285Y-81406952D01*
X150677047Y-81454571D01*
X150629428Y-81502190D01*
X150581809Y-81597428D01*
X150581809Y-81978380D01*
X150105619Y-80406952D02*
X150581809Y-80740285D01*
X150105619Y-80978380D02*
X151105619Y-80978380D01*
X151105619Y-80597428D01*
X151058000Y-80502190D01*
X151010380Y-80454571D01*
X150915142Y-80406952D01*
X150772285Y-80406952D01*
X150677047Y-80454571D01*
X150629428Y-80502190D01*
X150581809Y-80597428D01*
X150581809Y-80978380D01*
X151105619Y-79787904D02*
X151105619Y-79597428D01*
X151058000Y-79502190D01*
X150962761Y-79406952D01*
X150772285Y-79359333D01*
X150438952Y-79359333D01*
X150248476Y-79406952D01*
X150153238Y-79502190D01*
X150105619Y-79597428D01*
X150105619Y-79787904D01*
X150153238Y-79883142D01*
X150248476Y-79978380D01*
X150438952Y-80026000D01*
X150772285Y-80026000D01*
X150962761Y-79978380D01*
X151058000Y-79883142D01*
X151105619Y-79787904D01*
X150105619Y-78930761D02*
X151105619Y-78930761D01*
X150391333Y-78597428D01*
X151105619Y-78264095D01*
X150105619Y-78264095D01*
X149360380Y-83383142D02*
X149408000Y-83335523D01*
X149455619Y-83240285D01*
X149455619Y-83002190D01*
X149408000Y-82906952D01*
X149360380Y-82859333D01*
X149265142Y-82811714D01*
X149169904Y-82811714D01*
X149027047Y-82859333D01*
X148455619Y-83430761D01*
X148455619Y-82811714D01*
X149122285Y-81954571D02*
X148455619Y-81954571D01*
X149503238Y-82192666D02*
X148788952Y-82430761D01*
X148788952Y-81811714D01*
X148455619Y-80668857D02*
X149455619Y-80668857D01*
X149360380Y-80240285D02*
X149408000Y-80192666D01*
X149455619Y-80097428D01*
X149455619Y-79859333D01*
X149408000Y-79764095D01*
X149360380Y-79716476D01*
X149265142Y-79668857D01*
X149169904Y-79668857D01*
X149027047Y-79716476D01*
X148455619Y-80287904D01*
X148455619Y-79668857D01*
X148550857Y-78668857D02*
X148503238Y-78716476D01*
X148455619Y-78859333D01*
X148455619Y-78954571D01*
X148503238Y-79097428D01*
X148598476Y-79192666D01*
X148693714Y-79240285D01*
X148884190Y-79287904D01*
X149027047Y-79287904D01*
X149217523Y-79240285D01*
X149312761Y-79192666D01*
X149408000Y-79097428D01*
X149455619Y-78954571D01*
X149455619Y-78859333D01*
X149408000Y-78716476D01*
X149360380Y-78668857D01*
X150629428Y-91844666D02*
X150581809Y-91701809D01*
X150534190Y-91654190D01*
X150438952Y-91606571D01*
X150296095Y-91606571D01*
X150200857Y-91654190D01*
X150153238Y-91701809D01*
X150105619Y-91797047D01*
X150105619Y-92178000D01*
X151105619Y-92178000D01*
X151105619Y-91844666D01*
X151058000Y-91749428D01*
X151010380Y-91701809D01*
X150915142Y-91654190D01*
X150819904Y-91654190D01*
X150724666Y-91701809D01*
X150677047Y-91749428D01*
X150629428Y-91844666D01*
X150629428Y-92178000D01*
X150105619Y-91178000D02*
X151105619Y-91178000D01*
X151105619Y-90511333D02*
X151105619Y-90320857D01*
X151058000Y-90225619D01*
X150962761Y-90130380D01*
X150772285Y-90082761D01*
X150438952Y-90082761D01*
X150248476Y-90130380D01*
X150153238Y-90225619D01*
X150105619Y-90320857D01*
X150105619Y-90511333D01*
X150153238Y-90606571D01*
X150248476Y-90701809D01*
X150438952Y-90749428D01*
X150772285Y-90749428D01*
X150962761Y-90701809D01*
X151058000Y-90606571D01*
X151105619Y-90511333D01*
X150153238Y-89701809D02*
X150105619Y-89558952D01*
X150105619Y-89320857D01*
X150153238Y-89225619D01*
X150200857Y-89178000D01*
X150296095Y-89130380D01*
X150391333Y-89130380D01*
X150486571Y-89178000D01*
X150534190Y-89225619D01*
X150581809Y-89320857D01*
X150629428Y-89511333D01*
X150677047Y-89606571D01*
X150724666Y-89654190D01*
X150819904Y-89701809D01*
X150915142Y-89701809D01*
X151010380Y-89654190D01*
X151058000Y-89606571D01*
X151105619Y-89511333D01*
X151105619Y-89273238D01*
X151058000Y-89130380D01*
X149360380Y-93035142D02*
X149408000Y-92987523D01*
X149455619Y-92892285D01*
X149455619Y-92654190D01*
X149408000Y-92558952D01*
X149360380Y-92511333D01*
X149265142Y-92463714D01*
X149169904Y-92463714D01*
X149027047Y-92511333D01*
X148455619Y-93082761D01*
X148455619Y-92463714D01*
X149455619Y-91558952D02*
X149455619Y-92035142D01*
X148979428Y-92082761D01*
X149027047Y-92035142D01*
X149074666Y-91939904D01*
X149074666Y-91701809D01*
X149027047Y-91606571D01*
X148979428Y-91558952D01*
X148884190Y-91511333D01*
X148646095Y-91511333D01*
X148550857Y-91558952D01*
X148503238Y-91606571D01*
X148455619Y-91701809D01*
X148455619Y-91939904D01*
X148503238Y-92035142D01*
X148550857Y-92082761D01*
X148503238Y-90368476D02*
X148455619Y-90225619D01*
X148455619Y-89987523D01*
X148503238Y-89892285D01*
X148550857Y-89844666D01*
X148646095Y-89797047D01*
X148741333Y-89797047D01*
X148836571Y-89844666D01*
X148884190Y-89892285D01*
X148931809Y-89987523D01*
X148979428Y-90178000D01*
X149027047Y-90273238D01*
X149074666Y-90320857D01*
X149169904Y-90368476D01*
X149265142Y-90368476D01*
X149360380Y-90320857D01*
X149408000Y-90273238D01*
X149455619Y-90178000D01*
X149455619Y-89939904D01*
X149408000Y-89797047D01*
X148455619Y-89368476D02*
X149455619Y-89368476D01*
X149455619Y-88987523D01*
X149408000Y-88892285D01*
X149360380Y-88844666D01*
X149265142Y-88797047D01*
X149122285Y-88797047D01*
X149027047Y-88844666D01*
X148979428Y-88892285D01*
X148931809Y-88987523D01*
X148931809Y-89368476D01*
X148455619Y-88368476D02*
X149455619Y-88368476D01*
D10*
X144907000Y-75946000D02*
X144907000Y-85852000D01*
X154559000Y-75946000D02*
X144907000Y-75946000D01*
X154559000Y-85852000D02*
X154559000Y-75946000D01*
X144907000Y-85852000D02*
X154559000Y-85852000D01*
X144907000Y-96012000D02*
X144907000Y-85852000D01*
X154559000Y-96012000D02*
X144907000Y-96012000D01*
X154559000Y-85852000D02*
X154559000Y-96012000D01*
D11*
X155829095Y-98036000D02*
X155733857Y-98083619D01*
X155591000Y-98083619D01*
X155448142Y-98036000D01*
X155352904Y-97940761D01*
X155305285Y-97845523D01*
X155257666Y-97655047D01*
X155257666Y-97512190D01*
X155305285Y-97321714D01*
X155352904Y-97226476D01*
X155448142Y-97131238D01*
X155591000Y-97083619D01*
X155686238Y-97083619D01*
X155829095Y-97131238D01*
X155876714Y-97178857D01*
X155876714Y-97512190D01*
X155686238Y-97512190D01*
X156305285Y-97083619D02*
X156305285Y-98083619D01*
X156876714Y-97083619D01*
X156876714Y-98083619D01*
X157352904Y-97083619D02*
X157352904Y-98083619D01*
X157591000Y-98083619D01*
X157733857Y-98036000D01*
X157829095Y-97940761D01*
X157876714Y-97845523D01*
X157924333Y-97655047D01*
X157924333Y-97512190D01*
X157876714Y-97321714D01*
X157829095Y-97226476D01*
X157733857Y-97131238D01*
X157591000Y-97083619D01*
X157352904Y-97083619D01*
X157059333Y-94638857D02*
X157011714Y-94591238D01*
X156868857Y-94543619D01*
X156773619Y-94543619D01*
X156630761Y-94591238D01*
X156535523Y-94686476D01*
X156487904Y-94781714D01*
X156440285Y-94972190D01*
X156440285Y-95115047D01*
X156487904Y-95305523D01*
X156535523Y-95400761D01*
X156630761Y-95496000D01*
X156773619Y-95543619D01*
X156868857Y-95543619D01*
X157011714Y-95496000D01*
X157059333Y-95448380D01*
X157440285Y-94591238D02*
X157583142Y-94543619D01*
X157821238Y-94543619D01*
X157916476Y-94591238D01*
X157964095Y-94638857D01*
X158011714Y-94734095D01*
X158011714Y-94829333D01*
X157964095Y-94924571D01*
X157916476Y-94972190D01*
X157821238Y-95019809D01*
X157630761Y-95067428D01*
X157535523Y-95115047D01*
X157487904Y-95162666D01*
X157440285Y-95257904D01*
X157440285Y-95353142D01*
X157487904Y-95448380D01*
X157535523Y-95496000D01*
X157630761Y-95543619D01*
X157868857Y-95543619D01*
X158011714Y-95496000D01*
X156249761Y-91971857D02*
X156202142Y-91924238D01*
X156059285Y-91876619D01*
X155964047Y-91876619D01*
X155821190Y-91924238D01*
X155725952Y-92019476D01*
X155678333Y-92114714D01*
X155630714Y-92305190D01*
X155630714Y-92448047D01*
X155678333Y-92638523D01*
X155725952Y-92733761D01*
X155821190Y-92829000D01*
X155964047Y-92876619D01*
X156059285Y-92876619D01*
X156202142Y-92829000D01*
X156249761Y-92781380D01*
X157154523Y-91876619D02*
X156678333Y-91876619D01*
X156678333Y-92876619D01*
X157487857Y-91876619D02*
X157487857Y-92876619D01*
X158059285Y-91876619D02*
X157630714Y-92448047D01*
X158059285Y-92876619D02*
X157487857Y-92305190D01*
X154892571Y-89463619D02*
X154892571Y-90463619D01*
X155225904Y-89749333D01*
X155559238Y-90463619D01*
X155559238Y-89463619D01*
X156225904Y-90463619D02*
X156416380Y-90463619D01*
X156511619Y-90416000D01*
X156606857Y-90320761D01*
X156654476Y-90130285D01*
X156654476Y-89796952D01*
X156606857Y-89606476D01*
X156511619Y-89511238D01*
X156416380Y-89463619D01*
X156225904Y-89463619D01*
X156130666Y-89511238D01*
X156035428Y-89606476D01*
X155987809Y-89796952D01*
X155987809Y-90130285D01*
X156035428Y-90320761D01*
X156130666Y-90416000D01*
X156225904Y-90463619D01*
X157035428Y-89511238D02*
X157178285Y-89463619D01*
X157416380Y-89463619D01*
X157511619Y-89511238D01*
X157559238Y-89558857D01*
X157606857Y-89654095D01*
X157606857Y-89749333D01*
X157559238Y-89844571D01*
X157511619Y-89892190D01*
X157416380Y-89939809D01*
X157225904Y-89987428D01*
X157130666Y-90035047D01*
X157083047Y-90082666D01*
X157035428Y-90177904D01*
X157035428Y-90273142D01*
X157083047Y-90368380D01*
X157130666Y-90416000D01*
X157225904Y-90463619D01*
X157464000Y-90463619D01*
X157606857Y-90416000D01*
X158035428Y-89463619D02*
X158035428Y-90463619D01*
X154892571Y-86923619D02*
X154892571Y-87923619D01*
X155225904Y-87209333D01*
X155559238Y-87923619D01*
X155559238Y-86923619D01*
X156035428Y-86923619D02*
X156035428Y-87923619D01*
X156464000Y-86971238D02*
X156606857Y-86923619D01*
X156844952Y-86923619D01*
X156940190Y-86971238D01*
X156987809Y-87018857D01*
X157035428Y-87114095D01*
X157035428Y-87209333D01*
X156987809Y-87304571D01*
X156940190Y-87352190D01*
X156844952Y-87399809D01*
X156654476Y-87447428D01*
X156559238Y-87495047D01*
X156511619Y-87542666D01*
X156464000Y-87637904D01*
X156464000Y-87733142D01*
X156511619Y-87828380D01*
X156559238Y-87876000D01*
X156654476Y-87923619D01*
X156892571Y-87923619D01*
X157035428Y-87876000D01*
X157654476Y-87923619D02*
X157844952Y-87923619D01*
X157940190Y-87876000D01*
X158035428Y-87780761D01*
X158083047Y-87590285D01*
X158083047Y-87256952D01*
X158035428Y-87066476D01*
X157940190Y-86971238D01*
X157844952Y-86923619D01*
X157654476Y-86923619D01*
X157559238Y-86971238D01*
X157464000Y-87066476D01*
X157416380Y-87256952D01*
X157416380Y-87590285D01*
X157464000Y-87780761D01*
X157559238Y-87876000D01*
X157654476Y-87923619D01*
X155503714Y-84558238D02*
X155646571Y-84510619D01*
X155884666Y-84510619D01*
X155979904Y-84558238D01*
X156027523Y-84605857D01*
X156075142Y-84701095D01*
X156075142Y-84796333D01*
X156027523Y-84891571D01*
X155979904Y-84939190D01*
X155884666Y-84986809D01*
X155694190Y-85034428D01*
X155598952Y-85082047D01*
X155551333Y-85129666D01*
X155503714Y-85224904D01*
X155503714Y-85320142D01*
X155551333Y-85415380D01*
X155598952Y-85463000D01*
X155694190Y-85510619D01*
X155932285Y-85510619D01*
X156075142Y-85463000D01*
X156503714Y-84510619D02*
X156503714Y-85510619D01*
X156741809Y-85510619D01*
X156884666Y-85463000D01*
X156979904Y-85367761D01*
X157027523Y-85272523D01*
X157075142Y-85082047D01*
X157075142Y-84939190D01*
X157027523Y-84748714D01*
X156979904Y-84653476D01*
X156884666Y-84558238D01*
X156741809Y-84510619D01*
X156503714Y-84510619D01*
X157456095Y-84796333D02*
X157932285Y-84796333D01*
X157360857Y-84510619D02*
X157694190Y-85510619D01*
X158027523Y-84510619D01*
X155527523Y-81891238D02*
X155670380Y-81843619D01*
X155908476Y-81843619D01*
X156003714Y-81891238D01*
X156051333Y-81938857D01*
X156098952Y-82034095D01*
X156098952Y-82129333D01*
X156051333Y-82224571D01*
X156003714Y-82272190D01*
X155908476Y-82319809D01*
X155718000Y-82367428D01*
X155622761Y-82415047D01*
X155575142Y-82462666D01*
X155527523Y-82557904D01*
X155527523Y-82653142D01*
X155575142Y-82748380D01*
X155622761Y-82796000D01*
X155718000Y-82843619D01*
X155956095Y-82843619D01*
X156098952Y-82796000D01*
X157098952Y-81938857D02*
X157051333Y-81891238D01*
X156908476Y-81843619D01*
X156813238Y-81843619D01*
X156670380Y-81891238D01*
X156575142Y-81986476D01*
X156527523Y-82081714D01*
X156479904Y-82272190D01*
X156479904Y-82415047D01*
X156527523Y-82605523D01*
X156575142Y-82700761D01*
X156670380Y-82796000D01*
X156813238Y-82843619D01*
X156908476Y-82843619D01*
X157051333Y-82796000D01*
X157098952Y-82748380D01*
X158003714Y-81843619D02*
X157527523Y-81843619D01*
X157527523Y-82843619D01*
X155130666Y-80430619D02*
X155464000Y-79430619D01*
X155797333Y-80430619D01*
X156702095Y-79525857D02*
X156654476Y-79478238D01*
X156511619Y-79430619D01*
X156416380Y-79430619D01*
X156273523Y-79478238D01*
X156178285Y-79573476D01*
X156130666Y-79668714D01*
X156083047Y-79859190D01*
X156083047Y-80002047D01*
X156130666Y-80192523D01*
X156178285Y-80287761D01*
X156273523Y-80383000D01*
X156416380Y-80430619D01*
X156511619Y-80430619D01*
X156654476Y-80383000D01*
X156702095Y-80335380D01*
X157702095Y-79525857D02*
X157654476Y-79478238D01*
X157511619Y-79430619D01*
X157416380Y-79430619D01*
X157273523Y-79478238D01*
X157178285Y-79573476D01*
X157130666Y-79668714D01*
X157083047Y-79859190D01*
X157083047Y-80002047D01*
X157130666Y-80192523D01*
X157178285Y-80287761D01*
X157273523Y-80383000D01*
X157416380Y-80430619D01*
X157511619Y-80430619D01*
X157654476Y-80383000D01*
X157702095Y-80335380D01*
M02*
