%TF.GenerationSoftware,KiCad,Pcbnew,(5.1.8)-1*%
%TF.CreationDate,2021-03-12T16:38:44+01:00*%
%TF.ProjectId,CH341Apro,43483334-3141-4707-926f-2e6b69636164,rev?*%
%TF.SameCoordinates,Original*%
%TF.FileFunction,Soldermask,Top*%
%TF.FilePolarity,Negative*%
%FSLAX46Y46*%
G04 Gerber Fmt 4.6, Leading zero omitted, Abs format (unit mm)*
G04 Created by KiCad (PCBNEW (5.1.8)-1) date 2021-03-12 16:38:44*
%MOMM*%
%LPD*%
G01*
G04 APERTURE LIST*
%ADD10C,0.100000*%
%ADD11R,1.500000X1.000000*%
%ADD12C,1.400000*%
%ADD13C,1.350000*%
%ADD14R,0.500000X0.800000*%
%ADD15R,0.400000X0.800000*%
%ADD16R,2.000000X3.800000*%
%ADD17R,2.000000X1.500000*%
%ADD18R,1.100000X2.500000*%
%ADD19O,1.900000X3.500000*%
%ADD20C,1.100000*%
%ADD21R,2.400000X3.500000*%
%ADD22R,1.700000X1.700000*%
%ADD23O,1.700000X1.700000*%
G04 APERTURE END LIST*
D10*
G36*
X111277400Y-45237400D02*
G01*
X112699800Y-45669200D01*
X113817400Y-46202600D01*
X115493800Y-47447200D01*
X116662200Y-48666400D01*
X117830600Y-50622200D01*
X118364000Y-51917600D01*
X118694200Y-53619400D01*
X118719600Y-56134000D01*
X118694200Y-113919000D01*
X110871000Y-113919000D01*
X111252000Y-113665000D01*
X111506000Y-113411000D01*
X111760000Y-112903000D01*
X116586000Y-112903000D01*
X116586000Y-54610000D01*
X116332000Y-53086000D01*
X115544600Y-51054000D01*
X114046000Y-49250600D01*
X112242600Y-47955200D01*
X110820200Y-47447200D01*
X109474000Y-47193200D01*
X100965000Y-47193200D01*
X99745800Y-47294800D01*
X98425000Y-47625000D01*
X96748600Y-48463200D01*
X95504000Y-49555400D01*
X94259400Y-51282600D01*
X93776800Y-52451000D01*
X93522800Y-53492400D01*
X93395800Y-54965600D01*
X93395800Y-112903000D01*
X97663000Y-112903000D01*
X97790000Y-113284000D01*
X97917000Y-113538000D01*
X98171000Y-113792000D01*
X98552000Y-113919000D01*
X91186000Y-113919000D01*
X91211400Y-54737000D01*
X91465400Y-52527200D01*
X92202000Y-50393600D01*
X93573600Y-48310800D01*
X95402400Y-46710600D01*
X96799400Y-45872400D01*
X98628200Y-45212000D01*
X100177600Y-44958000D01*
X103809800Y-44983400D01*
X109651800Y-44958000D01*
X111277400Y-45237400D01*
G37*
X111277400Y-45237400D02*
X112699800Y-45669200D01*
X113817400Y-46202600D01*
X115493800Y-47447200D01*
X116662200Y-48666400D01*
X117830600Y-50622200D01*
X118364000Y-51917600D01*
X118694200Y-53619400D01*
X118719600Y-56134000D01*
X118694200Y-113919000D01*
X110871000Y-113919000D01*
X111252000Y-113665000D01*
X111506000Y-113411000D01*
X111760000Y-112903000D01*
X116586000Y-112903000D01*
X116586000Y-54610000D01*
X116332000Y-53086000D01*
X115544600Y-51054000D01*
X114046000Y-49250600D01*
X112242600Y-47955200D01*
X110820200Y-47447200D01*
X109474000Y-47193200D01*
X100965000Y-47193200D01*
X99745800Y-47294800D01*
X98425000Y-47625000D01*
X96748600Y-48463200D01*
X95504000Y-49555400D01*
X94259400Y-51282600D01*
X93776800Y-52451000D01*
X93522800Y-53492400D01*
X93395800Y-54965600D01*
X93395800Y-112903000D01*
X97663000Y-112903000D01*
X97790000Y-113284000D01*
X97917000Y-113538000D01*
X98171000Y-113792000D01*
X98552000Y-113919000D01*
X91186000Y-113919000D01*
X91211400Y-54737000D01*
X91465400Y-52527200D01*
X92202000Y-50393600D01*
X93573600Y-48310800D01*
X95402400Y-46710600D01*
X96799400Y-45872400D01*
X98628200Y-45212000D01*
X100177600Y-44958000D01*
X103809800Y-44983400D01*
X109651800Y-44958000D01*
X111277400Y-45237400D01*
%TO.C,JP2*%
G36*
X96762000Y-103874000D02*
G01*
X96762000Y-104424000D01*
X96761398Y-104424000D01*
X96761398Y-104448534D01*
X96756588Y-104497365D01*
X96747016Y-104545490D01*
X96732772Y-104592445D01*
X96713995Y-104637778D01*
X96690864Y-104681051D01*
X96663604Y-104721850D01*
X96632476Y-104759779D01*
X96597779Y-104794476D01*
X96559850Y-104825604D01*
X96519051Y-104852864D01*
X96475778Y-104875995D01*
X96430445Y-104894772D01*
X96383490Y-104909016D01*
X96335365Y-104918588D01*
X96286534Y-104923398D01*
X96262000Y-104923398D01*
X96262000Y-104924000D01*
X95762000Y-104924000D01*
X95762000Y-104923398D01*
X95737466Y-104923398D01*
X95688635Y-104918588D01*
X95640510Y-104909016D01*
X95593555Y-104894772D01*
X95548222Y-104875995D01*
X95504949Y-104852864D01*
X95464150Y-104825604D01*
X95426221Y-104794476D01*
X95391524Y-104759779D01*
X95360396Y-104721850D01*
X95333136Y-104681051D01*
X95310005Y-104637778D01*
X95291228Y-104592445D01*
X95276984Y-104545490D01*
X95267412Y-104497365D01*
X95262602Y-104448534D01*
X95262602Y-104424000D01*
X95262000Y-104424000D01*
X95262000Y-103874000D01*
X96762000Y-103874000D01*
G37*
G36*
X95262602Y-101824000D02*
G01*
X95262602Y-101799466D01*
X95267412Y-101750635D01*
X95276984Y-101702510D01*
X95291228Y-101655555D01*
X95310005Y-101610222D01*
X95333136Y-101566949D01*
X95360396Y-101526150D01*
X95391524Y-101488221D01*
X95426221Y-101453524D01*
X95464150Y-101422396D01*
X95504949Y-101395136D01*
X95548222Y-101372005D01*
X95593555Y-101353228D01*
X95640510Y-101338984D01*
X95688635Y-101329412D01*
X95737466Y-101324602D01*
X95762000Y-101324602D01*
X95762000Y-101324000D01*
X96262000Y-101324000D01*
X96262000Y-101324602D01*
X96286534Y-101324602D01*
X96335365Y-101329412D01*
X96383490Y-101338984D01*
X96430445Y-101353228D01*
X96475778Y-101372005D01*
X96519051Y-101395136D01*
X96559850Y-101422396D01*
X96597779Y-101453524D01*
X96632476Y-101488221D01*
X96663604Y-101526150D01*
X96690864Y-101566949D01*
X96713995Y-101610222D01*
X96732772Y-101655555D01*
X96747016Y-101702510D01*
X96756588Y-101750635D01*
X96761398Y-101799466D01*
X96761398Y-101824000D01*
X96762000Y-101824000D01*
X96762000Y-102374000D01*
X95262000Y-102374000D01*
X95262000Y-101824000D01*
X95262602Y-101824000D01*
G37*
D11*
X96012000Y-103124000D03*
%TD*%
D12*
%TO.C,J3*%
X108648500Y-77787500D03*
X101028500Y-77787500D03*
X108648500Y-75247500D03*
X101028500Y-75247500D03*
X108648500Y-72707500D03*
X101028500Y-72707500D03*
X108648500Y-70167500D03*
X101028500Y-70167500D03*
X108648500Y-67627500D03*
X101028500Y-67627500D03*
D13*
X108648500Y-65087500D03*
D12*
X101028500Y-65087500D03*
D13*
X108648500Y-62547500D03*
X101028500Y-62547500D03*
D12*
X108648500Y-60007500D03*
D13*
X101028500Y-60007500D03*
%TD*%
D14*
%TO.C,RN1*%
X112325000Y-101335000D03*
D15*
X110725000Y-101335000D03*
X111525000Y-101335000D03*
D14*
X109925000Y-101335000D03*
D15*
X111525000Y-103135000D03*
D14*
X112325000Y-103135000D03*
D15*
X110725000Y-103135000D03*
D14*
X109925000Y-103135000D03*
%TD*%
D16*
%TO.C,U1*%
X105893000Y-101981000D03*
D17*
X99593000Y-101981000D03*
X99593000Y-104281000D03*
X99593000Y-99681000D03*
%TD*%
%TO.C,U2*%
G36*
G01*
X94701500Y-96861000D02*
X94401500Y-96861000D01*
G75*
G02*
X94251500Y-96711000I0J150000D01*
G01*
X94251500Y-94961000D01*
G75*
G02*
X94401500Y-94811000I150000J0D01*
G01*
X94701500Y-94811000D01*
G75*
G02*
X94851500Y-94961000I0J-150000D01*
G01*
X94851500Y-96711000D01*
G75*
G02*
X94701500Y-96861000I-150000J0D01*
G01*
G37*
G36*
G01*
X95971500Y-96861000D02*
X95671500Y-96861000D01*
G75*
G02*
X95521500Y-96711000I0J150000D01*
G01*
X95521500Y-94961000D01*
G75*
G02*
X95671500Y-94811000I150000J0D01*
G01*
X95971500Y-94811000D01*
G75*
G02*
X96121500Y-94961000I0J-150000D01*
G01*
X96121500Y-96711000D01*
G75*
G02*
X95971500Y-96861000I-150000J0D01*
G01*
G37*
G36*
G01*
X97241500Y-96861000D02*
X96941500Y-96861000D01*
G75*
G02*
X96791500Y-96711000I0J150000D01*
G01*
X96791500Y-94961000D01*
G75*
G02*
X96941500Y-94811000I150000J0D01*
G01*
X97241500Y-94811000D01*
G75*
G02*
X97391500Y-94961000I0J-150000D01*
G01*
X97391500Y-96711000D01*
G75*
G02*
X97241500Y-96861000I-150000J0D01*
G01*
G37*
G36*
G01*
X98511500Y-96861000D02*
X98211500Y-96861000D01*
G75*
G02*
X98061500Y-96711000I0J150000D01*
G01*
X98061500Y-94961000D01*
G75*
G02*
X98211500Y-94811000I150000J0D01*
G01*
X98511500Y-94811000D01*
G75*
G02*
X98661500Y-94961000I0J-150000D01*
G01*
X98661500Y-96711000D01*
G75*
G02*
X98511500Y-96861000I-150000J0D01*
G01*
G37*
G36*
G01*
X99781500Y-96861000D02*
X99481500Y-96861000D01*
G75*
G02*
X99331500Y-96711000I0J150000D01*
G01*
X99331500Y-94961000D01*
G75*
G02*
X99481500Y-94811000I150000J0D01*
G01*
X99781500Y-94811000D01*
G75*
G02*
X99931500Y-94961000I0J-150000D01*
G01*
X99931500Y-96711000D01*
G75*
G02*
X99781500Y-96861000I-150000J0D01*
G01*
G37*
G36*
G01*
X101051500Y-96861000D02*
X100751500Y-96861000D01*
G75*
G02*
X100601500Y-96711000I0J150000D01*
G01*
X100601500Y-94961000D01*
G75*
G02*
X100751500Y-94811000I150000J0D01*
G01*
X101051500Y-94811000D01*
G75*
G02*
X101201500Y-94961000I0J-150000D01*
G01*
X101201500Y-96711000D01*
G75*
G02*
X101051500Y-96861000I-150000J0D01*
G01*
G37*
G36*
G01*
X102321500Y-96861000D02*
X102021500Y-96861000D01*
G75*
G02*
X101871500Y-96711000I0J150000D01*
G01*
X101871500Y-94961000D01*
G75*
G02*
X102021500Y-94811000I150000J0D01*
G01*
X102321500Y-94811000D01*
G75*
G02*
X102471500Y-94961000I0J-150000D01*
G01*
X102471500Y-96711000D01*
G75*
G02*
X102321500Y-96861000I-150000J0D01*
G01*
G37*
G36*
G01*
X103591500Y-96861000D02*
X103291500Y-96861000D01*
G75*
G02*
X103141500Y-96711000I0J150000D01*
G01*
X103141500Y-94961000D01*
G75*
G02*
X103291500Y-94811000I150000J0D01*
G01*
X103591500Y-94811000D01*
G75*
G02*
X103741500Y-94961000I0J-150000D01*
G01*
X103741500Y-96711000D01*
G75*
G02*
X103591500Y-96861000I-150000J0D01*
G01*
G37*
G36*
G01*
X104861500Y-96861000D02*
X104561500Y-96861000D01*
G75*
G02*
X104411500Y-96711000I0J150000D01*
G01*
X104411500Y-94961000D01*
G75*
G02*
X104561500Y-94811000I150000J0D01*
G01*
X104861500Y-94811000D01*
G75*
G02*
X105011500Y-94961000I0J-150000D01*
G01*
X105011500Y-96711000D01*
G75*
G02*
X104861500Y-96861000I-150000J0D01*
G01*
G37*
G36*
G01*
X106131500Y-96861000D02*
X105831500Y-96861000D01*
G75*
G02*
X105681500Y-96711000I0J150000D01*
G01*
X105681500Y-94961000D01*
G75*
G02*
X105831500Y-94811000I150000J0D01*
G01*
X106131500Y-94811000D01*
G75*
G02*
X106281500Y-94961000I0J-150000D01*
G01*
X106281500Y-96711000D01*
G75*
G02*
X106131500Y-96861000I-150000J0D01*
G01*
G37*
G36*
G01*
X107401500Y-96861000D02*
X107101500Y-96861000D01*
G75*
G02*
X106951500Y-96711000I0J150000D01*
G01*
X106951500Y-94961000D01*
G75*
G02*
X107101500Y-94811000I150000J0D01*
G01*
X107401500Y-94811000D01*
G75*
G02*
X107551500Y-94961000I0J-150000D01*
G01*
X107551500Y-96711000D01*
G75*
G02*
X107401500Y-96861000I-150000J0D01*
G01*
G37*
G36*
G01*
X108671500Y-96861000D02*
X108371500Y-96861000D01*
G75*
G02*
X108221500Y-96711000I0J150000D01*
G01*
X108221500Y-94961000D01*
G75*
G02*
X108371500Y-94811000I150000J0D01*
G01*
X108671500Y-94811000D01*
G75*
G02*
X108821500Y-94961000I0J-150000D01*
G01*
X108821500Y-96711000D01*
G75*
G02*
X108671500Y-96861000I-150000J0D01*
G01*
G37*
G36*
G01*
X109941500Y-96861000D02*
X109641500Y-96861000D01*
G75*
G02*
X109491500Y-96711000I0J150000D01*
G01*
X109491500Y-94961000D01*
G75*
G02*
X109641500Y-94811000I150000J0D01*
G01*
X109941500Y-94811000D01*
G75*
G02*
X110091500Y-94961000I0J-150000D01*
G01*
X110091500Y-96711000D01*
G75*
G02*
X109941500Y-96861000I-150000J0D01*
G01*
G37*
G36*
G01*
X111211500Y-96861000D02*
X110911500Y-96861000D01*
G75*
G02*
X110761500Y-96711000I0J150000D01*
G01*
X110761500Y-94961000D01*
G75*
G02*
X110911500Y-94811000I150000J0D01*
G01*
X111211500Y-94811000D01*
G75*
G02*
X111361500Y-94961000I0J-150000D01*
G01*
X111361500Y-96711000D01*
G75*
G02*
X111211500Y-96861000I-150000J0D01*
G01*
G37*
G36*
G01*
X111211500Y-87561000D02*
X110911500Y-87561000D01*
G75*
G02*
X110761500Y-87411000I0J150000D01*
G01*
X110761500Y-85661000D01*
G75*
G02*
X110911500Y-85511000I150000J0D01*
G01*
X111211500Y-85511000D01*
G75*
G02*
X111361500Y-85661000I0J-150000D01*
G01*
X111361500Y-87411000D01*
G75*
G02*
X111211500Y-87561000I-150000J0D01*
G01*
G37*
G36*
G01*
X109941500Y-87561000D02*
X109641500Y-87561000D01*
G75*
G02*
X109491500Y-87411000I0J150000D01*
G01*
X109491500Y-85661000D01*
G75*
G02*
X109641500Y-85511000I150000J0D01*
G01*
X109941500Y-85511000D01*
G75*
G02*
X110091500Y-85661000I0J-150000D01*
G01*
X110091500Y-87411000D01*
G75*
G02*
X109941500Y-87561000I-150000J0D01*
G01*
G37*
G36*
G01*
X108671500Y-87561000D02*
X108371500Y-87561000D01*
G75*
G02*
X108221500Y-87411000I0J150000D01*
G01*
X108221500Y-85661000D01*
G75*
G02*
X108371500Y-85511000I150000J0D01*
G01*
X108671500Y-85511000D01*
G75*
G02*
X108821500Y-85661000I0J-150000D01*
G01*
X108821500Y-87411000D01*
G75*
G02*
X108671500Y-87561000I-150000J0D01*
G01*
G37*
G36*
G01*
X107401500Y-87561000D02*
X107101500Y-87561000D01*
G75*
G02*
X106951500Y-87411000I0J150000D01*
G01*
X106951500Y-85661000D01*
G75*
G02*
X107101500Y-85511000I150000J0D01*
G01*
X107401500Y-85511000D01*
G75*
G02*
X107551500Y-85661000I0J-150000D01*
G01*
X107551500Y-87411000D01*
G75*
G02*
X107401500Y-87561000I-150000J0D01*
G01*
G37*
G36*
G01*
X106131500Y-87561000D02*
X105831500Y-87561000D01*
G75*
G02*
X105681500Y-87411000I0J150000D01*
G01*
X105681500Y-85661000D01*
G75*
G02*
X105831500Y-85511000I150000J0D01*
G01*
X106131500Y-85511000D01*
G75*
G02*
X106281500Y-85661000I0J-150000D01*
G01*
X106281500Y-87411000D01*
G75*
G02*
X106131500Y-87561000I-150000J0D01*
G01*
G37*
G36*
G01*
X104861500Y-87561000D02*
X104561500Y-87561000D01*
G75*
G02*
X104411500Y-87411000I0J150000D01*
G01*
X104411500Y-85661000D01*
G75*
G02*
X104561500Y-85511000I150000J0D01*
G01*
X104861500Y-85511000D01*
G75*
G02*
X105011500Y-85661000I0J-150000D01*
G01*
X105011500Y-87411000D01*
G75*
G02*
X104861500Y-87561000I-150000J0D01*
G01*
G37*
G36*
G01*
X103591500Y-87561000D02*
X103291500Y-87561000D01*
G75*
G02*
X103141500Y-87411000I0J150000D01*
G01*
X103141500Y-85661000D01*
G75*
G02*
X103291500Y-85511000I150000J0D01*
G01*
X103591500Y-85511000D01*
G75*
G02*
X103741500Y-85661000I0J-150000D01*
G01*
X103741500Y-87411000D01*
G75*
G02*
X103591500Y-87561000I-150000J0D01*
G01*
G37*
G36*
G01*
X102321500Y-87561000D02*
X102021500Y-87561000D01*
G75*
G02*
X101871500Y-87411000I0J150000D01*
G01*
X101871500Y-85661000D01*
G75*
G02*
X102021500Y-85511000I150000J0D01*
G01*
X102321500Y-85511000D01*
G75*
G02*
X102471500Y-85661000I0J-150000D01*
G01*
X102471500Y-87411000D01*
G75*
G02*
X102321500Y-87561000I-150000J0D01*
G01*
G37*
G36*
G01*
X101051500Y-87561000D02*
X100751500Y-87561000D01*
G75*
G02*
X100601500Y-87411000I0J150000D01*
G01*
X100601500Y-85661000D01*
G75*
G02*
X100751500Y-85511000I150000J0D01*
G01*
X101051500Y-85511000D01*
G75*
G02*
X101201500Y-85661000I0J-150000D01*
G01*
X101201500Y-87411000D01*
G75*
G02*
X101051500Y-87561000I-150000J0D01*
G01*
G37*
G36*
G01*
X99781500Y-87561000D02*
X99481500Y-87561000D01*
G75*
G02*
X99331500Y-87411000I0J150000D01*
G01*
X99331500Y-85661000D01*
G75*
G02*
X99481500Y-85511000I150000J0D01*
G01*
X99781500Y-85511000D01*
G75*
G02*
X99931500Y-85661000I0J-150000D01*
G01*
X99931500Y-87411000D01*
G75*
G02*
X99781500Y-87561000I-150000J0D01*
G01*
G37*
G36*
G01*
X98511500Y-87561000D02*
X98211500Y-87561000D01*
G75*
G02*
X98061500Y-87411000I0J150000D01*
G01*
X98061500Y-85661000D01*
G75*
G02*
X98211500Y-85511000I150000J0D01*
G01*
X98511500Y-85511000D01*
G75*
G02*
X98661500Y-85661000I0J-150000D01*
G01*
X98661500Y-87411000D01*
G75*
G02*
X98511500Y-87561000I-150000J0D01*
G01*
G37*
G36*
G01*
X97241500Y-87561000D02*
X96941500Y-87561000D01*
G75*
G02*
X96791500Y-87411000I0J150000D01*
G01*
X96791500Y-85661000D01*
G75*
G02*
X96941500Y-85511000I150000J0D01*
G01*
X97241500Y-85511000D01*
G75*
G02*
X97391500Y-85661000I0J-150000D01*
G01*
X97391500Y-87411000D01*
G75*
G02*
X97241500Y-87561000I-150000J0D01*
G01*
G37*
G36*
G01*
X95971500Y-87561000D02*
X95671500Y-87561000D01*
G75*
G02*
X95521500Y-87411000I0J150000D01*
G01*
X95521500Y-85661000D01*
G75*
G02*
X95671500Y-85511000I150000J0D01*
G01*
X95971500Y-85511000D01*
G75*
G02*
X96121500Y-85661000I0J-150000D01*
G01*
X96121500Y-87411000D01*
G75*
G02*
X95971500Y-87561000I-150000J0D01*
G01*
G37*
G36*
G01*
X94701500Y-87561000D02*
X94401500Y-87561000D01*
G75*
G02*
X94251500Y-87411000I0J150000D01*
G01*
X94251500Y-85661000D01*
G75*
G02*
X94401500Y-85511000I150000J0D01*
G01*
X94701500Y-85511000D01*
G75*
G02*
X94851500Y-85661000I0J-150000D01*
G01*
X94851500Y-87411000D01*
G75*
G02*
X94701500Y-87561000I-150000J0D01*
G01*
G37*
%TD*%
D18*
%TO.C,J1*%
X105726500Y-109200500D03*
X103726500Y-109200500D03*
X108226500Y-109200500D03*
X101226500Y-109200500D03*
D19*
X110426500Y-111950500D03*
X99026500Y-111950500D03*
D20*
X107026500Y-111950500D03*
X102426500Y-111950500D03*
%TD*%
%TO.C,C1*%
G36*
G01*
X100079000Y-105807500D02*
X100079000Y-106282500D01*
G75*
G02*
X99841500Y-106520000I-237500J0D01*
G01*
X99266500Y-106520000D01*
G75*
G02*
X99029000Y-106282500I0J237500D01*
G01*
X99029000Y-105807500D01*
G75*
G02*
X99266500Y-105570000I237500J0D01*
G01*
X99841500Y-105570000D01*
G75*
G02*
X100079000Y-105807500I0J-237500D01*
G01*
G37*
G36*
G01*
X98329000Y-105807500D02*
X98329000Y-106282500D01*
G75*
G02*
X98091500Y-106520000I-237500J0D01*
G01*
X97516500Y-106520000D01*
G75*
G02*
X97279000Y-106282500I0J237500D01*
G01*
X97279000Y-105807500D01*
G75*
G02*
X97516500Y-105570000I237500J0D01*
G01*
X98091500Y-105570000D01*
G75*
G02*
X98329000Y-105807500I0J-237500D01*
G01*
G37*
%TD*%
%TO.C,C2*%
G36*
G01*
X95374000Y-99551500D02*
X95374000Y-99076500D01*
G75*
G02*
X95611500Y-98839000I237500J0D01*
G01*
X96186500Y-98839000D01*
G75*
G02*
X96424000Y-99076500I0J-237500D01*
G01*
X96424000Y-99551500D01*
G75*
G02*
X96186500Y-99789000I-237500J0D01*
G01*
X95611500Y-99789000D01*
G75*
G02*
X95374000Y-99551500I0J237500D01*
G01*
G37*
G36*
G01*
X97124000Y-99551500D02*
X97124000Y-99076500D01*
G75*
G02*
X97361500Y-98839000I237500J0D01*
G01*
X97936500Y-98839000D01*
G75*
G02*
X98174000Y-99076500I0J-237500D01*
G01*
X98174000Y-99551500D01*
G75*
G02*
X97936500Y-99789000I-237500J0D01*
G01*
X97361500Y-99789000D01*
G75*
G02*
X97124000Y-99551500I0J237500D01*
G01*
G37*
%TD*%
%TO.C,C3*%
G36*
G01*
X109914200Y-98408500D02*
X109914200Y-97933500D01*
G75*
G02*
X110151700Y-97696000I237500J0D01*
G01*
X110726700Y-97696000D01*
G75*
G02*
X110964200Y-97933500I0J-237500D01*
G01*
X110964200Y-98408500D01*
G75*
G02*
X110726700Y-98646000I-237500J0D01*
G01*
X110151700Y-98646000D01*
G75*
G02*
X109914200Y-98408500I0J237500D01*
G01*
G37*
G36*
G01*
X108164200Y-98408500D02*
X108164200Y-97933500D01*
G75*
G02*
X108401700Y-97696000I237500J0D01*
G01*
X108976700Y-97696000D01*
G75*
G02*
X109214200Y-97933500I0J-237500D01*
G01*
X109214200Y-98408500D01*
G75*
G02*
X108976700Y-98646000I-237500J0D01*
G01*
X108401700Y-98646000D01*
G75*
G02*
X108164200Y-98408500I0J237500D01*
G01*
G37*
%TD*%
%TO.C,C5*%
G36*
G01*
X114410500Y-86504000D02*
X113935500Y-86504000D01*
G75*
G02*
X113698000Y-86266500I0J237500D01*
G01*
X113698000Y-85691500D01*
G75*
G02*
X113935500Y-85454000I237500J0D01*
G01*
X114410500Y-85454000D01*
G75*
G02*
X114648000Y-85691500I0J-237500D01*
G01*
X114648000Y-86266500D01*
G75*
G02*
X114410500Y-86504000I-237500J0D01*
G01*
G37*
G36*
G01*
X114410500Y-84754000D02*
X113935500Y-84754000D01*
G75*
G02*
X113698000Y-84516500I0J237500D01*
G01*
X113698000Y-83941500D01*
G75*
G02*
X113935500Y-83704000I237500J0D01*
G01*
X114410500Y-83704000D01*
G75*
G02*
X114648000Y-83941500I0J-237500D01*
G01*
X114648000Y-84516500D01*
G75*
G02*
X114410500Y-84754000I-237500J0D01*
G01*
G37*
%TD*%
%TO.C,C6*%
G36*
G01*
X113935500Y-97618000D02*
X114410500Y-97618000D01*
G75*
G02*
X114648000Y-97855500I0J-237500D01*
G01*
X114648000Y-98430500D01*
G75*
G02*
X114410500Y-98668000I-237500J0D01*
G01*
X113935500Y-98668000D01*
G75*
G02*
X113698000Y-98430500I0J237500D01*
G01*
X113698000Y-97855500D01*
G75*
G02*
X113935500Y-97618000I237500J0D01*
G01*
G37*
G36*
G01*
X113935500Y-95868000D02*
X114410500Y-95868000D01*
G75*
G02*
X114648000Y-96105500I0J-237500D01*
G01*
X114648000Y-96680500D01*
G75*
G02*
X114410500Y-96918000I-237500J0D01*
G01*
X113935500Y-96918000D01*
G75*
G02*
X113698000Y-96680500I0J237500D01*
G01*
X113698000Y-96105500D01*
G75*
G02*
X113935500Y-95868000I237500J0D01*
G01*
G37*
%TD*%
%TO.C,PWR*%
G36*
G01*
X95335500Y-109274000D02*
X94910500Y-109274000D01*
G75*
G02*
X94698000Y-109061500I0J212500D01*
G01*
X94698000Y-108261500D01*
G75*
G02*
X94910500Y-108049000I212500J0D01*
G01*
X95335500Y-108049000D01*
G75*
G02*
X95548000Y-108261500I0J-212500D01*
G01*
X95548000Y-109061500D01*
G75*
G02*
X95335500Y-109274000I-212500J0D01*
G01*
G37*
G36*
G01*
X95335500Y-110899000D02*
X94910500Y-110899000D01*
G75*
G02*
X94698000Y-110686500I0J212500D01*
G01*
X94698000Y-109886500D01*
G75*
G02*
X94910500Y-109674000I212500J0D01*
G01*
X95335500Y-109674000D01*
G75*
G02*
X95548000Y-109886500I0J-212500D01*
G01*
X95548000Y-110686500D01*
G75*
G02*
X95335500Y-110899000I-212500J0D01*
G01*
G37*
%TD*%
%TO.C,RUN*%
G36*
G01*
X115020500Y-110899000D02*
X114595500Y-110899000D01*
G75*
G02*
X114383000Y-110686500I0J212500D01*
G01*
X114383000Y-109886500D01*
G75*
G02*
X114595500Y-109674000I212500J0D01*
G01*
X115020500Y-109674000D01*
G75*
G02*
X115233000Y-109886500I0J-212500D01*
G01*
X115233000Y-110686500D01*
G75*
G02*
X115020500Y-110899000I-212500J0D01*
G01*
G37*
G36*
G01*
X115020500Y-109274000D02*
X114595500Y-109274000D01*
G75*
G02*
X114383000Y-109061500I0J212500D01*
G01*
X114383000Y-108261500D01*
G75*
G02*
X114595500Y-108049000I212500J0D01*
G01*
X115020500Y-108049000D01*
G75*
G02*
X115233000Y-108261500I0J-212500D01*
G01*
X115233000Y-109061500D01*
G75*
G02*
X115020500Y-109274000I-212500J0D01*
G01*
G37*
%TD*%
D10*
%TO.C,JP1*%
G36*
X114058000Y-101562000D02*
G01*
X114058000Y-101062000D01*
X114058602Y-101062000D01*
X114058602Y-101037466D01*
X114063412Y-100988635D01*
X114072984Y-100940510D01*
X114087228Y-100893555D01*
X114106005Y-100848222D01*
X114129136Y-100804949D01*
X114156396Y-100764150D01*
X114187524Y-100726221D01*
X114222221Y-100691524D01*
X114260150Y-100660396D01*
X114300949Y-100633136D01*
X114344222Y-100610005D01*
X114389555Y-100591228D01*
X114436510Y-100576984D01*
X114484635Y-100567412D01*
X114533466Y-100562602D01*
X114558000Y-100562602D01*
X114558000Y-100562000D01*
X115058000Y-100562000D01*
X115058000Y-100562602D01*
X115082534Y-100562602D01*
X115131365Y-100567412D01*
X115179490Y-100576984D01*
X115226445Y-100591228D01*
X115271778Y-100610005D01*
X115315051Y-100633136D01*
X115355850Y-100660396D01*
X115393779Y-100691524D01*
X115428476Y-100726221D01*
X115459604Y-100764150D01*
X115486864Y-100804949D01*
X115509995Y-100848222D01*
X115528772Y-100893555D01*
X115543016Y-100940510D01*
X115552588Y-100988635D01*
X115557398Y-101037466D01*
X115557398Y-101062000D01*
X115558000Y-101062000D01*
X115558000Y-101562000D01*
X114058000Y-101562000D01*
G37*
G36*
X115557398Y-102362000D02*
G01*
X115557398Y-102386534D01*
X115552588Y-102435365D01*
X115543016Y-102483490D01*
X115528772Y-102530445D01*
X115509995Y-102575778D01*
X115486864Y-102619051D01*
X115459604Y-102659850D01*
X115428476Y-102697779D01*
X115393779Y-102732476D01*
X115355850Y-102763604D01*
X115315051Y-102790864D01*
X115271778Y-102813995D01*
X115226445Y-102832772D01*
X115179490Y-102847016D01*
X115131365Y-102856588D01*
X115082534Y-102861398D01*
X115058000Y-102861398D01*
X115058000Y-102862000D01*
X114558000Y-102862000D01*
X114558000Y-102861398D01*
X114533466Y-102861398D01*
X114484635Y-102856588D01*
X114436510Y-102847016D01*
X114389555Y-102832772D01*
X114344222Y-102813995D01*
X114300949Y-102790864D01*
X114260150Y-102763604D01*
X114222221Y-102732476D01*
X114187524Y-102697779D01*
X114156396Y-102659850D01*
X114129136Y-102619051D01*
X114106005Y-102575778D01*
X114087228Y-102530445D01*
X114072984Y-102483490D01*
X114063412Y-102435365D01*
X114058602Y-102386534D01*
X114058602Y-102362000D01*
X114058000Y-102362000D01*
X114058000Y-101862000D01*
X115558000Y-101862000D01*
X115558000Y-102362000D01*
X115557398Y-102362000D01*
G37*
%TD*%
%TO.C,R1*%
G36*
G01*
X110506500Y-104240500D02*
X110981500Y-104240500D01*
G75*
G02*
X111219000Y-104478000I0J-237500D01*
G01*
X111219000Y-104978000D01*
G75*
G02*
X110981500Y-105215500I-237500J0D01*
G01*
X110506500Y-105215500D01*
G75*
G02*
X110269000Y-104978000I0J237500D01*
G01*
X110269000Y-104478000D01*
G75*
G02*
X110506500Y-104240500I237500J0D01*
G01*
G37*
G36*
G01*
X110506500Y-106065500D02*
X110981500Y-106065500D01*
G75*
G02*
X111219000Y-106303000I0J-237500D01*
G01*
X111219000Y-106803000D01*
G75*
G02*
X110981500Y-107040500I-237500J0D01*
G01*
X110506500Y-107040500D01*
G75*
G02*
X110269000Y-106803000I0J237500D01*
G01*
X110269000Y-106303000D01*
G75*
G02*
X110506500Y-106065500I237500J0D01*
G01*
G37*
%TD*%
D21*
%TO.C,Y1*%
X114173000Y-88586000D03*
X114173000Y-93786000D03*
%TD*%
D22*
%TO.C,J4*%
X114681000Y-62738000D03*
D23*
X114681000Y-65278000D03*
X114681000Y-67818000D03*
X114681000Y-70358000D03*
X114681000Y-72898000D03*
X114681000Y-75438000D03*
X114681000Y-77978000D03*
X114681000Y-80518000D03*
%TD*%
M02*
