%TF.GenerationSoftware,KiCad,Pcbnew,(5.1.8)-1*%
%TF.CreationDate,2021-02-26T23:13:32+01:00*%
%TF.ProjectId,CH341Apro,43483334-3141-4707-926f-2e6b69636164,rev?*%
%TF.SameCoordinates,Original*%
%TF.FileFunction,Soldermask,Bot*%
%TF.FilePolarity,Negative*%
%FSLAX46Y46*%
G04 Gerber Fmt 4.6, Leading zero omitted, Abs format (unit mm)*
G04 Created by KiCad (PCBNEW (5.1.8)-1) date 2021-02-26 23:13:32*
%MOMM*%
%LPD*%
G01*
G04 APERTURE LIST*
%ADD10C,0.100000*%
%ADD11R,1.700000X1.700000*%
%ADD12O,1.700000X1.700000*%
%ADD13C,1.400000*%
%ADD14C,1.350000*%
%ADD15O,1.900000X3.500000*%
%ADD16C,1.100000*%
G04 APERTURE END LIST*
D10*
G36*
X111277400Y-45237400D02*
G01*
X112699800Y-45669200D01*
X113817400Y-46202600D01*
X115493800Y-47447200D01*
X116662200Y-48666400D01*
X117830600Y-50622200D01*
X118364000Y-51917600D01*
X118694200Y-53619400D01*
X118719600Y-56134000D01*
X118694200Y-113919000D01*
X110871000Y-113919000D01*
X111252000Y-113665000D01*
X111506000Y-113411000D01*
X111760000Y-112903000D01*
X116586000Y-112903000D01*
X116586000Y-54610000D01*
X116332000Y-53086000D01*
X115544600Y-51054000D01*
X114046000Y-49250600D01*
X112242600Y-47955200D01*
X110820200Y-47447200D01*
X109474000Y-47193200D01*
X100965000Y-47193200D01*
X99745800Y-47294800D01*
X98425000Y-47625000D01*
X96748600Y-48463200D01*
X95504000Y-49555400D01*
X94259400Y-51282600D01*
X93776800Y-52451000D01*
X93522800Y-53492400D01*
X93395800Y-54965600D01*
X93395800Y-112903000D01*
X97663000Y-112903000D01*
X97790000Y-113284000D01*
X97917000Y-113538000D01*
X98171000Y-113792000D01*
X98552000Y-113919000D01*
X91186000Y-113919000D01*
X91211400Y-54737000D01*
X91465400Y-52527200D01*
X92202000Y-50393600D01*
X93573600Y-48310800D01*
X95402400Y-46710600D01*
X96799400Y-45872400D01*
X98628200Y-45212000D01*
X100177600Y-44958000D01*
X103809800Y-44983400D01*
X109651800Y-44958000D01*
X111277400Y-45237400D01*
G37*
X111277400Y-45237400D02*
X112699800Y-45669200D01*
X113817400Y-46202600D01*
X115493800Y-47447200D01*
X116662200Y-48666400D01*
X117830600Y-50622200D01*
X118364000Y-51917600D01*
X118694200Y-53619400D01*
X118719600Y-56134000D01*
X118694200Y-113919000D01*
X110871000Y-113919000D01*
X111252000Y-113665000D01*
X111506000Y-113411000D01*
X111760000Y-112903000D01*
X116586000Y-112903000D01*
X116586000Y-54610000D01*
X116332000Y-53086000D01*
X115544600Y-51054000D01*
X114046000Y-49250600D01*
X112242600Y-47955200D01*
X110820200Y-47447200D01*
X109474000Y-47193200D01*
X100965000Y-47193200D01*
X99745800Y-47294800D01*
X98425000Y-47625000D01*
X96748600Y-48463200D01*
X95504000Y-49555400D01*
X94259400Y-51282600D01*
X93776800Y-52451000D01*
X93522800Y-53492400D01*
X93395800Y-54965600D01*
X93395800Y-112903000D01*
X97663000Y-112903000D01*
X97790000Y-113284000D01*
X97917000Y-113538000D01*
X98171000Y-113792000D01*
X98552000Y-113919000D01*
X91186000Y-113919000D01*
X91211400Y-54737000D01*
X91465400Y-52527200D01*
X92202000Y-50393600D01*
X93573600Y-48310800D01*
X95402400Y-46710600D01*
X96799400Y-45872400D01*
X98628200Y-45212000D01*
X100177600Y-44958000D01*
X103809800Y-44983400D01*
X109651800Y-44958000D01*
X111277400Y-45237400D01*
D11*
%TO.C,J5*%
X94996000Y-80518000D03*
D12*
X94996000Y-77978000D03*
X94996000Y-75438000D03*
%TD*%
D13*
%TO.C,J3*%
X108648500Y-77787500D03*
X101028500Y-77787500D03*
X108648500Y-75247500D03*
X101028500Y-75247500D03*
X108648500Y-72707500D03*
X101028500Y-72707500D03*
X108648500Y-70167500D03*
X101028500Y-70167500D03*
X108648500Y-67627500D03*
X101028500Y-67627500D03*
D14*
X108648500Y-65087500D03*
D13*
X101028500Y-65087500D03*
D14*
X108648500Y-62547500D03*
X101028500Y-62547500D03*
D13*
X108648500Y-60007500D03*
D14*
X101028500Y-60007500D03*
%TD*%
D11*
%TO.C,J4*%
X114681000Y-80518000D03*
D12*
X114681000Y-77978000D03*
X114681000Y-75438000D03*
X114681000Y-72898000D03*
X114681000Y-70358000D03*
X114681000Y-67818000D03*
X114681000Y-65278000D03*
X114681000Y-62738000D03*
X114681000Y-60198000D03*
%TD*%
D15*
%TO.C,J1*%
X110426500Y-111950500D03*
X99026500Y-111950500D03*
D16*
X107026500Y-111950500D03*
X102426500Y-111950500D03*
%TD*%
M02*
