%TF.GenerationSoftware,KiCad,Pcbnew,(5.1.8)-1*%
%TF.CreationDate,2021-03-15T19:10:07+01:00*%
%TF.ProjectId,CH341Apro,43483334-3141-4707-926f-2e6b69636164,rev?*%
%TF.SameCoordinates,Original*%
%TF.FileFunction,Legend,Top*%
%TF.FilePolarity,Positive*%
%FSLAX46Y46*%
G04 Gerber Fmt 4.6, Leading zero omitted, Abs format (unit mm)*
G04 Created by KiCad (PCBNEW (5.1.8)-1) date 2021-03-15 19:10:07*
%MOMM*%
%LPD*%
G01*
G04 APERTURE LIST*
%ADD10C,0.150000*%
%ADD11C,0.120000*%
G04 APERTURE END LIST*
D10*
X139127666Y-123885000D02*
X139127666Y-124285000D01*
X139127666Y-124085000D02*
X138427666Y-124085000D01*
X138527666Y-124151666D01*
X138594333Y-124218333D01*
X138627666Y-124285000D01*
X138494333Y-121485000D02*
X138461000Y-121451666D01*
X138427666Y-121385000D01*
X138427666Y-121218333D01*
X138461000Y-121151666D01*
X138494333Y-121118333D01*
X138561000Y-121085000D01*
X138627666Y-121085000D01*
X138727666Y-121118333D01*
X139127666Y-121518333D01*
X139127666Y-121085000D01*
X138427666Y-118718333D02*
X138427666Y-118285000D01*
X138694333Y-118518333D01*
X138694333Y-118418333D01*
X138727666Y-118351666D01*
X138761000Y-118318333D01*
X138827666Y-118285000D01*
X138994333Y-118285000D01*
X139061000Y-118318333D01*
X139094333Y-118351666D01*
X139127666Y-118418333D01*
X139127666Y-118618333D01*
X139094333Y-118685000D01*
X139061000Y-118718333D01*
X154288571Y-64920857D02*
X154336190Y-64873238D01*
X154479047Y-64825619D01*
X154574285Y-64825619D01*
X154717142Y-64873238D01*
X154812380Y-64968476D01*
X154860000Y-65063714D01*
X154907619Y-65254190D01*
X154907619Y-65397047D01*
X154860000Y-65587523D01*
X154812380Y-65682761D01*
X154717142Y-65778000D01*
X154574285Y-65825619D01*
X154479047Y-65825619D01*
X154336190Y-65778000D01*
X154288571Y-65730380D01*
X153860000Y-64825619D02*
X153860000Y-65825619D01*
X153860000Y-65349428D02*
X153288571Y-65349428D01*
X153288571Y-64825619D02*
X153288571Y-65825619D01*
X152907619Y-65825619D02*
X152288571Y-65825619D01*
X152621904Y-65444666D01*
X152479047Y-65444666D01*
X152383809Y-65397047D01*
X152336190Y-65349428D01*
X152288571Y-65254190D01*
X152288571Y-65016095D01*
X152336190Y-64920857D01*
X152383809Y-64873238D01*
X152479047Y-64825619D01*
X152764761Y-64825619D01*
X152860000Y-64873238D01*
X152907619Y-64920857D01*
X151431428Y-65492285D02*
X151431428Y-64825619D01*
X151669523Y-65873238D02*
X151907619Y-65158952D01*
X151288571Y-65158952D01*
X150383809Y-64825619D02*
X150955238Y-64825619D01*
X150669523Y-64825619D02*
X150669523Y-65825619D01*
X150764761Y-65682761D01*
X150860000Y-65587523D01*
X150955238Y-65539904D01*
X150002857Y-65111333D02*
X149526666Y-65111333D01*
X150098095Y-64825619D02*
X149764761Y-65825619D01*
X149431428Y-64825619D01*
X149098095Y-65206571D02*
X148336190Y-65206571D01*
X147860000Y-64825619D02*
X147860000Y-65825619D01*
X147479047Y-65825619D01*
X147383809Y-65778000D01*
X147336190Y-65730380D01*
X147288571Y-65635142D01*
X147288571Y-65492285D01*
X147336190Y-65397047D01*
X147383809Y-65349428D01*
X147479047Y-65301809D01*
X147860000Y-65301809D01*
X146860000Y-64825619D02*
X146860000Y-65492285D01*
X146860000Y-65301809D02*
X146812380Y-65397047D01*
X146764761Y-65444666D01*
X146669523Y-65492285D01*
X146574285Y-65492285D01*
X146098095Y-64825619D02*
X146193333Y-64873238D01*
X146240952Y-64920857D01*
X146288571Y-65016095D01*
X146288571Y-65301809D01*
X146240952Y-65397047D01*
X146193333Y-65444666D01*
X146098095Y-65492285D01*
X145955238Y-65492285D01*
X145860000Y-65444666D01*
X145812380Y-65397047D01*
X145764761Y-65301809D01*
X145764761Y-65016095D01*
X145812380Y-64920857D01*
X145860000Y-64873238D01*
X145955238Y-64825619D01*
X146098095Y-64825619D01*
X145383809Y-65730380D02*
X145336190Y-65778000D01*
X145240952Y-65825619D01*
X145002857Y-65825619D01*
X144907619Y-65778000D01*
X144860000Y-65730380D01*
X144812380Y-65635142D01*
X144812380Y-65539904D01*
X144860000Y-65397047D01*
X145431428Y-64825619D01*
X144812380Y-64825619D01*
X159668333Y-74249666D02*
X159701666Y-74149666D01*
X159701666Y-73983000D01*
X159668333Y-73916333D01*
X159635000Y-73883000D01*
X159568333Y-73849666D01*
X159501666Y-73849666D01*
X159435000Y-73883000D01*
X159401666Y-73916333D01*
X159368333Y-73983000D01*
X159335000Y-74116333D01*
X159301666Y-74183000D01*
X159268333Y-74216333D01*
X159201666Y-74249666D01*
X159135000Y-74249666D01*
X159068333Y-74216333D01*
X159035000Y-74183000D01*
X159001666Y-74116333D01*
X159001666Y-73949666D01*
X159035000Y-73849666D01*
X159701666Y-73549666D02*
X159001666Y-73549666D01*
X159001666Y-73283000D01*
X159035000Y-73216333D01*
X159068333Y-73183000D01*
X159135000Y-73149666D01*
X159235000Y-73149666D01*
X159301666Y-73183000D01*
X159335000Y-73216333D01*
X159368333Y-73283000D01*
X159368333Y-73549666D01*
X159701666Y-72849666D02*
X159001666Y-72849666D01*
X159701666Y-71422333D02*
X159001666Y-71422333D01*
X159068333Y-71122333D02*
X159035000Y-71089000D01*
X159001666Y-71022333D01*
X159001666Y-70855666D01*
X159035000Y-70789000D01*
X159068333Y-70755666D01*
X159135000Y-70722333D01*
X159201666Y-70722333D01*
X159301666Y-70755666D01*
X159701666Y-71155666D01*
X159701666Y-70722333D01*
X159635000Y-70022333D02*
X159668333Y-70055666D01*
X159701666Y-70155666D01*
X159701666Y-70222333D01*
X159668333Y-70322333D01*
X159601666Y-70389000D01*
X159535000Y-70422333D01*
X159401666Y-70455666D01*
X159301666Y-70455666D01*
X159168333Y-70422333D01*
X159101666Y-70389000D01*
X159035000Y-70322333D01*
X159001666Y-70222333D01*
X159001666Y-70155666D01*
X159035000Y-70055666D01*
X159068333Y-70022333D01*
D11*
X158496000Y-70739000D02*
X158496000Y-70358000D01*
X160020000Y-69723000D02*
X160274000Y-69723000D01*
X158750000Y-72263000D02*
X160020000Y-72263000D01*
X160274000Y-71628000D02*
X160274000Y-72009000D01*
X160274000Y-71374000D02*
X160020000Y-71374000D01*
X160020000Y-70993000D02*
X160274000Y-70993000D01*
X158496000Y-70993000D02*
X158750000Y-70993000D01*
X158496000Y-71628000D02*
X158750000Y-71628000D01*
X160020000Y-71628000D02*
X160274000Y-71628000D01*
X158750000Y-72009000D02*
X158496000Y-72009000D01*
X158496000Y-71374000D02*
X158496000Y-70993000D01*
X158496000Y-70104000D02*
X158496000Y-69723000D01*
X160020000Y-70358000D02*
X160274000Y-70358000D01*
X160274000Y-70993000D02*
X160274000Y-71374000D01*
X158496000Y-69723000D02*
X158750000Y-69723000D01*
X160020000Y-69469000D02*
X158750000Y-69469000D01*
X158750000Y-70104000D02*
X158496000Y-70104000D01*
X160274000Y-72009000D02*
X160020000Y-72009000D01*
X159004000Y-72263000D02*
G75*
G02*
X159766000Y-72263000I381000J0D01*
G01*
X160274000Y-70104000D02*
X160020000Y-70104000D01*
X160274000Y-70358000D02*
X160274000Y-70739000D01*
X160274000Y-69723000D02*
X160274000Y-70104000D01*
X158496000Y-70358000D02*
X158750000Y-70358000D01*
X158750000Y-70739000D02*
X158496000Y-70739000D01*
X160020000Y-72263000D02*
X160020000Y-69469000D01*
X158750000Y-71374000D02*
X158496000Y-71374000D01*
X160274000Y-70739000D02*
X160020000Y-70739000D01*
X158496000Y-72009000D02*
X158496000Y-71628000D01*
X158750000Y-69469000D02*
X158750000Y-72263000D01*
X159004000Y-75057000D02*
G75*
G02*
X159766000Y-75057000I381000J0D01*
G01*
X160274000Y-73787000D02*
X160274000Y-74168000D01*
X160274000Y-73533000D02*
X160020000Y-73533000D01*
X160274000Y-72898000D02*
X160020000Y-72898000D01*
X160020000Y-72517000D02*
X160274000Y-72517000D01*
X160274000Y-73152000D02*
X160274000Y-73533000D01*
X160274000Y-74422000D02*
X160274000Y-74803000D01*
X160274000Y-74803000D02*
X160020000Y-74803000D01*
X160020000Y-74422000D02*
X160274000Y-74422000D01*
X160274000Y-74168000D02*
X160020000Y-74168000D01*
X160020000Y-73787000D02*
X160274000Y-73787000D01*
X160020000Y-73152000D02*
X160274000Y-73152000D01*
X160274000Y-72517000D02*
X160274000Y-72898000D01*
X160020000Y-72263000D02*
X158750000Y-72263000D01*
X160020000Y-75057000D02*
X160020000Y-72263000D01*
X158750000Y-75057000D02*
X160020000Y-75057000D01*
X158750000Y-72263000D02*
X158750000Y-75057000D01*
X158496000Y-72517000D02*
X158750000Y-72517000D01*
X158750000Y-72898000D02*
X158496000Y-72898000D01*
X158496000Y-72898000D02*
X158496000Y-72517000D01*
X158496000Y-73152000D02*
X158750000Y-73152000D01*
X158750000Y-73533000D02*
X158496000Y-73533000D01*
X158496000Y-73533000D02*
X158496000Y-73152000D01*
X158496000Y-73787000D02*
X158750000Y-73787000D01*
X158750000Y-74168000D02*
X158496000Y-74168000D01*
X158496000Y-74168000D02*
X158496000Y-73787000D01*
X158496000Y-74422000D02*
X158750000Y-74422000D01*
X158496000Y-74803000D02*
X158496000Y-74422000D01*
X158750000Y-74803000D02*
X158496000Y-74803000D01*
D10*
X138459904Y-100661714D02*
X138459904Y-100042666D01*
X138764666Y-100376000D01*
X138764666Y-100233142D01*
X138802761Y-100137904D01*
X138840857Y-100090285D01*
X138917047Y-100042666D01*
X139107523Y-100042666D01*
X139183714Y-100090285D01*
X139221809Y-100137904D01*
X139259904Y-100233142D01*
X139259904Y-100518857D01*
X139221809Y-100614095D01*
X139183714Y-100661714D01*
X138459904Y-99756952D02*
X139259904Y-99423619D01*
X138459904Y-99090285D01*
X138459904Y-98852190D02*
X138459904Y-98233142D01*
X138764666Y-98566476D01*
X138764666Y-98423619D01*
X138802761Y-98328380D01*
X138840857Y-98280761D01*
X138917047Y-98233142D01*
X139107523Y-98233142D01*
X139183714Y-98280761D01*
X139221809Y-98328380D01*
X139259904Y-98423619D01*
X139259904Y-98709333D01*
X139221809Y-98804571D01*
X139183714Y-98852190D01*
X139259904Y-97042666D02*
X138459904Y-97042666D01*
X139031333Y-96709333D01*
X138459904Y-96376000D01*
X139259904Y-96376000D01*
X139259904Y-95756952D02*
X139221809Y-95852190D01*
X139183714Y-95899809D01*
X139107523Y-95947428D01*
X138878952Y-95947428D01*
X138802761Y-95899809D01*
X138764666Y-95852190D01*
X138726571Y-95756952D01*
X138726571Y-95614095D01*
X138764666Y-95518857D01*
X138802761Y-95471238D01*
X138878952Y-95423619D01*
X139107523Y-95423619D01*
X139183714Y-95471238D01*
X139221809Y-95518857D01*
X139259904Y-95614095D01*
X139259904Y-95756952D01*
X139259904Y-94566476D02*
X138459904Y-94566476D01*
X139221809Y-94566476D02*
X139259904Y-94661714D01*
X139259904Y-94852190D01*
X139221809Y-94947428D01*
X139183714Y-94995047D01*
X139107523Y-95042666D01*
X138878952Y-95042666D01*
X138802761Y-94995047D01*
X138764666Y-94947428D01*
X138726571Y-94852190D01*
X138726571Y-94661714D01*
X138764666Y-94566476D01*
X139221809Y-93709333D02*
X139259904Y-93804571D01*
X139259904Y-93995047D01*
X139221809Y-94090285D01*
X139145619Y-94137904D01*
X138840857Y-94137904D01*
X138764666Y-94090285D01*
X138726571Y-93995047D01*
X138726571Y-93804571D01*
X138764666Y-93709333D01*
X138840857Y-93661714D01*
X138917047Y-93661714D01*
X138993238Y-94137904D01*
X138955142Y-92471238D02*
X138955142Y-91709333D01*
X138459904Y-90185523D02*
X139031333Y-90185523D01*
X139145619Y-90233142D01*
X139221809Y-90328380D01*
X139259904Y-90471238D01*
X139259904Y-90566476D01*
X139259904Y-89709333D02*
X138459904Y-89709333D01*
X138459904Y-89328380D01*
X138498000Y-89233142D01*
X138536095Y-89185523D01*
X138612285Y-89137904D01*
X138726571Y-89137904D01*
X138802761Y-89185523D01*
X138840857Y-89233142D01*
X138878952Y-89328380D01*
X138878952Y-89709333D01*
X139259904Y-88185523D02*
X139259904Y-88756952D01*
X139259904Y-88471238D02*
X138459904Y-88471238D01*
X138574190Y-88566476D01*
X138650380Y-88661714D01*
X138688476Y-88756952D01*
X139183714Y-86423619D02*
X139221809Y-86471238D01*
X139259904Y-86614095D01*
X139259904Y-86709333D01*
X139221809Y-86852190D01*
X139145619Y-86947428D01*
X139069428Y-86995047D01*
X138917047Y-87042666D01*
X138802761Y-87042666D01*
X138650380Y-86995047D01*
X138574190Y-86947428D01*
X138498000Y-86852190D01*
X138459904Y-86709333D01*
X138459904Y-86614095D01*
X138498000Y-86471238D01*
X138536095Y-86423619D01*
X139259904Y-85852190D02*
X139221809Y-85947428D01*
X139145619Y-85995047D01*
X138459904Y-85995047D01*
X139259904Y-85328380D02*
X139221809Y-85423619D01*
X139183714Y-85471238D01*
X139107523Y-85518857D01*
X138878952Y-85518857D01*
X138802761Y-85471238D01*
X138764666Y-85423619D01*
X138726571Y-85328380D01*
X138726571Y-85185523D01*
X138764666Y-85090285D01*
X138802761Y-85042666D01*
X138878952Y-84995047D01*
X139107523Y-84995047D01*
X139183714Y-85042666D01*
X139221809Y-85090285D01*
X139259904Y-85185523D01*
X139259904Y-85328380D01*
X139221809Y-84614095D02*
X139259904Y-84518857D01*
X139259904Y-84328380D01*
X139221809Y-84233142D01*
X139145619Y-84185523D01*
X139107523Y-84185523D01*
X139031333Y-84233142D01*
X138993238Y-84328380D01*
X138993238Y-84471238D01*
X138955142Y-84566476D01*
X138878952Y-84614095D01*
X138840857Y-84614095D01*
X138764666Y-84566476D01*
X138726571Y-84471238D01*
X138726571Y-84328380D01*
X138764666Y-84233142D01*
X139221809Y-83376000D02*
X139259904Y-83471238D01*
X139259904Y-83661714D01*
X139221809Y-83756952D01*
X139145619Y-83804571D01*
X138840857Y-83804571D01*
X138764666Y-83756952D01*
X138726571Y-83661714D01*
X138726571Y-83471238D01*
X138764666Y-83376000D01*
X138840857Y-83328380D01*
X138917047Y-83328380D01*
X138993238Y-83804571D01*
X138421809Y-81423619D02*
X139450380Y-82280761D01*
X138459904Y-80042666D02*
X139031333Y-80042666D01*
X139145619Y-80090285D01*
X139221809Y-80185523D01*
X139259904Y-80328380D01*
X139259904Y-80423619D01*
X139259904Y-79566476D02*
X138459904Y-79566476D01*
X138459904Y-79185523D01*
X138498000Y-79090285D01*
X138536095Y-79042666D01*
X138612285Y-78995047D01*
X138726571Y-78995047D01*
X138802761Y-79042666D01*
X138840857Y-79090285D01*
X138878952Y-79185523D01*
X138878952Y-79566476D01*
X138536095Y-78614095D02*
X138498000Y-78566476D01*
X138459904Y-78471238D01*
X138459904Y-78233142D01*
X138498000Y-78137904D01*
X138536095Y-78090285D01*
X138612285Y-78042666D01*
X138688476Y-78042666D01*
X138802761Y-78090285D01*
X139259904Y-78661714D01*
X139259904Y-78042666D01*
X138536095Y-76899809D02*
X138498000Y-76852190D01*
X138459904Y-76756952D01*
X138459904Y-76518857D01*
X138498000Y-76423619D01*
X138536095Y-76376000D01*
X138612285Y-76328380D01*
X138688476Y-76328380D01*
X138802761Y-76376000D01*
X139259904Y-76947428D01*
X139259904Y-76328380D01*
X138955142Y-75899809D02*
X138955142Y-75137904D01*
X138459904Y-74756952D02*
X138459904Y-74137904D01*
X138764666Y-74471238D01*
X138764666Y-74328380D01*
X138802761Y-74233142D01*
X138840857Y-74185523D01*
X138917047Y-74137904D01*
X139107523Y-74137904D01*
X139183714Y-74185523D01*
X139221809Y-74233142D01*
X139259904Y-74328380D01*
X139259904Y-74614095D01*
X139221809Y-74709333D01*
X139183714Y-74756952D01*
X139809904Y-99804571D02*
X139809904Y-100280761D01*
X140190857Y-100328380D01*
X140152761Y-100280761D01*
X140114666Y-100185523D01*
X140114666Y-99947428D01*
X140152761Y-99852190D01*
X140190857Y-99804571D01*
X140267047Y-99756952D01*
X140457523Y-99756952D01*
X140533714Y-99804571D01*
X140571809Y-99852190D01*
X140609904Y-99947428D01*
X140609904Y-100185523D01*
X140571809Y-100280761D01*
X140533714Y-100328380D01*
X139809904Y-99471238D02*
X140609904Y-99137904D01*
X139809904Y-98804571D01*
X140609904Y-97709333D02*
X139809904Y-97709333D01*
X140381333Y-97376000D01*
X139809904Y-97042666D01*
X140609904Y-97042666D01*
X140609904Y-96423619D02*
X140571809Y-96518857D01*
X140533714Y-96566476D01*
X140457523Y-96614095D01*
X140228952Y-96614095D01*
X140152761Y-96566476D01*
X140114666Y-96518857D01*
X140076571Y-96423619D01*
X140076571Y-96280761D01*
X140114666Y-96185523D01*
X140152761Y-96137904D01*
X140228952Y-96090285D01*
X140457523Y-96090285D01*
X140533714Y-96137904D01*
X140571809Y-96185523D01*
X140609904Y-96280761D01*
X140609904Y-96423619D01*
X140609904Y-95233142D02*
X139809904Y-95233142D01*
X140571809Y-95233142D02*
X140609904Y-95328380D01*
X140609904Y-95518857D01*
X140571809Y-95614095D01*
X140533714Y-95661714D01*
X140457523Y-95709333D01*
X140228952Y-95709333D01*
X140152761Y-95661714D01*
X140114666Y-95614095D01*
X140076571Y-95518857D01*
X140076571Y-95328380D01*
X140114666Y-95233142D01*
X140571809Y-94376000D02*
X140609904Y-94471238D01*
X140609904Y-94661714D01*
X140571809Y-94756952D01*
X140495619Y-94804571D01*
X140190857Y-94804571D01*
X140114666Y-94756952D01*
X140076571Y-94661714D01*
X140076571Y-94471238D01*
X140114666Y-94376000D01*
X140190857Y-94328380D01*
X140267047Y-94328380D01*
X140343238Y-94804571D01*
X140305142Y-92376000D02*
X140305142Y-91614095D01*
X139809904Y-90090285D02*
X140381333Y-90090285D01*
X140495619Y-90137904D01*
X140571809Y-90233142D01*
X140609904Y-90376000D01*
X140609904Y-90471238D01*
X140609904Y-89614095D02*
X139809904Y-89614095D01*
X139809904Y-89233142D01*
X139848000Y-89137904D01*
X139886095Y-89090285D01*
X139962285Y-89042666D01*
X140076571Y-89042666D01*
X140152761Y-89090285D01*
X140190857Y-89137904D01*
X140228952Y-89233142D01*
X140228952Y-89614095D01*
X140609904Y-88090285D02*
X140609904Y-88661714D01*
X140609904Y-88376000D02*
X139809904Y-88376000D01*
X139924190Y-88471238D01*
X140000380Y-88566476D01*
X140038476Y-88661714D01*
X139809904Y-86709333D02*
X139809904Y-86518857D01*
X139848000Y-86423619D01*
X139924190Y-86328380D01*
X140076571Y-86280761D01*
X140343238Y-86280761D01*
X140495619Y-86328380D01*
X140571809Y-86423619D01*
X140609904Y-86518857D01*
X140609904Y-86709333D01*
X140571809Y-86804571D01*
X140495619Y-86899809D01*
X140343238Y-86947428D01*
X140076571Y-86947428D01*
X139924190Y-86899809D01*
X139848000Y-86804571D01*
X139809904Y-86709333D01*
X140076571Y-85852190D02*
X140876571Y-85852190D01*
X140114666Y-85852190D02*
X140076571Y-85756952D01*
X140076571Y-85566476D01*
X140114666Y-85471238D01*
X140152761Y-85423619D01*
X140228952Y-85376000D01*
X140457523Y-85376000D01*
X140533714Y-85423619D01*
X140571809Y-85471238D01*
X140609904Y-85566476D01*
X140609904Y-85756952D01*
X140571809Y-85852190D01*
X140571809Y-84566476D02*
X140609904Y-84661714D01*
X140609904Y-84852190D01*
X140571809Y-84947428D01*
X140495619Y-84995047D01*
X140190857Y-84995047D01*
X140114666Y-84947428D01*
X140076571Y-84852190D01*
X140076571Y-84661714D01*
X140114666Y-84566476D01*
X140190857Y-84518857D01*
X140267047Y-84518857D01*
X140343238Y-84995047D01*
X140076571Y-84090285D02*
X140609904Y-84090285D01*
X140152761Y-84090285D02*
X140114666Y-84042666D01*
X140076571Y-83947428D01*
X140076571Y-83804571D01*
X140114666Y-83709333D01*
X140190857Y-83661714D01*
X140609904Y-83661714D01*
X139771809Y-81709333D02*
X140800380Y-82566476D01*
X139809904Y-80328380D02*
X140381333Y-80328380D01*
X140495619Y-80376000D01*
X140571809Y-80471238D01*
X140609904Y-80614095D01*
X140609904Y-80709333D01*
X140609904Y-79852190D02*
X139809904Y-79852190D01*
X139809904Y-79471238D01*
X139848000Y-79376000D01*
X139886095Y-79328380D01*
X139962285Y-79280761D01*
X140076571Y-79280761D01*
X140152761Y-79328380D01*
X140190857Y-79376000D01*
X140228952Y-79471238D01*
X140228952Y-79852190D01*
X139886095Y-78899809D02*
X139848000Y-78852190D01*
X139809904Y-78756952D01*
X139809904Y-78518857D01*
X139848000Y-78423619D01*
X139886095Y-78376000D01*
X139962285Y-78328380D01*
X140038476Y-78328380D01*
X140152761Y-78376000D01*
X140609904Y-78947428D01*
X140609904Y-78328380D01*
X140609904Y-76614095D02*
X140609904Y-77185523D01*
X140609904Y-76899809D02*
X139809904Y-76899809D01*
X139924190Y-76995047D01*
X140000380Y-77090285D01*
X140038476Y-77185523D01*
X140305142Y-76185523D02*
X140305142Y-75423619D01*
X139886095Y-74995047D02*
X139848000Y-74947428D01*
X139809904Y-74852190D01*
X139809904Y-74614095D01*
X139848000Y-74518857D01*
X139886095Y-74471238D01*
X139962285Y-74423619D01*
X140038476Y-74423619D01*
X140152761Y-74471238D01*
X140609904Y-75042666D01*
X140609904Y-74423619D01*
D11*
%TO.C,RUN*%
X159208000Y-127089000D02*
X159208000Y-129574000D01*
X159208000Y-129574000D02*
X160578000Y-129574000D01*
X160578000Y-129574000D02*
X160578000Y-127089000D01*
%TO.C,C1*%
X141546733Y-125728000D02*
X141889267Y-125728000D01*
X141546733Y-126748000D02*
X141889267Y-126748000D01*
%TO.C,J3*%
X140909500Y-78295500D02*
X140909500Y-75755500D01*
X144209500Y-66365500D02*
X144209500Y-68625500D01*
X141969500Y-66365500D02*
X141969500Y-68225500D01*
X157369500Y-66365500D02*
X141969500Y-66365500D01*
X157369500Y-101865500D02*
X157369500Y-66365500D01*
X141969500Y-101865500D02*
X157369500Y-101865500D01*
X141969500Y-73125500D02*
X141969500Y-101865500D01*
X143559500Y-70675500D02*
G75*
G03*
X143559500Y-70675500I-900000J0D01*
G01*
X145209500Y-70675500D02*
G75*
G03*
X145209500Y-70675500I-2550000J0D01*
G01*
%TO.C,RN1*%
X154098200Y-120769000D02*
X154098200Y-119769000D01*
X157458200Y-120769000D02*
X157458200Y-119769000D01*
%TO.C,U1*%
X149484000Y-122409000D02*
X149484000Y-121149000D01*
X149484000Y-115589000D02*
X149484000Y-116849000D01*
X145724000Y-122409000D02*
X149484000Y-122409000D01*
X143474000Y-115589000D02*
X149484000Y-115589000D01*
%TO.C,U2*%
X156697500Y-108204000D02*
X156697500Y-104344000D01*
X156697500Y-104344000D02*
X156452500Y-104344000D01*
X156697500Y-108204000D02*
X156697500Y-112064000D01*
X156697500Y-112064000D02*
X156452500Y-112064000D01*
X138577500Y-108204000D02*
X138577500Y-104344000D01*
X138577500Y-104344000D02*
X138822500Y-104344000D01*
X138577500Y-108204000D02*
X138577500Y-112064000D01*
X138577500Y-112064000D02*
X138822500Y-112064000D01*
X138822500Y-112064000D02*
X138822500Y-113879000D01*
%TO.C,J1*%
X153957500Y-127848500D02*
X145157500Y-127848500D01*
X155702500Y-131018500D02*
X155702500Y-132068500D01*
X143412500Y-131018500D02*
X143412500Y-132068500D01*
X153957500Y-127848500D02*
X153957500Y-127093500D01*
%TO.C,C2*%
X141433733Y-115822000D02*
X141776267Y-115822000D01*
X141433733Y-116842000D02*
X141776267Y-116842000D01*
%TO.C,C3*%
X141447733Y-115394200D02*
X141790267Y-115394200D01*
X141447733Y-114374200D02*
X141790267Y-114374200D01*
%TO.C,C5*%
X158494000Y-102293267D02*
X158494000Y-101950733D01*
X159514000Y-102293267D02*
X159514000Y-101950733D01*
%TO.C,C6*%
X158494000Y-114114733D02*
X158494000Y-114457267D01*
X159514000Y-114114733D02*
X159514000Y-114457267D01*
%TO.C,PWR*%
X158673000Y-129574000D02*
X158673000Y-127089000D01*
X157303000Y-129574000D02*
X158673000Y-129574000D01*
X157303000Y-127089000D02*
X157303000Y-129574000D01*
%TO.C,R1*%
X154202224Y-124347500D02*
X153692776Y-124347500D01*
X154202224Y-123302500D02*
X153692776Y-123302500D01*
%TO.C,Y1*%
X160804000Y-110904000D02*
X160804000Y-103654000D01*
X160804000Y-103654000D02*
X157204000Y-103654000D01*
X157204000Y-103654000D02*
X157204000Y-110904000D01*
%TO.C,J4*%
X158182000Y-98866000D02*
X160842000Y-98866000D01*
X158182000Y-81026000D02*
X158182000Y-98866000D01*
X160842000Y-81026000D02*
X160842000Y-98866000D01*
X158182000Y-81026000D02*
X160842000Y-81026000D01*
X158182000Y-79756000D02*
X158182000Y-78426000D01*
X158182000Y-78426000D02*
X159512000Y-78426000D01*
%TO.C,JP1*%
X158182000Y-117923000D02*
X159512000Y-117923000D01*
X158182000Y-119253000D02*
X158182000Y-117923000D01*
X158182000Y-120523000D02*
X160842000Y-120523000D01*
X160842000Y-120523000D02*
X160842000Y-123123000D01*
X158182000Y-120523000D02*
X158182000Y-123123000D01*
X158182000Y-123123000D02*
X160842000Y-123123000D01*
%TO.C,JP2*%
X142173000Y-125155000D02*
X140843000Y-125155000D01*
X142173000Y-123825000D02*
X142173000Y-125155000D01*
X142173000Y-122555000D02*
X139513000Y-122555000D01*
X139513000Y-122555000D02*
X139513000Y-117415000D01*
X142173000Y-122555000D02*
X142173000Y-117415000D01*
X142173000Y-117415000D02*
X139513000Y-117415000D01*
%TD*%
%TO.C,RUN*%
D10*
X160345380Y-125452095D02*
X159869190Y-125785428D01*
X160345380Y-126023523D02*
X159345380Y-126023523D01*
X159345380Y-125642571D01*
X159393000Y-125547333D01*
X159440619Y-125499714D01*
X159535857Y-125452095D01*
X159678714Y-125452095D01*
X159773952Y-125499714D01*
X159821571Y-125547333D01*
X159869190Y-125642571D01*
X159869190Y-126023523D01*
X159345380Y-125023523D02*
X160154904Y-125023523D01*
X160250142Y-124975904D01*
X160297761Y-124928285D01*
X160345380Y-124833047D01*
X160345380Y-124642571D01*
X160297761Y-124547333D01*
X160250142Y-124499714D01*
X160154904Y-124452095D01*
X159345380Y-124452095D01*
X160345380Y-123975904D02*
X159345380Y-123975904D01*
X160345380Y-123404476D01*
X159345380Y-123404476D01*
%TO.C,C1*%
X139025333Y-126595142D02*
X138977714Y-126642761D01*
X138834857Y-126690380D01*
X138739619Y-126690380D01*
X138596761Y-126642761D01*
X138501523Y-126547523D01*
X138453904Y-126452285D01*
X138406285Y-126261809D01*
X138406285Y-126118952D01*
X138453904Y-125928476D01*
X138501523Y-125833238D01*
X138596761Y-125738000D01*
X138739619Y-125690380D01*
X138834857Y-125690380D01*
X138977714Y-125738000D01*
X139025333Y-125785619D01*
X139977714Y-126690380D02*
X139406285Y-126690380D01*
X139692000Y-126690380D02*
X139692000Y-125690380D01*
X139596761Y-125833238D01*
X139501523Y-125928476D01*
X139406285Y-125976095D01*
%TO.C,RN1*%
X153690580Y-120959476D02*
X153214390Y-121292809D01*
X153690580Y-121530904D02*
X152690580Y-121530904D01*
X152690580Y-121149952D01*
X152738200Y-121054714D01*
X152785819Y-121007095D01*
X152881057Y-120959476D01*
X153023914Y-120959476D01*
X153119152Y-121007095D01*
X153166771Y-121054714D01*
X153214390Y-121149952D01*
X153214390Y-121530904D01*
X153690580Y-120530904D02*
X152690580Y-120530904D01*
X153690580Y-119959476D01*
X152690580Y-119959476D01*
X153690580Y-118959476D02*
X153690580Y-119530904D01*
X153690580Y-119245190D02*
X152690580Y-119245190D01*
X152833438Y-119340428D01*
X152928676Y-119435666D01*
X152976295Y-119530904D01*
%TO.C,U1*%
X150328380Y-122935904D02*
X151137904Y-122935904D01*
X151233142Y-122888285D01*
X151280761Y-122840666D01*
X151328380Y-122745428D01*
X151328380Y-122554952D01*
X151280761Y-122459714D01*
X151233142Y-122412095D01*
X151137904Y-122364476D01*
X150328380Y-122364476D01*
X151328380Y-121364476D02*
X151328380Y-121935904D01*
X151328380Y-121650190D02*
X150328380Y-121650190D01*
X150471238Y-121745428D01*
X150566476Y-121840666D01*
X150614095Y-121935904D01*
%TO.C,J1*%
X154987666Y-125309380D02*
X154987666Y-126023666D01*
X154940047Y-126166523D01*
X154844809Y-126261761D01*
X154701952Y-126309380D01*
X154606714Y-126309380D01*
X155987666Y-126309380D02*
X155416238Y-126309380D01*
X155701952Y-126309380D02*
X155701952Y-125309380D01*
X155606714Y-125452238D01*
X155511476Y-125547476D01*
X155416238Y-125595095D01*
%TO.C,C2*%
X138898333Y-116689142D02*
X138850714Y-116736761D01*
X138707857Y-116784380D01*
X138612619Y-116784380D01*
X138469761Y-116736761D01*
X138374523Y-116641523D01*
X138326904Y-116546285D01*
X138279285Y-116355809D01*
X138279285Y-116212952D01*
X138326904Y-116022476D01*
X138374523Y-115927238D01*
X138469761Y-115832000D01*
X138612619Y-115784380D01*
X138707857Y-115784380D01*
X138850714Y-115832000D01*
X138898333Y-115879619D01*
X139279285Y-115879619D02*
X139326904Y-115832000D01*
X139422142Y-115784380D01*
X139660238Y-115784380D01*
X139755476Y-115832000D01*
X139803095Y-115879619D01*
X139850714Y-115974857D01*
X139850714Y-116070095D01*
X139803095Y-116212952D01*
X139231666Y-116784380D01*
X139850714Y-116784380D01*
%TO.C,C3*%
X138898333Y-115241342D02*
X138850714Y-115288961D01*
X138707857Y-115336580D01*
X138612619Y-115336580D01*
X138469761Y-115288961D01*
X138374523Y-115193723D01*
X138326904Y-115098485D01*
X138279285Y-114908009D01*
X138279285Y-114765152D01*
X138326904Y-114574676D01*
X138374523Y-114479438D01*
X138469761Y-114384200D01*
X138612619Y-114336580D01*
X138707857Y-114336580D01*
X138850714Y-114384200D01*
X138898333Y-114431819D01*
X139231666Y-114336580D02*
X139850714Y-114336580D01*
X139517380Y-114717533D01*
X139660238Y-114717533D01*
X139755476Y-114765152D01*
X139803095Y-114812771D01*
X139850714Y-114908009D01*
X139850714Y-115146104D01*
X139803095Y-115241342D01*
X139755476Y-115288961D01*
X139660238Y-115336580D01*
X139374523Y-115336580D01*
X139279285Y-115288961D01*
X139231666Y-115241342D01*
%TO.C,C5*%
X160758142Y-102288666D02*
X160805761Y-102336285D01*
X160853380Y-102479142D01*
X160853380Y-102574380D01*
X160805761Y-102717238D01*
X160710523Y-102812476D01*
X160615285Y-102860095D01*
X160424809Y-102907714D01*
X160281952Y-102907714D01*
X160091476Y-102860095D01*
X159996238Y-102812476D01*
X159901000Y-102717238D01*
X159853380Y-102574380D01*
X159853380Y-102479142D01*
X159901000Y-102336285D01*
X159948619Y-102288666D01*
X159853380Y-101383904D02*
X159853380Y-101860095D01*
X160329571Y-101907714D01*
X160281952Y-101860095D01*
X160234333Y-101764857D01*
X160234333Y-101526761D01*
X160281952Y-101431523D01*
X160329571Y-101383904D01*
X160424809Y-101336285D01*
X160662904Y-101336285D01*
X160758142Y-101383904D01*
X160805761Y-101431523D01*
X160853380Y-101526761D01*
X160853380Y-101764857D01*
X160805761Y-101860095D01*
X160758142Y-101907714D01*
%TO.C,C6*%
X160791142Y-114452666D02*
X160838761Y-114500285D01*
X160886380Y-114643142D01*
X160886380Y-114738380D01*
X160838761Y-114881238D01*
X160743523Y-114976476D01*
X160648285Y-115024095D01*
X160457809Y-115071714D01*
X160314952Y-115071714D01*
X160124476Y-115024095D01*
X160029238Y-114976476D01*
X159934000Y-114881238D01*
X159886380Y-114738380D01*
X159886380Y-114643142D01*
X159934000Y-114500285D01*
X159981619Y-114452666D01*
X159886380Y-113595523D02*
X159886380Y-113786000D01*
X159934000Y-113881238D01*
X159981619Y-113928857D01*
X160124476Y-114024095D01*
X160314952Y-114071714D01*
X160695904Y-114071714D01*
X160791142Y-114024095D01*
X160838761Y-113976476D01*
X160886380Y-113881238D01*
X160886380Y-113690761D01*
X160838761Y-113595523D01*
X160791142Y-113547904D01*
X160695904Y-113500285D01*
X160457809Y-113500285D01*
X160362571Y-113547904D01*
X160314952Y-113595523D01*
X160267333Y-113690761D01*
X160267333Y-113881238D01*
X160314952Y-113976476D01*
X160362571Y-114024095D01*
X160457809Y-114071714D01*
%TO.C,PWR*%
X158440380Y-126047333D02*
X157440380Y-126047333D01*
X157440380Y-125666380D01*
X157488000Y-125571142D01*
X157535619Y-125523523D01*
X157630857Y-125475904D01*
X157773714Y-125475904D01*
X157868952Y-125523523D01*
X157916571Y-125571142D01*
X157964190Y-125666380D01*
X157964190Y-126047333D01*
X157440380Y-125142571D02*
X158440380Y-124904476D01*
X157726095Y-124714000D01*
X158440380Y-124523523D01*
X157440380Y-124285428D01*
X158440380Y-123333047D02*
X157964190Y-123666380D01*
X158440380Y-123904476D02*
X157440380Y-123904476D01*
X157440380Y-123523523D01*
X157488000Y-123428285D01*
X157535619Y-123380666D01*
X157630857Y-123333047D01*
X157773714Y-123333047D01*
X157868952Y-123380666D01*
X157916571Y-123428285D01*
X157964190Y-123523523D01*
X157964190Y-123904476D01*
%TO.C,R1*%
X153757333Y-123007380D02*
X153424000Y-122531190D01*
X153185904Y-123007380D02*
X153185904Y-122007380D01*
X153566857Y-122007380D01*
X153662095Y-122055000D01*
X153709714Y-122102619D01*
X153757333Y-122197857D01*
X153757333Y-122340714D01*
X153709714Y-122435952D01*
X153662095Y-122483571D01*
X153566857Y-122531190D01*
X153185904Y-122531190D01*
X154709714Y-123007380D02*
X154138285Y-123007380D01*
X154424000Y-123007380D02*
X154424000Y-122007380D01*
X154328761Y-122150238D01*
X154233523Y-122245476D01*
X154138285Y-122293095D01*
%TO.C,Y1*%
X160123190Y-108553190D02*
X160599380Y-108553190D01*
X159599380Y-108886523D02*
X160123190Y-108553190D01*
X159599380Y-108219857D01*
X160599380Y-107362714D02*
X160599380Y-107934142D01*
X160599380Y-107648428D02*
X159599380Y-107648428D01*
X159742238Y-107743666D01*
X159837476Y-107838904D01*
X159885095Y-107934142D01*
%TO.C,J4*%
X158964380Y-77422333D02*
X159678666Y-77422333D01*
X159821523Y-77469952D01*
X159916761Y-77565190D01*
X159964380Y-77708047D01*
X159964380Y-77803285D01*
X159297714Y-76517571D02*
X159964380Y-76517571D01*
X158916761Y-76755666D02*
X159631047Y-76993761D01*
X159631047Y-76374714D01*
%TO.C,JP1*%
X156932380Y-117800333D02*
X157646666Y-117800333D01*
X157789523Y-117847952D01*
X157884761Y-117943190D01*
X157932380Y-118086047D01*
X157932380Y-118181285D01*
X157932380Y-117324142D02*
X156932380Y-117324142D01*
X156932380Y-116943190D01*
X156980000Y-116847952D01*
X157027619Y-116800333D01*
X157122857Y-116752714D01*
X157265714Y-116752714D01*
X157360952Y-116800333D01*
X157408571Y-116847952D01*
X157456190Y-116943190D01*
X157456190Y-117324142D01*
X157932380Y-115800333D02*
X157932380Y-116371761D01*
X157932380Y-116086047D02*
X156932380Y-116086047D01*
X157075238Y-116181285D01*
X157170476Y-116276523D01*
X157218095Y-116371761D01*
%TO.C,JP2*%
X142708380Y-124658333D02*
X143422666Y-124658333D01*
X143565523Y-124705952D01*
X143660761Y-124801190D01*
X143708380Y-124944047D01*
X143708380Y-125039285D01*
X143708380Y-124182142D02*
X142708380Y-124182142D01*
X142708380Y-123801190D01*
X142756000Y-123705952D01*
X142803619Y-123658333D01*
X142898857Y-123610714D01*
X143041714Y-123610714D01*
X143136952Y-123658333D01*
X143184571Y-123705952D01*
X143232190Y-123801190D01*
X143232190Y-124182142D01*
X142803619Y-123229761D02*
X142756000Y-123182142D01*
X142708380Y-123086904D01*
X142708380Y-122848809D01*
X142756000Y-122753571D01*
X142803619Y-122705952D01*
X142898857Y-122658333D01*
X142994095Y-122658333D01*
X143136952Y-122705952D01*
X143708380Y-123277380D01*
X143708380Y-122658333D01*
%TD*%
M02*
