%TF.GenerationSoftware,KiCad,Pcbnew,(5.1.8)-1*%
%TF.CreationDate,2021-02-26T23:13:32+01:00*%
%TF.ProjectId,CH341Apro,43483334-3141-4707-926f-2e6b69636164,rev?*%
%TF.SameCoordinates,Original*%
%TF.FileFunction,Legend,Bot*%
%TF.FilePolarity,Positive*%
%FSLAX46Y46*%
G04 Gerber Fmt 4.6, Leading zero omitted, Abs format (unit mm)*
G04 Created by KiCad (PCBNEW (5.1.8)-1) date 2021-02-26 23:13:32*
%MOMM*%
%LPD*%
G01*
G04 APERTURE LIST*
%ADD10C,0.120000*%
%ADD11C,0.150000*%
G04 APERTURE END LIST*
D10*
X104267000Y-78994000D02*
G75*
G02*
X105791000Y-78994000I762000J0D01*
G01*
X104267000Y-68834000D02*
G75*
G02*
X105791000Y-68834000I762000J0D01*
G01*
D11*
X97981428Y-93019619D02*
X97981428Y-94019619D01*
X98314761Y-93305333D01*
X98648095Y-94019619D01*
X98648095Y-93019619D01*
X99124285Y-93019619D02*
X99124285Y-93686285D01*
X99124285Y-94019619D02*
X99076666Y-93972000D01*
X99124285Y-93924380D01*
X99171904Y-93972000D01*
X99124285Y-94019619D01*
X99124285Y-93924380D01*
X99600476Y-93686285D02*
X99600476Y-93019619D01*
X99600476Y-93591047D02*
X99648095Y-93638666D01*
X99743333Y-93686285D01*
X99886190Y-93686285D01*
X99981428Y-93638666D01*
X100029047Y-93543428D01*
X100029047Y-93019619D01*
X100505238Y-93019619D02*
X100505238Y-93686285D01*
X100505238Y-94019619D02*
X100457619Y-93972000D01*
X100505238Y-93924380D01*
X100552857Y-93972000D01*
X100505238Y-94019619D01*
X100505238Y-93924380D01*
X101743333Y-93019619D02*
X101743333Y-94019619D01*
X102124285Y-94019619D01*
X102219523Y-93972000D01*
X102267142Y-93924380D01*
X102314761Y-93829142D01*
X102314761Y-93686285D01*
X102267142Y-93591047D01*
X102219523Y-93543428D01*
X102124285Y-93495809D01*
X101743333Y-93495809D01*
X102743333Y-93019619D02*
X102743333Y-93686285D01*
X102743333Y-93495809D02*
X102790952Y-93591047D01*
X102838571Y-93638666D01*
X102933809Y-93686285D01*
X103029047Y-93686285D01*
X103505238Y-93019619D02*
X103410000Y-93067238D01*
X103362380Y-93114857D01*
X103314761Y-93210095D01*
X103314761Y-93495809D01*
X103362380Y-93591047D01*
X103410000Y-93638666D01*
X103505238Y-93686285D01*
X103648095Y-93686285D01*
X103743333Y-93638666D01*
X103790952Y-93591047D01*
X103838571Y-93495809D01*
X103838571Y-93210095D01*
X103790952Y-93114857D01*
X103743333Y-93067238D01*
X103648095Y-93019619D01*
X103505238Y-93019619D01*
X104695714Y-93686285D02*
X104695714Y-92876761D01*
X104648095Y-92781523D01*
X104600476Y-92733904D01*
X104505238Y-92686285D01*
X104362380Y-92686285D01*
X104267142Y-92733904D01*
X104695714Y-93067238D02*
X104600476Y-93019619D01*
X104410000Y-93019619D01*
X104314761Y-93067238D01*
X104267142Y-93114857D01*
X104219523Y-93210095D01*
X104219523Y-93495809D01*
X104267142Y-93591047D01*
X104314761Y-93638666D01*
X104410000Y-93686285D01*
X104600476Y-93686285D01*
X104695714Y-93638666D01*
X105171904Y-93019619D02*
X105171904Y-93686285D01*
X105171904Y-93495809D02*
X105219523Y-93591047D01*
X105267142Y-93638666D01*
X105362380Y-93686285D01*
X105457619Y-93686285D01*
X106219523Y-93019619D02*
X106219523Y-93543428D01*
X106171904Y-93638666D01*
X106076666Y-93686285D01*
X105886190Y-93686285D01*
X105790952Y-93638666D01*
X106219523Y-93067238D02*
X106124285Y-93019619D01*
X105886190Y-93019619D01*
X105790952Y-93067238D01*
X105743333Y-93162476D01*
X105743333Y-93257714D01*
X105790952Y-93352952D01*
X105886190Y-93400571D01*
X106124285Y-93400571D01*
X106219523Y-93448190D01*
X106695714Y-93019619D02*
X106695714Y-93686285D01*
X106695714Y-93591047D02*
X106743333Y-93638666D01*
X106838571Y-93686285D01*
X106981428Y-93686285D01*
X107076666Y-93638666D01*
X107124285Y-93543428D01*
X107124285Y-93019619D01*
X107124285Y-93543428D02*
X107171904Y-93638666D01*
X107267142Y-93686285D01*
X107410000Y-93686285D01*
X107505238Y-93638666D01*
X107552857Y-93543428D01*
X107552857Y-93019619D01*
X108029047Y-93019619D02*
X108029047Y-93686285D01*
X108029047Y-93591047D02*
X108076666Y-93638666D01*
X108171904Y-93686285D01*
X108314761Y-93686285D01*
X108410000Y-93638666D01*
X108457619Y-93543428D01*
X108457619Y-93019619D01*
X108457619Y-93543428D02*
X108505238Y-93638666D01*
X108600476Y-93686285D01*
X108743333Y-93686285D01*
X108838571Y-93638666D01*
X108886190Y-93543428D01*
X108886190Y-93019619D01*
X109743333Y-93067238D02*
X109648095Y-93019619D01*
X109457619Y-93019619D01*
X109362380Y-93067238D01*
X109314761Y-93162476D01*
X109314761Y-93543428D01*
X109362380Y-93638666D01*
X109457619Y-93686285D01*
X109648095Y-93686285D01*
X109743333Y-93638666D01*
X109790952Y-93543428D01*
X109790952Y-93448190D01*
X109314761Y-93352952D01*
X110219523Y-93019619D02*
X110219523Y-93686285D01*
X110219523Y-93495809D02*
X110267142Y-93591047D01*
X110314761Y-93638666D01*
X110410000Y-93686285D01*
X110505238Y-93686285D01*
X111505238Y-93686285D02*
X111743333Y-93019619D01*
X111981428Y-93686285D01*
X112314761Y-93924380D02*
X112362380Y-93972000D01*
X112457619Y-94019619D01*
X112695714Y-94019619D01*
X112790952Y-93972000D01*
X112838571Y-93924380D01*
X112886190Y-93829142D01*
X112886190Y-93733904D01*
X112838571Y-93591047D01*
X112267142Y-93019619D01*
X112886190Y-93019619D01*
X102302857Y-94714285D02*
X102231428Y-94642857D01*
X102017142Y-94571428D01*
X101874285Y-94571428D01*
X101660000Y-94642857D01*
X101517142Y-94785714D01*
X101445714Y-94928571D01*
X101374285Y-95214285D01*
X101374285Y-95428571D01*
X101445714Y-95714285D01*
X101517142Y-95857142D01*
X101660000Y-96000000D01*
X101874285Y-96071428D01*
X102017142Y-96071428D01*
X102231428Y-96000000D01*
X102302857Y-95928571D01*
X102945714Y-94571428D02*
X102945714Y-96071428D01*
X102945714Y-95357142D02*
X103802857Y-95357142D01*
X103802857Y-94571428D02*
X103802857Y-96071428D01*
X104374285Y-96071428D02*
X105302857Y-96071428D01*
X104802857Y-95500000D01*
X105017142Y-95500000D01*
X105160000Y-95428571D01*
X105231428Y-95357142D01*
X105302857Y-95214285D01*
X105302857Y-94857142D01*
X105231428Y-94714285D01*
X105160000Y-94642857D01*
X105017142Y-94571428D01*
X104588571Y-94571428D01*
X104445714Y-94642857D01*
X104374285Y-94714285D01*
X106588571Y-95571428D02*
X106588571Y-94571428D01*
X106231428Y-96142857D02*
X105874285Y-95071428D01*
X106802857Y-95071428D01*
X108160000Y-94571428D02*
X107302857Y-94571428D01*
X107731428Y-94571428D02*
X107731428Y-96071428D01*
X107588571Y-95857142D01*
X107445714Y-95714285D01*
X107302857Y-95642857D01*
X108731428Y-95000000D02*
X109445714Y-95000000D01*
X108588571Y-94571428D02*
X109088571Y-96071428D01*
X109588571Y-94571428D01*
X105798428Y-66769904D02*
X105798428Y-66436571D01*
X105274619Y-66293714D02*
X105274619Y-66769904D01*
X106274619Y-66769904D01*
X106274619Y-66293714D01*
X105798428Y-65865142D02*
X105798428Y-65531809D01*
X105274619Y-65388952D02*
X105274619Y-65865142D01*
X106274619Y-65865142D01*
X106274619Y-65388952D01*
X105274619Y-64960380D02*
X106274619Y-64960380D01*
X106274619Y-64579428D01*
X106227000Y-64484190D01*
X106179380Y-64436571D01*
X106084142Y-64388952D01*
X105941285Y-64388952D01*
X105846047Y-64436571D01*
X105798428Y-64484190D01*
X105750809Y-64579428D01*
X105750809Y-64960380D01*
X105274619Y-63388952D02*
X105750809Y-63722285D01*
X105274619Y-63960380D02*
X106274619Y-63960380D01*
X106274619Y-63579428D01*
X106227000Y-63484190D01*
X106179380Y-63436571D01*
X106084142Y-63388952D01*
X105941285Y-63388952D01*
X105846047Y-63436571D01*
X105798428Y-63484190D01*
X105750809Y-63579428D01*
X105750809Y-63960380D01*
X106274619Y-62769904D02*
X106274619Y-62579428D01*
X106227000Y-62484190D01*
X106131761Y-62388952D01*
X105941285Y-62341333D01*
X105607952Y-62341333D01*
X105417476Y-62388952D01*
X105322238Y-62484190D01*
X105274619Y-62579428D01*
X105274619Y-62769904D01*
X105322238Y-62865142D01*
X105417476Y-62960380D01*
X105607952Y-63008000D01*
X105941285Y-63008000D01*
X106131761Y-62960380D01*
X106227000Y-62865142D01*
X106274619Y-62769904D01*
X105274619Y-61912761D02*
X106274619Y-61912761D01*
X105560333Y-61579428D01*
X106274619Y-61246095D01*
X105274619Y-61246095D01*
X104529380Y-66365142D02*
X104577000Y-66317523D01*
X104624619Y-66222285D01*
X104624619Y-65984190D01*
X104577000Y-65888952D01*
X104529380Y-65841333D01*
X104434142Y-65793714D01*
X104338904Y-65793714D01*
X104196047Y-65841333D01*
X103624619Y-66412761D01*
X103624619Y-65793714D01*
X104291285Y-64936571D02*
X103624619Y-64936571D01*
X104672238Y-65174666D02*
X103957952Y-65412761D01*
X103957952Y-64793714D01*
X103624619Y-63650857D02*
X104624619Y-63650857D01*
X104529380Y-63222285D02*
X104577000Y-63174666D01*
X104624619Y-63079428D01*
X104624619Y-62841333D01*
X104577000Y-62746095D01*
X104529380Y-62698476D01*
X104434142Y-62650857D01*
X104338904Y-62650857D01*
X104196047Y-62698476D01*
X103624619Y-63269904D01*
X103624619Y-62650857D01*
X103719857Y-61650857D02*
X103672238Y-61698476D01*
X103624619Y-61841333D01*
X103624619Y-61936571D01*
X103672238Y-62079428D01*
X103767476Y-62174666D01*
X103862714Y-62222285D01*
X104053190Y-62269904D01*
X104196047Y-62269904D01*
X104386523Y-62222285D01*
X104481761Y-62174666D01*
X104577000Y-62079428D01*
X104624619Y-61936571D01*
X104624619Y-61841333D01*
X104577000Y-61698476D01*
X104529380Y-61650857D01*
X105798428Y-74826666D02*
X105750809Y-74683809D01*
X105703190Y-74636190D01*
X105607952Y-74588571D01*
X105465095Y-74588571D01*
X105369857Y-74636190D01*
X105322238Y-74683809D01*
X105274619Y-74779047D01*
X105274619Y-75160000D01*
X106274619Y-75160000D01*
X106274619Y-74826666D01*
X106227000Y-74731428D01*
X106179380Y-74683809D01*
X106084142Y-74636190D01*
X105988904Y-74636190D01*
X105893666Y-74683809D01*
X105846047Y-74731428D01*
X105798428Y-74826666D01*
X105798428Y-75160000D01*
X105274619Y-74160000D02*
X106274619Y-74160000D01*
X106274619Y-73493333D02*
X106274619Y-73302857D01*
X106227000Y-73207619D01*
X106131761Y-73112380D01*
X105941285Y-73064761D01*
X105607952Y-73064761D01*
X105417476Y-73112380D01*
X105322238Y-73207619D01*
X105274619Y-73302857D01*
X105274619Y-73493333D01*
X105322238Y-73588571D01*
X105417476Y-73683809D01*
X105607952Y-73731428D01*
X105941285Y-73731428D01*
X106131761Y-73683809D01*
X106227000Y-73588571D01*
X106274619Y-73493333D01*
X105322238Y-72683809D02*
X105274619Y-72540952D01*
X105274619Y-72302857D01*
X105322238Y-72207619D01*
X105369857Y-72160000D01*
X105465095Y-72112380D01*
X105560333Y-72112380D01*
X105655571Y-72160000D01*
X105703190Y-72207619D01*
X105750809Y-72302857D01*
X105798428Y-72493333D01*
X105846047Y-72588571D01*
X105893666Y-72636190D01*
X105988904Y-72683809D01*
X106084142Y-72683809D01*
X106179380Y-72636190D01*
X106227000Y-72588571D01*
X106274619Y-72493333D01*
X106274619Y-72255238D01*
X106227000Y-72112380D01*
X104529380Y-76017142D02*
X104577000Y-75969523D01*
X104624619Y-75874285D01*
X104624619Y-75636190D01*
X104577000Y-75540952D01*
X104529380Y-75493333D01*
X104434142Y-75445714D01*
X104338904Y-75445714D01*
X104196047Y-75493333D01*
X103624619Y-76064761D01*
X103624619Y-75445714D01*
X104624619Y-74540952D02*
X104624619Y-75017142D01*
X104148428Y-75064761D01*
X104196047Y-75017142D01*
X104243666Y-74921904D01*
X104243666Y-74683809D01*
X104196047Y-74588571D01*
X104148428Y-74540952D01*
X104053190Y-74493333D01*
X103815095Y-74493333D01*
X103719857Y-74540952D01*
X103672238Y-74588571D01*
X103624619Y-74683809D01*
X103624619Y-74921904D01*
X103672238Y-75017142D01*
X103719857Y-75064761D01*
X103672238Y-73350476D02*
X103624619Y-73207619D01*
X103624619Y-72969523D01*
X103672238Y-72874285D01*
X103719857Y-72826666D01*
X103815095Y-72779047D01*
X103910333Y-72779047D01*
X104005571Y-72826666D01*
X104053190Y-72874285D01*
X104100809Y-72969523D01*
X104148428Y-73160000D01*
X104196047Y-73255238D01*
X104243666Y-73302857D01*
X104338904Y-73350476D01*
X104434142Y-73350476D01*
X104529380Y-73302857D01*
X104577000Y-73255238D01*
X104624619Y-73160000D01*
X104624619Y-72921904D01*
X104577000Y-72779047D01*
X103624619Y-72350476D02*
X104624619Y-72350476D01*
X104624619Y-71969523D01*
X104577000Y-71874285D01*
X104529380Y-71826666D01*
X104434142Y-71779047D01*
X104291285Y-71779047D01*
X104196047Y-71826666D01*
X104148428Y-71874285D01*
X104100809Y-71969523D01*
X104100809Y-72350476D01*
X103624619Y-71350476D02*
X104624619Y-71350476D01*
D10*
X100076000Y-58928000D02*
X100076000Y-68834000D01*
X109728000Y-58928000D02*
X100076000Y-58928000D01*
X109728000Y-68834000D02*
X109728000Y-58928000D01*
X100076000Y-68834000D02*
X109728000Y-68834000D01*
X100076000Y-78994000D02*
X100076000Y-68834000D01*
X109728000Y-78994000D02*
X100076000Y-78994000D01*
X109728000Y-68834000D02*
X109728000Y-78994000D01*
X96520000Y-75438000D02*
X96139000Y-75438000D01*
X96520000Y-76708000D02*
X96520000Y-75438000D01*
X96901000Y-76708000D02*
X96520000Y-76708000D01*
X96520000Y-76708000D02*
X96901000Y-76708000D01*
X96520000Y-77724000D02*
X96520000Y-76708000D01*
X96139000Y-77724000D02*
X96520000Y-77724000D01*
X96520000Y-78232000D02*
X96139000Y-78232000D01*
X96520000Y-79248000D02*
X96520000Y-78232000D01*
X96901000Y-79248000D02*
X96520000Y-79248000D01*
X96520000Y-79248000D02*
X96901000Y-79248000D01*
X96520000Y-80518000D02*
X96520000Y-79248000D01*
X96139000Y-80518000D02*
X96520000Y-80518000D01*
D11*
X97942380Y-78809904D02*
X98323333Y-78809904D01*
X98361428Y-79190857D01*
X98323333Y-79152761D01*
X98247142Y-79114666D01*
X98056666Y-79114666D01*
X97980476Y-79152761D01*
X97942380Y-79190857D01*
X97904285Y-79267047D01*
X97904285Y-79457523D01*
X97942380Y-79533714D01*
X97980476Y-79571809D01*
X98056666Y-79609904D01*
X98247142Y-79609904D01*
X98323333Y-79571809D01*
X98361428Y-79533714D01*
X97675714Y-78809904D02*
X97409047Y-79609904D01*
X97142380Y-78809904D01*
X99478952Y-76269904D02*
X98983714Y-76269904D01*
X99250380Y-76574666D01*
X99136095Y-76574666D01*
X99059904Y-76612761D01*
X99021809Y-76650857D01*
X98983714Y-76727047D01*
X98983714Y-76917523D01*
X99021809Y-76993714D01*
X99059904Y-77031809D01*
X99136095Y-77069904D01*
X99364666Y-77069904D01*
X99440857Y-77031809D01*
X99478952Y-76993714D01*
X98640857Y-76993714D02*
X98602761Y-77031809D01*
X98640857Y-77069904D01*
X98678952Y-77031809D01*
X98640857Y-76993714D01*
X98640857Y-77069904D01*
X98336095Y-76269904D02*
X97840857Y-76269904D01*
X98107523Y-76574666D01*
X97993238Y-76574666D01*
X97917047Y-76612761D01*
X97878952Y-76650857D01*
X97840857Y-76727047D01*
X97840857Y-76917523D01*
X97878952Y-76993714D01*
X97917047Y-77031809D01*
X97993238Y-77069904D01*
X98221809Y-77069904D01*
X98298000Y-77031809D01*
X98336095Y-76993714D01*
X97612285Y-76269904D02*
X97345619Y-77069904D01*
X97078952Y-76269904D01*
X112521904Y-80018000D02*
X112617142Y-79970380D01*
X112760000Y-79970380D01*
X112902857Y-80018000D01*
X112998095Y-80113238D01*
X113045714Y-80208476D01*
X113093333Y-80398952D01*
X113093333Y-80541809D01*
X113045714Y-80732285D01*
X112998095Y-80827523D01*
X112902857Y-80922761D01*
X112760000Y-80970380D01*
X112664761Y-80970380D01*
X112521904Y-80922761D01*
X112474285Y-80875142D01*
X112474285Y-80541809D01*
X112664761Y-80541809D01*
X112045714Y-80970380D02*
X112045714Y-79970380D01*
X111474285Y-80970380D01*
X111474285Y-79970380D01*
X110998095Y-80970380D02*
X110998095Y-79970380D01*
X110760000Y-79970380D01*
X110617142Y-80018000D01*
X110521904Y-80113238D01*
X110474285Y-80208476D01*
X110426666Y-80398952D01*
X110426666Y-80541809D01*
X110474285Y-80732285D01*
X110521904Y-80827523D01*
X110617142Y-80922761D01*
X110760000Y-80970380D01*
X110998095Y-80970380D01*
X112561666Y-78335142D02*
X112609285Y-78382761D01*
X112752142Y-78430380D01*
X112847380Y-78430380D01*
X112990238Y-78382761D01*
X113085476Y-78287523D01*
X113133095Y-78192285D01*
X113180714Y-78001809D01*
X113180714Y-77858952D01*
X113133095Y-77668476D01*
X113085476Y-77573238D01*
X112990238Y-77478000D01*
X112847380Y-77430380D01*
X112752142Y-77430380D01*
X112609285Y-77478000D01*
X112561666Y-77525619D01*
X112180714Y-78382761D02*
X112037857Y-78430380D01*
X111799761Y-78430380D01*
X111704523Y-78382761D01*
X111656904Y-78335142D01*
X111609285Y-78239904D01*
X111609285Y-78144666D01*
X111656904Y-78049428D01*
X111704523Y-78001809D01*
X111799761Y-77954190D01*
X111990238Y-77906571D01*
X112085476Y-77858952D01*
X112133095Y-77811333D01*
X112180714Y-77716095D01*
X112180714Y-77620857D01*
X112133095Y-77525619D01*
X112085476Y-77478000D01*
X111990238Y-77430380D01*
X111752142Y-77430380D01*
X111609285Y-77478000D01*
X112609238Y-75668142D02*
X112656857Y-75715761D01*
X112799714Y-75763380D01*
X112894952Y-75763380D01*
X113037809Y-75715761D01*
X113133047Y-75620523D01*
X113180666Y-75525285D01*
X113228285Y-75334809D01*
X113228285Y-75191952D01*
X113180666Y-75001476D01*
X113133047Y-74906238D01*
X113037809Y-74811000D01*
X112894952Y-74763380D01*
X112799714Y-74763380D01*
X112656857Y-74811000D01*
X112609238Y-74858619D01*
X111704476Y-75763380D02*
X112180666Y-75763380D01*
X112180666Y-74763380D01*
X111371142Y-75763380D02*
X111371142Y-74763380D01*
X110799714Y-75763380D02*
X111228285Y-75191952D01*
X110799714Y-74763380D02*
X111371142Y-75334809D01*
X113204428Y-73350380D02*
X113204428Y-72350380D01*
X112871095Y-73064666D01*
X112537761Y-72350380D01*
X112537761Y-73350380D01*
X111871095Y-72350380D02*
X111680619Y-72350380D01*
X111585380Y-72398000D01*
X111490142Y-72493238D01*
X111442523Y-72683714D01*
X111442523Y-73017047D01*
X111490142Y-73207523D01*
X111585380Y-73302761D01*
X111680619Y-73350380D01*
X111871095Y-73350380D01*
X111966333Y-73302761D01*
X112061571Y-73207523D01*
X112109190Y-73017047D01*
X112109190Y-72683714D01*
X112061571Y-72493238D01*
X111966333Y-72398000D01*
X111871095Y-72350380D01*
X111061571Y-73302761D02*
X110918714Y-73350380D01*
X110680619Y-73350380D01*
X110585380Y-73302761D01*
X110537761Y-73255142D01*
X110490142Y-73159904D01*
X110490142Y-73064666D01*
X110537761Y-72969428D01*
X110585380Y-72921809D01*
X110680619Y-72874190D01*
X110871095Y-72826571D01*
X110966333Y-72778952D01*
X111013952Y-72731333D01*
X111061571Y-72636095D01*
X111061571Y-72540857D01*
X111013952Y-72445619D01*
X110966333Y-72398000D01*
X110871095Y-72350380D01*
X110633000Y-72350380D01*
X110490142Y-72398000D01*
X110061571Y-73350380D02*
X110061571Y-72350380D01*
X113204428Y-70810380D02*
X113204428Y-69810380D01*
X112871095Y-70524666D01*
X112537761Y-69810380D01*
X112537761Y-70810380D01*
X112061571Y-70810380D02*
X112061571Y-69810380D01*
X111633000Y-70762761D02*
X111490142Y-70810380D01*
X111252047Y-70810380D01*
X111156809Y-70762761D01*
X111109190Y-70715142D01*
X111061571Y-70619904D01*
X111061571Y-70524666D01*
X111109190Y-70429428D01*
X111156809Y-70381809D01*
X111252047Y-70334190D01*
X111442523Y-70286571D01*
X111537761Y-70238952D01*
X111585380Y-70191333D01*
X111633000Y-70096095D01*
X111633000Y-70000857D01*
X111585380Y-69905619D01*
X111537761Y-69858000D01*
X111442523Y-69810380D01*
X111204428Y-69810380D01*
X111061571Y-69858000D01*
X110442523Y-69810380D02*
X110252047Y-69810380D01*
X110156809Y-69858000D01*
X110061571Y-69953238D01*
X110013952Y-70143714D01*
X110013952Y-70477047D01*
X110061571Y-70667523D01*
X110156809Y-70762761D01*
X110252047Y-70810380D01*
X110442523Y-70810380D01*
X110537761Y-70762761D01*
X110633000Y-70667523D01*
X110680619Y-70477047D01*
X110680619Y-70143714D01*
X110633000Y-69953238D01*
X110537761Y-69858000D01*
X110442523Y-69810380D01*
X113101285Y-68349761D02*
X112958428Y-68397380D01*
X112720333Y-68397380D01*
X112625095Y-68349761D01*
X112577476Y-68302142D01*
X112529857Y-68206904D01*
X112529857Y-68111666D01*
X112577476Y-68016428D01*
X112625095Y-67968809D01*
X112720333Y-67921190D01*
X112910809Y-67873571D01*
X113006047Y-67825952D01*
X113053666Y-67778333D01*
X113101285Y-67683095D01*
X113101285Y-67587857D01*
X113053666Y-67492619D01*
X113006047Y-67445000D01*
X112910809Y-67397380D01*
X112672714Y-67397380D01*
X112529857Y-67445000D01*
X112101285Y-68397380D02*
X112101285Y-67397380D01*
X111863190Y-67397380D01*
X111720333Y-67445000D01*
X111625095Y-67540238D01*
X111577476Y-67635476D01*
X111529857Y-67825952D01*
X111529857Y-67968809D01*
X111577476Y-68159285D01*
X111625095Y-68254523D01*
X111720333Y-68349761D01*
X111863190Y-68397380D01*
X112101285Y-68397380D01*
X111148904Y-68111666D02*
X110672714Y-68111666D01*
X111244142Y-68397380D02*
X110910809Y-67397380D01*
X110577476Y-68397380D01*
X113077476Y-65682761D02*
X112934619Y-65730380D01*
X112696523Y-65730380D01*
X112601285Y-65682761D01*
X112553666Y-65635142D01*
X112506047Y-65539904D01*
X112506047Y-65444666D01*
X112553666Y-65349428D01*
X112601285Y-65301809D01*
X112696523Y-65254190D01*
X112887000Y-65206571D01*
X112982238Y-65158952D01*
X113029857Y-65111333D01*
X113077476Y-65016095D01*
X113077476Y-64920857D01*
X113029857Y-64825619D01*
X112982238Y-64778000D01*
X112887000Y-64730380D01*
X112648904Y-64730380D01*
X112506047Y-64778000D01*
X111506047Y-65635142D02*
X111553666Y-65682761D01*
X111696523Y-65730380D01*
X111791761Y-65730380D01*
X111934619Y-65682761D01*
X112029857Y-65587523D01*
X112077476Y-65492285D01*
X112125095Y-65301809D01*
X112125095Y-65158952D01*
X112077476Y-64968476D01*
X112029857Y-64873238D01*
X111934619Y-64778000D01*
X111791761Y-64730380D01*
X111696523Y-64730380D01*
X111553666Y-64778000D01*
X111506047Y-64825619D01*
X110601285Y-65730380D02*
X111077476Y-65730380D01*
X111077476Y-64730380D01*
X113109190Y-62317380D02*
X112490142Y-62317380D01*
X112823476Y-62698333D01*
X112680619Y-62698333D01*
X112585380Y-62745952D01*
X112537761Y-62793571D01*
X112490142Y-62888809D01*
X112490142Y-63126904D01*
X112537761Y-63222142D01*
X112585380Y-63269761D01*
X112680619Y-63317380D01*
X112966333Y-63317380D01*
X113061571Y-63269761D01*
X113109190Y-63222142D01*
X112061571Y-63222142D02*
X112013952Y-63269761D01*
X112061571Y-63317380D01*
X112109190Y-63269761D01*
X112061571Y-63222142D01*
X112061571Y-63317380D01*
X111680619Y-62317380D02*
X111061571Y-62317380D01*
X111394904Y-62698333D01*
X111252047Y-62698333D01*
X111156809Y-62745952D01*
X111109190Y-62793571D01*
X111061571Y-62888809D01*
X111061571Y-63126904D01*
X111109190Y-63222142D01*
X111156809Y-63269761D01*
X111252047Y-63317380D01*
X111537761Y-63317380D01*
X111633000Y-63269761D01*
X111680619Y-63222142D01*
X110775857Y-62317380D02*
X110442523Y-63317380D01*
X110109190Y-62317380D01*
X112458476Y-59777380D02*
X112934666Y-59777380D01*
X112982285Y-60253571D01*
X112934666Y-60205952D01*
X112839428Y-60158333D01*
X112601333Y-60158333D01*
X112506095Y-60205952D01*
X112458476Y-60253571D01*
X112410857Y-60348809D01*
X112410857Y-60586904D01*
X112458476Y-60682142D01*
X112506095Y-60729761D01*
X112601333Y-60777380D01*
X112839428Y-60777380D01*
X112934666Y-60729761D01*
X112982285Y-60682142D01*
X112125142Y-59777380D02*
X111791809Y-60777380D01*
X111458476Y-59777380D01*
M02*
