%TF.GenerationSoftware,KiCad,Pcbnew,(5.1.8)-1*%
%TF.CreationDate,2021-02-26T23:13:32+01:00*%
%TF.ProjectId,CH341Apro,43483334-3141-4707-926f-2e6b69636164,rev?*%
%TF.SameCoordinates,Original*%
%TF.FileFunction,Soldermask,Top*%
%TF.FilePolarity,Negative*%
%FSLAX46Y46*%
G04 Gerber Fmt 4.6, Leading zero omitted, Abs format (unit mm)*
G04 Created by KiCad (PCBNEW (5.1.8)-1) date 2021-02-26 23:13:32*
%MOMM*%
%LPD*%
G01*
G04 APERTURE LIST*
%ADD10C,0.100000*%
%ADD11R,1.700000X1.700000*%
%ADD12O,1.700000X1.700000*%
%ADD13C,1.400000*%
%ADD14C,1.350000*%
%ADD15R,0.500000X0.800000*%
%ADD16R,0.400000X0.800000*%
%ADD17R,2.000000X3.800000*%
%ADD18R,2.000000X1.500000*%
%ADD19R,1.100000X2.500000*%
%ADD20O,1.900000X3.500000*%
%ADD21C,1.100000*%
%ADD22R,1.000000X1.500000*%
%ADD23R,2.400000X2.000000*%
G04 APERTURE END LIST*
D10*
G36*
X111277400Y-45237400D02*
G01*
X112699800Y-45669200D01*
X113817400Y-46202600D01*
X115493800Y-47447200D01*
X116662200Y-48666400D01*
X117830600Y-50622200D01*
X118364000Y-51917600D01*
X118694200Y-53619400D01*
X118719600Y-56134000D01*
X118694200Y-113919000D01*
X110871000Y-113919000D01*
X111252000Y-113665000D01*
X111506000Y-113411000D01*
X111760000Y-112903000D01*
X116586000Y-112903000D01*
X116586000Y-54610000D01*
X116332000Y-53086000D01*
X115544600Y-51054000D01*
X114046000Y-49250600D01*
X112242600Y-47955200D01*
X110820200Y-47447200D01*
X109474000Y-47193200D01*
X100965000Y-47193200D01*
X99745800Y-47294800D01*
X98425000Y-47625000D01*
X96748600Y-48463200D01*
X95504000Y-49555400D01*
X94259400Y-51282600D01*
X93776800Y-52451000D01*
X93522800Y-53492400D01*
X93395800Y-54965600D01*
X93395800Y-112903000D01*
X97663000Y-112903000D01*
X97790000Y-113284000D01*
X97917000Y-113538000D01*
X98171000Y-113792000D01*
X98552000Y-113919000D01*
X91186000Y-113919000D01*
X91211400Y-54737000D01*
X91465400Y-52527200D01*
X92202000Y-50393600D01*
X93573600Y-48310800D01*
X95402400Y-46710600D01*
X96799400Y-45872400D01*
X98628200Y-45212000D01*
X100177600Y-44958000D01*
X103809800Y-44983400D01*
X109651800Y-44958000D01*
X111277400Y-45237400D01*
G37*
X111277400Y-45237400D02*
X112699800Y-45669200D01*
X113817400Y-46202600D01*
X115493800Y-47447200D01*
X116662200Y-48666400D01*
X117830600Y-50622200D01*
X118364000Y-51917600D01*
X118694200Y-53619400D01*
X118719600Y-56134000D01*
X118694200Y-113919000D01*
X110871000Y-113919000D01*
X111252000Y-113665000D01*
X111506000Y-113411000D01*
X111760000Y-112903000D01*
X116586000Y-112903000D01*
X116586000Y-54610000D01*
X116332000Y-53086000D01*
X115544600Y-51054000D01*
X114046000Y-49250600D01*
X112242600Y-47955200D01*
X110820200Y-47447200D01*
X109474000Y-47193200D01*
X100965000Y-47193200D01*
X99745800Y-47294800D01*
X98425000Y-47625000D01*
X96748600Y-48463200D01*
X95504000Y-49555400D01*
X94259400Y-51282600D01*
X93776800Y-52451000D01*
X93522800Y-53492400D01*
X93395800Y-54965600D01*
X93395800Y-112903000D01*
X97663000Y-112903000D01*
X97790000Y-113284000D01*
X97917000Y-113538000D01*
X98171000Y-113792000D01*
X98552000Y-113919000D01*
X91186000Y-113919000D01*
X91211400Y-54737000D01*
X91465400Y-52527200D01*
X92202000Y-50393600D01*
X93573600Y-48310800D01*
X95402400Y-46710600D01*
X96799400Y-45872400D01*
X98628200Y-45212000D01*
X100177600Y-44958000D01*
X103809800Y-44983400D01*
X109651800Y-44958000D01*
X111277400Y-45237400D01*
D11*
%TO.C,J5*%
X94996000Y-80518000D03*
D12*
X94996000Y-77978000D03*
X94996000Y-75438000D03*
%TD*%
%TO.C,C2*%
G36*
G01*
X97999000Y-101724750D02*
X97999000Y-102237250D01*
G75*
G02*
X97780250Y-102456000I-218750J0D01*
G01*
X97342750Y-102456000D01*
G75*
G02*
X97124000Y-102237250I0J218750D01*
G01*
X97124000Y-101724750D01*
G75*
G02*
X97342750Y-101506000I218750J0D01*
G01*
X97780250Y-101506000D01*
G75*
G02*
X97999000Y-101724750I0J-218750D01*
G01*
G37*
G36*
G01*
X96424000Y-101724750D02*
X96424000Y-102237250D01*
G75*
G02*
X96205250Y-102456000I-218750J0D01*
G01*
X95767750Y-102456000D01*
G75*
G02*
X95549000Y-102237250I0J218750D01*
G01*
X95549000Y-101724750D01*
G75*
G02*
X95767750Y-101506000I218750J0D01*
G01*
X96205250Y-101506000D01*
G75*
G02*
X96424000Y-101724750I0J-218750D01*
G01*
G37*
%TD*%
%TO.C,C1*%
G36*
G01*
X97973500Y-104010750D02*
X97973500Y-104523250D01*
G75*
G02*
X97754750Y-104742000I-218750J0D01*
G01*
X97317250Y-104742000D01*
G75*
G02*
X97098500Y-104523250I0J218750D01*
G01*
X97098500Y-104010750D01*
G75*
G02*
X97317250Y-103792000I218750J0D01*
G01*
X97754750Y-103792000D01*
G75*
G02*
X97973500Y-104010750I0J-218750D01*
G01*
G37*
G36*
G01*
X96398500Y-104010750D02*
X96398500Y-104523250D01*
G75*
G02*
X96179750Y-104742000I-218750J0D01*
G01*
X95742250Y-104742000D01*
G75*
G02*
X95523500Y-104523250I0J218750D01*
G01*
X95523500Y-104010750D01*
G75*
G02*
X95742250Y-103792000I218750J0D01*
G01*
X96179750Y-103792000D01*
G75*
G02*
X96398500Y-104010750I0J-218750D01*
G01*
G37*
%TD*%
%TO.C,D1*%
G36*
G01*
X95379250Y-110699000D02*
X94866750Y-110699000D01*
G75*
G02*
X94648000Y-110480250I0J218750D01*
G01*
X94648000Y-110042750D01*
G75*
G02*
X94866750Y-109824000I218750J0D01*
G01*
X95379250Y-109824000D01*
G75*
G02*
X95598000Y-110042750I0J-218750D01*
G01*
X95598000Y-110480250D01*
G75*
G02*
X95379250Y-110699000I-218750J0D01*
G01*
G37*
G36*
G01*
X95379250Y-109124000D02*
X94866750Y-109124000D01*
G75*
G02*
X94648000Y-108905250I0J218750D01*
G01*
X94648000Y-108467750D01*
G75*
G02*
X94866750Y-108249000I218750J0D01*
G01*
X95379250Y-108249000D01*
G75*
G02*
X95598000Y-108467750I0J-218750D01*
G01*
X95598000Y-108905250D01*
G75*
G02*
X95379250Y-109124000I-218750J0D01*
G01*
G37*
%TD*%
%TO.C,D2*%
G36*
G01*
X115064250Y-109124000D02*
X114551750Y-109124000D01*
G75*
G02*
X114333000Y-108905250I0J218750D01*
G01*
X114333000Y-108467750D01*
G75*
G02*
X114551750Y-108249000I218750J0D01*
G01*
X115064250Y-108249000D01*
G75*
G02*
X115283000Y-108467750I0J-218750D01*
G01*
X115283000Y-108905250D01*
G75*
G02*
X115064250Y-109124000I-218750J0D01*
G01*
G37*
G36*
G01*
X115064250Y-110699000D02*
X114551750Y-110699000D01*
G75*
G02*
X114333000Y-110480250I0J218750D01*
G01*
X114333000Y-110042750D01*
G75*
G02*
X114551750Y-109824000I218750J0D01*
G01*
X115064250Y-109824000D01*
G75*
G02*
X115283000Y-110042750I0J-218750D01*
G01*
X115283000Y-110480250D01*
G75*
G02*
X115064250Y-110699000I-218750J0D01*
G01*
G37*
%TD*%
D13*
%TO.C,J3*%
X108648500Y-77787500D03*
X101028500Y-77787500D03*
X108648500Y-75247500D03*
X101028500Y-75247500D03*
X108648500Y-72707500D03*
X101028500Y-72707500D03*
X108648500Y-70167500D03*
X101028500Y-70167500D03*
X108648500Y-67627500D03*
X101028500Y-67627500D03*
D14*
X108648500Y-65087500D03*
D13*
X101028500Y-65087500D03*
D14*
X108648500Y-62547500D03*
X101028500Y-62547500D03*
D13*
X108648500Y-60007500D03*
D14*
X101028500Y-60007500D03*
%TD*%
D15*
%TO.C,RN1*%
X112325000Y-101335000D03*
D16*
X110725000Y-101335000D03*
X111525000Y-101335000D03*
D15*
X109925000Y-101335000D03*
D16*
X111525000Y-103135000D03*
D15*
X112325000Y-103135000D03*
D16*
X110725000Y-103135000D03*
D15*
X109925000Y-103135000D03*
%TD*%
D17*
%TO.C,U1*%
X105893000Y-101981000D03*
D18*
X99593000Y-101981000D03*
X99593000Y-104281000D03*
X99593000Y-99681000D03*
%TD*%
%TO.C,U2*%
G36*
G01*
X94701500Y-96861000D02*
X94401500Y-96861000D01*
G75*
G02*
X94251500Y-96711000I0J150000D01*
G01*
X94251500Y-94961000D01*
G75*
G02*
X94401500Y-94811000I150000J0D01*
G01*
X94701500Y-94811000D01*
G75*
G02*
X94851500Y-94961000I0J-150000D01*
G01*
X94851500Y-96711000D01*
G75*
G02*
X94701500Y-96861000I-150000J0D01*
G01*
G37*
G36*
G01*
X95971500Y-96861000D02*
X95671500Y-96861000D01*
G75*
G02*
X95521500Y-96711000I0J150000D01*
G01*
X95521500Y-94961000D01*
G75*
G02*
X95671500Y-94811000I150000J0D01*
G01*
X95971500Y-94811000D01*
G75*
G02*
X96121500Y-94961000I0J-150000D01*
G01*
X96121500Y-96711000D01*
G75*
G02*
X95971500Y-96861000I-150000J0D01*
G01*
G37*
G36*
G01*
X97241500Y-96861000D02*
X96941500Y-96861000D01*
G75*
G02*
X96791500Y-96711000I0J150000D01*
G01*
X96791500Y-94961000D01*
G75*
G02*
X96941500Y-94811000I150000J0D01*
G01*
X97241500Y-94811000D01*
G75*
G02*
X97391500Y-94961000I0J-150000D01*
G01*
X97391500Y-96711000D01*
G75*
G02*
X97241500Y-96861000I-150000J0D01*
G01*
G37*
G36*
G01*
X98511500Y-96861000D02*
X98211500Y-96861000D01*
G75*
G02*
X98061500Y-96711000I0J150000D01*
G01*
X98061500Y-94961000D01*
G75*
G02*
X98211500Y-94811000I150000J0D01*
G01*
X98511500Y-94811000D01*
G75*
G02*
X98661500Y-94961000I0J-150000D01*
G01*
X98661500Y-96711000D01*
G75*
G02*
X98511500Y-96861000I-150000J0D01*
G01*
G37*
G36*
G01*
X99781500Y-96861000D02*
X99481500Y-96861000D01*
G75*
G02*
X99331500Y-96711000I0J150000D01*
G01*
X99331500Y-94961000D01*
G75*
G02*
X99481500Y-94811000I150000J0D01*
G01*
X99781500Y-94811000D01*
G75*
G02*
X99931500Y-94961000I0J-150000D01*
G01*
X99931500Y-96711000D01*
G75*
G02*
X99781500Y-96861000I-150000J0D01*
G01*
G37*
G36*
G01*
X101051500Y-96861000D02*
X100751500Y-96861000D01*
G75*
G02*
X100601500Y-96711000I0J150000D01*
G01*
X100601500Y-94961000D01*
G75*
G02*
X100751500Y-94811000I150000J0D01*
G01*
X101051500Y-94811000D01*
G75*
G02*
X101201500Y-94961000I0J-150000D01*
G01*
X101201500Y-96711000D01*
G75*
G02*
X101051500Y-96861000I-150000J0D01*
G01*
G37*
G36*
G01*
X102321500Y-96861000D02*
X102021500Y-96861000D01*
G75*
G02*
X101871500Y-96711000I0J150000D01*
G01*
X101871500Y-94961000D01*
G75*
G02*
X102021500Y-94811000I150000J0D01*
G01*
X102321500Y-94811000D01*
G75*
G02*
X102471500Y-94961000I0J-150000D01*
G01*
X102471500Y-96711000D01*
G75*
G02*
X102321500Y-96861000I-150000J0D01*
G01*
G37*
G36*
G01*
X103591500Y-96861000D02*
X103291500Y-96861000D01*
G75*
G02*
X103141500Y-96711000I0J150000D01*
G01*
X103141500Y-94961000D01*
G75*
G02*
X103291500Y-94811000I150000J0D01*
G01*
X103591500Y-94811000D01*
G75*
G02*
X103741500Y-94961000I0J-150000D01*
G01*
X103741500Y-96711000D01*
G75*
G02*
X103591500Y-96861000I-150000J0D01*
G01*
G37*
G36*
G01*
X104861500Y-96861000D02*
X104561500Y-96861000D01*
G75*
G02*
X104411500Y-96711000I0J150000D01*
G01*
X104411500Y-94961000D01*
G75*
G02*
X104561500Y-94811000I150000J0D01*
G01*
X104861500Y-94811000D01*
G75*
G02*
X105011500Y-94961000I0J-150000D01*
G01*
X105011500Y-96711000D01*
G75*
G02*
X104861500Y-96861000I-150000J0D01*
G01*
G37*
G36*
G01*
X106131500Y-96861000D02*
X105831500Y-96861000D01*
G75*
G02*
X105681500Y-96711000I0J150000D01*
G01*
X105681500Y-94961000D01*
G75*
G02*
X105831500Y-94811000I150000J0D01*
G01*
X106131500Y-94811000D01*
G75*
G02*
X106281500Y-94961000I0J-150000D01*
G01*
X106281500Y-96711000D01*
G75*
G02*
X106131500Y-96861000I-150000J0D01*
G01*
G37*
G36*
G01*
X107401500Y-96861000D02*
X107101500Y-96861000D01*
G75*
G02*
X106951500Y-96711000I0J150000D01*
G01*
X106951500Y-94961000D01*
G75*
G02*
X107101500Y-94811000I150000J0D01*
G01*
X107401500Y-94811000D01*
G75*
G02*
X107551500Y-94961000I0J-150000D01*
G01*
X107551500Y-96711000D01*
G75*
G02*
X107401500Y-96861000I-150000J0D01*
G01*
G37*
G36*
G01*
X108671500Y-96861000D02*
X108371500Y-96861000D01*
G75*
G02*
X108221500Y-96711000I0J150000D01*
G01*
X108221500Y-94961000D01*
G75*
G02*
X108371500Y-94811000I150000J0D01*
G01*
X108671500Y-94811000D01*
G75*
G02*
X108821500Y-94961000I0J-150000D01*
G01*
X108821500Y-96711000D01*
G75*
G02*
X108671500Y-96861000I-150000J0D01*
G01*
G37*
G36*
G01*
X109941500Y-96861000D02*
X109641500Y-96861000D01*
G75*
G02*
X109491500Y-96711000I0J150000D01*
G01*
X109491500Y-94961000D01*
G75*
G02*
X109641500Y-94811000I150000J0D01*
G01*
X109941500Y-94811000D01*
G75*
G02*
X110091500Y-94961000I0J-150000D01*
G01*
X110091500Y-96711000D01*
G75*
G02*
X109941500Y-96861000I-150000J0D01*
G01*
G37*
G36*
G01*
X111211500Y-96861000D02*
X110911500Y-96861000D01*
G75*
G02*
X110761500Y-96711000I0J150000D01*
G01*
X110761500Y-94961000D01*
G75*
G02*
X110911500Y-94811000I150000J0D01*
G01*
X111211500Y-94811000D01*
G75*
G02*
X111361500Y-94961000I0J-150000D01*
G01*
X111361500Y-96711000D01*
G75*
G02*
X111211500Y-96861000I-150000J0D01*
G01*
G37*
G36*
G01*
X111211500Y-87561000D02*
X110911500Y-87561000D01*
G75*
G02*
X110761500Y-87411000I0J150000D01*
G01*
X110761500Y-85661000D01*
G75*
G02*
X110911500Y-85511000I150000J0D01*
G01*
X111211500Y-85511000D01*
G75*
G02*
X111361500Y-85661000I0J-150000D01*
G01*
X111361500Y-87411000D01*
G75*
G02*
X111211500Y-87561000I-150000J0D01*
G01*
G37*
G36*
G01*
X109941500Y-87561000D02*
X109641500Y-87561000D01*
G75*
G02*
X109491500Y-87411000I0J150000D01*
G01*
X109491500Y-85661000D01*
G75*
G02*
X109641500Y-85511000I150000J0D01*
G01*
X109941500Y-85511000D01*
G75*
G02*
X110091500Y-85661000I0J-150000D01*
G01*
X110091500Y-87411000D01*
G75*
G02*
X109941500Y-87561000I-150000J0D01*
G01*
G37*
G36*
G01*
X108671500Y-87561000D02*
X108371500Y-87561000D01*
G75*
G02*
X108221500Y-87411000I0J150000D01*
G01*
X108221500Y-85661000D01*
G75*
G02*
X108371500Y-85511000I150000J0D01*
G01*
X108671500Y-85511000D01*
G75*
G02*
X108821500Y-85661000I0J-150000D01*
G01*
X108821500Y-87411000D01*
G75*
G02*
X108671500Y-87561000I-150000J0D01*
G01*
G37*
G36*
G01*
X107401500Y-87561000D02*
X107101500Y-87561000D01*
G75*
G02*
X106951500Y-87411000I0J150000D01*
G01*
X106951500Y-85661000D01*
G75*
G02*
X107101500Y-85511000I150000J0D01*
G01*
X107401500Y-85511000D01*
G75*
G02*
X107551500Y-85661000I0J-150000D01*
G01*
X107551500Y-87411000D01*
G75*
G02*
X107401500Y-87561000I-150000J0D01*
G01*
G37*
G36*
G01*
X106131500Y-87561000D02*
X105831500Y-87561000D01*
G75*
G02*
X105681500Y-87411000I0J150000D01*
G01*
X105681500Y-85661000D01*
G75*
G02*
X105831500Y-85511000I150000J0D01*
G01*
X106131500Y-85511000D01*
G75*
G02*
X106281500Y-85661000I0J-150000D01*
G01*
X106281500Y-87411000D01*
G75*
G02*
X106131500Y-87561000I-150000J0D01*
G01*
G37*
G36*
G01*
X104861500Y-87561000D02*
X104561500Y-87561000D01*
G75*
G02*
X104411500Y-87411000I0J150000D01*
G01*
X104411500Y-85661000D01*
G75*
G02*
X104561500Y-85511000I150000J0D01*
G01*
X104861500Y-85511000D01*
G75*
G02*
X105011500Y-85661000I0J-150000D01*
G01*
X105011500Y-87411000D01*
G75*
G02*
X104861500Y-87561000I-150000J0D01*
G01*
G37*
G36*
G01*
X103591500Y-87561000D02*
X103291500Y-87561000D01*
G75*
G02*
X103141500Y-87411000I0J150000D01*
G01*
X103141500Y-85661000D01*
G75*
G02*
X103291500Y-85511000I150000J0D01*
G01*
X103591500Y-85511000D01*
G75*
G02*
X103741500Y-85661000I0J-150000D01*
G01*
X103741500Y-87411000D01*
G75*
G02*
X103591500Y-87561000I-150000J0D01*
G01*
G37*
G36*
G01*
X102321500Y-87561000D02*
X102021500Y-87561000D01*
G75*
G02*
X101871500Y-87411000I0J150000D01*
G01*
X101871500Y-85661000D01*
G75*
G02*
X102021500Y-85511000I150000J0D01*
G01*
X102321500Y-85511000D01*
G75*
G02*
X102471500Y-85661000I0J-150000D01*
G01*
X102471500Y-87411000D01*
G75*
G02*
X102321500Y-87561000I-150000J0D01*
G01*
G37*
G36*
G01*
X101051500Y-87561000D02*
X100751500Y-87561000D01*
G75*
G02*
X100601500Y-87411000I0J150000D01*
G01*
X100601500Y-85661000D01*
G75*
G02*
X100751500Y-85511000I150000J0D01*
G01*
X101051500Y-85511000D01*
G75*
G02*
X101201500Y-85661000I0J-150000D01*
G01*
X101201500Y-87411000D01*
G75*
G02*
X101051500Y-87561000I-150000J0D01*
G01*
G37*
G36*
G01*
X99781500Y-87561000D02*
X99481500Y-87561000D01*
G75*
G02*
X99331500Y-87411000I0J150000D01*
G01*
X99331500Y-85661000D01*
G75*
G02*
X99481500Y-85511000I150000J0D01*
G01*
X99781500Y-85511000D01*
G75*
G02*
X99931500Y-85661000I0J-150000D01*
G01*
X99931500Y-87411000D01*
G75*
G02*
X99781500Y-87561000I-150000J0D01*
G01*
G37*
G36*
G01*
X98511500Y-87561000D02*
X98211500Y-87561000D01*
G75*
G02*
X98061500Y-87411000I0J150000D01*
G01*
X98061500Y-85661000D01*
G75*
G02*
X98211500Y-85511000I150000J0D01*
G01*
X98511500Y-85511000D01*
G75*
G02*
X98661500Y-85661000I0J-150000D01*
G01*
X98661500Y-87411000D01*
G75*
G02*
X98511500Y-87561000I-150000J0D01*
G01*
G37*
G36*
G01*
X97241500Y-87561000D02*
X96941500Y-87561000D01*
G75*
G02*
X96791500Y-87411000I0J150000D01*
G01*
X96791500Y-85661000D01*
G75*
G02*
X96941500Y-85511000I150000J0D01*
G01*
X97241500Y-85511000D01*
G75*
G02*
X97391500Y-85661000I0J-150000D01*
G01*
X97391500Y-87411000D01*
G75*
G02*
X97241500Y-87561000I-150000J0D01*
G01*
G37*
G36*
G01*
X95971500Y-87561000D02*
X95671500Y-87561000D01*
G75*
G02*
X95521500Y-87411000I0J150000D01*
G01*
X95521500Y-85661000D01*
G75*
G02*
X95671500Y-85511000I150000J0D01*
G01*
X95971500Y-85511000D01*
G75*
G02*
X96121500Y-85661000I0J-150000D01*
G01*
X96121500Y-87411000D01*
G75*
G02*
X95971500Y-87561000I-150000J0D01*
G01*
G37*
G36*
G01*
X94701500Y-87561000D02*
X94401500Y-87561000D01*
G75*
G02*
X94251500Y-87411000I0J150000D01*
G01*
X94251500Y-85661000D01*
G75*
G02*
X94401500Y-85511000I150000J0D01*
G01*
X94701500Y-85511000D01*
G75*
G02*
X94851500Y-85661000I0J-150000D01*
G01*
X94851500Y-87411000D01*
G75*
G02*
X94701500Y-87561000I-150000J0D01*
G01*
G37*
%TD*%
D11*
%TO.C,J4*%
X114681000Y-80518000D03*
D12*
X114681000Y-77978000D03*
X114681000Y-75438000D03*
X114681000Y-72898000D03*
X114681000Y-70358000D03*
X114681000Y-67818000D03*
X114681000Y-65278000D03*
X114681000Y-62738000D03*
X114681000Y-60198000D03*
%TD*%
D19*
%TO.C,J1*%
X105726500Y-109200500D03*
X103726500Y-109200500D03*
X108226500Y-109200500D03*
X101226500Y-109200500D03*
D20*
X110426500Y-111950500D03*
X99026500Y-111950500D03*
D21*
X107026500Y-111950500D03*
X102426500Y-111950500D03*
%TD*%
%TO.C,C3*%
G36*
G01*
X95536000Y-98675000D02*
X95536000Y-98175000D01*
G75*
G02*
X95761000Y-97950000I225000J0D01*
G01*
X96211000Y-97950000D01*
G75*
G02*
X96436000Y-98175000I0J-225000D01*
G01*
X96436000Y-98675000D01*
G75*
G02*
X96211000Y-98900000I-225000J0D01*
G01*
X95761000Y-98900000D01*
G75*
G02*
X95536000Y-98675000I0J225000D01*
G01*
G37*
G36*
G01*
X97086000Y-98675000D02*
X97086000Y-98175000D01*
G75*
G02*
X97311000Y-97950000I225000J0D01*
G01*
X97761000Y-97950000D01*
G75*
G02*
X97986000Y-98175000I0J-225000D01*
G01*
X97986000Y-98675000D01*
G75*
G02*
X97761000Y-98900000I-225000J0D01*
G01*
X97311000Y-98900000D01*
G75*
G02*
X97086000Y-98675000I0J225000D01*
G01*
G37*
%TD*%
%TO.C,R1*%
G36*
G01*
X110469000Y-104249000D02*
X111019000Y-104249000D01*
G75*
G02*
X111219000Y-104449000I0J-200000D01*
G01*
X111219000Y-104849000D01*
G75*
G02*
X111019000Y-105049000I-200000J0D01*
G01*
X110469000Y-105049000D01*
G75*
G02*
X110269000Y-104849000I0J200000D01*
G01*
X110269000Y-104449000D01*
G75*
G02*
X110469000Y-104249000I200000J0D01*
G01*
G37*
G36*
G01*
X110469000Y-105899000D02*
X111019000Y-105899000D01*
G75*
G02*
X111219000Y-106099000I0J-200000D01*
G01*
X111219000Y-106499000D01*
G75*
G02*
X111019000Y-106699000I-200000J0D01*
G01*
X110469000Y-106699000D01*
G75*
G02*
X110269000Y-106499000I0J200000D01*
G01*
X110269000Y-106099000D01*
G75*
G02*
X110469000Y-105899000I200000J0D01*
G01*
G37*
%TD*%
D22*
%TO.C,JP1*%
X109885000Y-99060000D03*
X108585000Y-99060000D03*
%TD*%
%TO.C,C5*%
G36*
G01*
X114343000Y-87755000D02*
X114003000Y-87755000D01*
G75*
G02*
X113863000Y-87615000I0J140000D01*
G01*
X113863000Y-87335000D01*
G75*
G02*
X114003000Y-87195000I140000J0D01*
G01*
X114343000Y-87195000D01*
G75*
G02*
X114483000Y-87335000I0J-140000D01*
G01*
X114483000Y-87615000D01*
G75*
G02*
X114343000Y-87755000I-140000J0D01*
G01*
G37*
G36*
G01*
X114343000Y-86795000D02*
X114003000Y-86795000D01*
G75*
G02*
X113863000Y-86655000I0J140000D01*
G01*
X113863000Y-86375000D01*
G75*
G02*
X114003000Y-86235000I140000J0D01*
G01*
X114343000Y-86235000D01*
G75*
G02*
X114483000Y-86375000I0J-140000D01*
G01*
X114483000Y-86655000D01*
G75*
G02*
X114343000Y-86795000I-140000J0D01*
G01*
G37*
%TD*%
%TO.C,C6*%
G36*
G01*
X114003000Y-95422000D02*
X114343000Y-95422000D01*
G75*
G02*
X114483000Y-95562000I0J-140000D01*
G01*
X114483000Y-95842000D01*
G75*
G02*
X114343000Y-95982000I-140000J0D01*
G01*
X114003000Y-95982000D01*
G75*
G02*
X113863000Y-95842000I0J140000D01*
G01*
X113863000Y-95562000D01*
G75*
G02*
X114003000Y-95422000I140000J0D01*
G01*
G37*
G36*
G01*
X114003000Y-94462000D02*
X114343000Y-94462000D01*
G75*
G02*
X114483000Y-94602000I0J-140000D01*
G01*
X114483000Y-94882000D01*
G75*
G02*
X114343000Y-95022000I-140000J0D01*
G01*
X114003000Y-95022000D01*
G75*
G02*
X113863000Y-94882000I0J140000D01*
G01*
X113863000Y-94602000D01*
G75*
G02*
X114003000Y-94462000I140000J0D01*
G01*
G37*
%TD*%
D23*
%TO.C,Y1*%
X114173000Y-89336000D03*
X114173000Y-93036000D03*
%TD*%
M02*
