%TF.GenerationSoftware,KiCad,Pcbnew,(5.1.8)-1*%
%TF.CreationDate,2021-02-26T23:13:32+01:00*%
%TF.ProjectId,CH341Apro,43483334-3141-4707-926f-2e6b69636164,rev?*%
%TF.SameCoordinates,Original*%
%TF.FileFunction,Legend,Top*%
%TF.FilePolarity,Positive*%
%FSLAX46Y46*%
G04 Gerber Fmt 4.6, Leading zero omitted, Abs format (unit mm)*
G04 Created by KiCad (PCBNEW (5.1.8)-1) date 2021-02-26 23:13:32*
%MOMM*%
%LPD*%
G01*
G04 APERTURE LIST*
%ADD10C,0.150000*%
%ADD11C,0.120000*%
G04 APERTURE END LIST*
D10*
X108571857Y-47720285D02*
X108609952Y-47682190D01*
X108724238Y-47644095D01*
X108800428Y-47644095D01*
X108914714Y-47682190D01*
X108990904Y-47758380D01*
X109029000Y-47834571D01*
X109067095Y-47986952D01*
X109067095Y-48101238D01*
X109029000Y-48253619D01*
X108990904Y-48329809D01*
X108914714Y-48406000D01*
X108800428Y-48444095D01*
X108724238Y-48444095D01*
X108609952Y-48406000D01*
X108571857Y-48367904D01*
X108229000Y-47644095D02*
X108229000Y-48444095D01*
X108229000Y-48063142D02*
X107771857Y-48063142D01*
X107771857Y-47644095D02*
X107771857Y-48444095D01*
X107467095Y-48444095D02*
X106971857Y-48444095D01*
X107238523Y-48139333D01*
X107124238Y-48139333D01*
X107048047Y-48101238D01*
X107009952Y-48063142D01*
X106971857Y-47986952D01*
X106971857Y-47796476D01*
X107009952Y-47720285D01*
X107048047Y-47682190D01*
X107124238Y-47644095D01*
X107352809Y-47644095D01*
X107429000Y-47682190D01*
X107467095Y-47720285D01*
X106286142Y-48177428D02*
X106286142Y-47644095D01*
X106476619Y-48482190D02*
X106667095Y-47910761D01*
X106171857Y-47910761D01*
X105448047Y-47644095D02*
X105905190Y-47644095D01*
X105676619Y-47644095D02*
X105676619Y-48444095D01*
X105752809Y-48329809D01*
X105829000Y-48253619D01*
X105905190Y-48215523D01*
X105143285Y-47872666D02*
X104762333Y-47872666D01*
X105219476Y-47644095D02*
X104952809Y-48444095D01*
X104686142Y-47644095D01*
X104419476Y-47948857D02*
X103809952Y-47948857D01*
X103429000Y-47644095D02*
X103429000Y-48444095D01*
X103124238Y-48444095D01*
X103048047Y-48406000D01*
X103009952Y-48367904D01*
X102971857Y-48291714D01*
X102971857Y-48177428D01*
X103009952Y-48101238D01*
X103048047Y-48063142D01*
X103124238Y-48025047D01*
X103429000Y-48025047D01*
X102629000Y-47644095D02*
X102629000Y-48177428D01*
X102629000Y-48025047D02*
X102590904Y-48101238D01*
X102552809Y-48139333D01*
X102476619Y-48177428D01*
X102400428Y-48177428D01*
X102019476Y-47644095D02*
X102095666Y-47682190D01*
X102133761Y-47720285D01*
X102171857Y-47796476D01*
X102171857Y-48025047D01*
X102133761Y-48101238D01*
X102095666Y-48139333D01*
X102019476Y-48177428D01*
X101905190Y-48177428D01*
X101829000Y-48139333D01*
X101790904Y-48101238D01*
X101752809Y-48025047D01*
X101752809Y-47796476D01*
X101790904Y-47720285D01*
X101829000Y-47682190D01*
X101905190Y-47644095D01*
X102019476Y-47644095D01*
X101448047Y-48367904D02*
X101409952Y-48406000D01*
X101333761Y-48444095D01*
X101143285Y-48444095D01*
X101067095Y-48406000D01*
X101029000Y-48367904D01*
X100990904Y-48291714D01*
X100990904Y-48215523D01*
X101029000Y-48101238D01*
X101486142Y-47644095D01*
X100990904Y-47644095D01*
X94585666Y-60624333D02*
X94552333Y-60724333D01*
X94552333Y-60891000D01*
X94585666Y-60957666D01*
X94619000Y-60991000D01*
X94685666Y-61024333D01*
X94752333Y-61024333D01*
X94819000Y-60991000D01*
X94852333Y-60957666D01*
X94885666Y-60891000D01*
X94919000Y-60757666D01*
X94952333Y-60691000D01*
X94985666Y-60657666D01*
X95052333Y-60624333D01*
X95119000Y-60624333D01*
X95185666Y-60657666D01*
X95219000Y-60691000D01*
X95252333Y-60757666D01*
X95252333Y-60924333D01*
X95219000Y-61024333D01*
X94552333Y-61324333D02*
X95252333Y-61324333D01*
X95252333Y-61591000D01*
X95219000Y-61657666D01*
X95185666Y-61691000D01*
X95119000Y-61724333D01*
X95019000Y-61724333D01*
X94952333Y-61691000D01*
X94919000Y-61657666D01*
X94885666Y-61591000D01*
X94885666Y-61324333D01*
X94552333Y-62024333D02*
X95252333Y-62024333D01*
X94552333Y-57863666D02*
X95252333Y-57863666D01*
X95185666Y-58163666D02*
X95219000Y-58197000D01*
X95252333Y-58263666D01*
X95252333Y-58430333D01*
X95219000Y-58497000D01*
X95185666Y-58530333D01*
X95119000Y-58563666D01*
X95052333Y-58563666D01*
X94952333Y-58530333D01*
X94552333Y-58130333D01*
X94552333Y-58563666D01*
X94619000Y-59263666D02*
X94585666Y-59230333D01*
X94552333Y-59130333D01*
X94552333Y-59063666D01*
X94585666Y-58963666D01*
X94652333Y-58897000D01*
X94719000Y-58863666D01*
X94852333Y-58830333D01*
X94952333Y-58830333D01*
X95085666Y-58863666D01*
X95152333Y-58897000D01*
X95219000Y-58963666D01*
X95252333Y-59063666D01*
X95252333Y-59130333D01*
X95219000Y-59230333D01*
X95185666Y-59263666D01*
D11*
X93980000Y-58547000D02*
X93980000Y-58166000D01*
X95504000Y-57531000D02*
X95758000Y-57531000D01*
X94234000Y-60071000D02*
X95504000Y-60071000D01*
X95758000Y-59436000D02*
X95758000Y-59817000D01*
X95758000Y-59182000D02*
X95504000Y-59182000D01*
X95504000Y-58801000D02*
X95758000Y-58801000D01*
X93980000Y-58801000D02*
X94234000Y-58801000D01*
X93980000Y-59436000D02*
X94234000Y-59436000D01*
X95504000Y-59436000D02*
X95758000Y-59436000D01*
X94234000Y-59817000D02*
X93980000Y-59817000D01*
X93980000Y-59182000D02*
X93980000Y-58801000D01*
X93980000Y-57912000D02*
X93980000Y-57531000D01*
X95504000Y-58166000D02*
X95758000Y-58166000D01*
X95758000Y-58801000D02*
X95758000Y-59182000D01*
X93980000Y-57531000D02*
X94234000Y-57531000D01*
X95504000Y-57277000D02*
X94234000Y-57277000D01*
X94234000Y-57912000D02*
X93980000Y-57912000D01*
X95758000Y-59817000D02*
X95504000Y-59817000D01*
X94488000Y-60071000D02*
G75*
G02*
X95250000Y-60071000I381000J0D01*
G01*
X95758000Y-57912000D02*
X95504000Y-57912000D01*
X95758000Y-58166000D02*
X95758000Y-58547000D01*
X95758000Y-57531000D02*
X95758000Y-57912000D01*
X93980000Y-58166000D02*
X94234000Y-58166000D01*
X94234000Y-58547000D02*
X93980000Y-58547000D01*
X95504000Y-60071000D02*
X95504000Y-57277000D01*
X94234000Y-59182000D02*
X93980000Y-59182000D01*
X95758000Y-58547000D02*
X95504000Y-58547000D01*
X93980000Y-59817000D02*
X93980000Y-59436000D01*
X94234000Y-57277000D02*
X94234000Y-60071000D01*
X94488000Y-62865000D02*
G75*
G02*
X95250000Y-62865000I381000J0D01*
G01*
X95758000Y-61595000D02*
X95758000Y-61976000D01*
X95758000Y-61341000D02*
X95504000Y-61341000D01*
X95758000Y-60706000D02*
X95504000Y-60706000D01*
X95504000Y-60325000D02*
X95758000Y-60325000D01*
X95758000Y-60960000D02*
X95758000Y-61341000D01*
X95758000Y-62230000D02*
X95758000Y-62611000D01*
X95758000Y-62611000D02*
X95504000Y-62611000D01*
X95504000Y-62230000D02*
X95758000Y-62230000D01*
X95758000Y-61976000D02*
X95504000Y-61976000D01*
X95504000Y-61595000D02*
X95758000Y-61595000D01*
X95504000Y-60960000D02*
X95758000Y-60960000D01*
X95758000Y-60325000D02*
X95758000Y-60706000D01*
X95504000Y-60071000D02*
X94234000Y-60071000D01*
X95504000Y-62865000D02*
X95504000Y-60071000D01*
X94234000Y-62865000D02*
X95504000Y-62865000D01*
X94234000Y-60071000D02*
X94234000Y-62865000D01*
X93980000Y-60325000D02*
X94234000Y-60325000D01*
X94234000Y-60706000D02*
X93980000Y-60706000D01*
X93980000Y-60706000D02*
X93980000Y-60325000D01*
X93980000Y-60960000D02*
X94234000Y-60960000D01*
X94234000Y-61341000D02*
X93980000Y-61341000D01*
X93980000Y-61341000D02*
X93980000Y-60960000D01*
X93980000Y-61595000D02*
X94234000Y-61595000D01*
X94234000Y-61976000D02*
X93980000Y-61976000D01*
X93980000Y-61976000D02*
X93980000Y-61595000D01*
X93980000Y-62230000D02*
X94234000Y-62230000D01*
X93980000Y-62611000D02*
X93980000Y-62230000D01*
X94234000Y-62611000D02*
X93980000Y-62611000D01*
D10*
X96495619Y-65072047D02*
X95495619Y-65405380D01*
X96495619Y-65738714D01*
X95543238Y-66786333D02*
X95495619Y-66929190D01*
X95495619Y-67167285D01*
X95543238Y-67262523D01*
X95590857Y-67310142D01*
X95686095Y-67357761D01*
X95781333Y-67357761D01*
X95876571Y-67310142D01*
X95924190Y-67262523D01*
X95971809Y-67167285D01*
X96019428Y-66976809D01*
X96067047Y-66881571D01*
X96114666Y-66833952D01*
X96209904Y-66786333D01*
X96305142Y-66786333D01*
X96400380Y-66833952D01*
X96448000Y-66881571D01*
X96495619Y-66976809D01*
X96495619Y-67214904D01*
X96448000Y-67357761D01*
X96019428Y-67786333D02*
X96019428Y-68119666D01*
X95495619Y-68262523D02*
X95495619Y-67786333D01*
X96495619Y-67786333D01*
X96495619Y-68262523D01*
X95495619Y-69167285D02*
X95495619Y-68691095D01*
X96495619Y-68691095D01*
X96019428Y-69500619D02*
X96019428Y-69833952D01*
X95495619Y-69976809D02*
X95495619Y-69500619D01*
X96495619Y-69500619D01*
X96495619Y-69976809D01*
X95590857Y-70976809D02*
X95543238Y-70929190D01*
X95495619Y-70786333D01*
X95495619Y-70691095D01*
X95543238Y-70548238D01*
X95638476Y-70453000D01*
X95733714Y-70405380D01*
X95924190Y-70357761D01*
X96067047Y-70357761D01*
X96257523Y-70405380D01*
X96352761Y-70453000D01*
X96448000Y-70548238D01*
X96495619Y-70691095D01*
X96495619Y-70786333D01*
X96448000Y-70929190D01*
X96400380Y-70976809D01*
X96495619Y-71262523D02*
X96495619Y-71833952D01*
X95495619Y-71548238D02*
X96495619Y-71548238D01*
X94845619Y-64691095D02*
X94845619Y-65310142D01*
X94464666Y-64976809D01*
X94464666Y-65119666D01*
X94417047Y-65214904D01*
X94369428Y-65262523D01*
X94274190Y-65310142D01*
X94036095Y-65310142D01*
X93940857Y-65262523D01*
X93893238Y-65214904D01*
X93845619Y-65119666D01*
X93845619Y-64833952D01*
X93893238Y-64738714D01*
X93940857Y-64691095D01*
X93940857Y-65738714D02*
X93893238Y-65786333D01*
X93845619Y-65738714D01*
X93893238Y-65691095D01*
X93940857Y-65738714D01*
X93845619Y-65738714D01*
X94845619Y-66119666D02*
X94845619Y-66738714D01*
X94464666Y-66405380D01*
X94464666Y-66548238D01*
X94417047Y-66643476D01*
X94369428Y-66691095D01*
X94274190Y-66738714D01*
X94036095Y-66738714D01*
X93940857Y-66691095D01*
X93893238Y-66643476D01*
X93845619Y-66548238D01*
X93845619Y-66262523D01*
X93893238Y-66167285D01*
X93940857Y-66119666D01*
X94845619Y-67024428D02*
X93845619Y-67357761D01*
X94845619Y-67691095D01*
X94226571Y-68786333D02*
X94226571Y-69548238D01*
X94845619Y-71262523D02*
X94845619Y-70786333D01*
X94369428Y-70738714D01*
X94417047Y-70786333D01*
X94464666Y-70881571D01*
X94464666Y-71119666D01*
X94417047Y-71214904D01*
X94369428Y-71262523D01*
X94274190Y-71310142D01*
X94036095Y-71310142D01*
X93940857Y-71262523D01*
X93893238Y-71214904D01*
X93845619Y-71119666D01*
X93845619Y-70881571D01*
X93893238Y-70786333D01*
X93940857Y-70738714D01*
X94845619Y-71595857D02*
X93845619Y-71929190D01*
X94845619Y-72262523D01*
D11*
%TO.C,J5*%
X96326000Y-81848000D02*
X94996000Y-81848000D01*
X96326000Y-80518000D02*
X96326000Y-81848000D01*
X96326000Y-79248000D02*
X93666000Y-79248000D01*
X93666000Y-79248000D02*
X93666000Y-74108000D01*
X96326000Y-79248000D02*
X96326000Y-74108000D01*
X96326000Y-74108000D02*
X93666000Y-74108000D01*
%TO.C,C2*%
X96936779Y-101471000D02*
X96611221Y-101471000D01*
X96936779Y-102491000D02*
X96611221Y-102491000D01*
%TO.C,C1*%
X96911279Y-103757000D02*
X96585721Y-103757000D01*
X96911279Y-104777000D02*
X96585721Y-104777000D01*
%TO.C,D1*%
X95858000Y-110959000D02*
X95858000Y-108674000D01*
X94388000Y-110959000D02*
X95858000Y-110959000D01*
X94388000Y-108674000D02*
X94388000Y-110959000D01*
%TO.C,D2*%
X114073000Y-108674000D02*
X114073000Y-110959000D01*
X114073000Y-110959000D02*
X115543000Y-110959000D01*
X115543000Y-110959000D02*
X115543000Y-108674000D01*
%TO.C,J3*%
X100378500Y-53657500D02*
G75*
G03*
X100378500Y-53657500I-2550000J0D01*
G01*
X98728500Y-53657500D02*
G75*
G03*
X98728500Y-53657500I-900000J0D01*
G01*
X97138500Y-56107500D02*
X97138500Y-84847500D01*
X97138500Y-84847500D02*
X112538500Y-84847500D01*
X112538500Y-84847500D02*
X112538500Y-49347500D01*
X112538500Y-49347500D02*
X97138500Y-49347500D01*
X97138500Y-49347500D02*
X97138500Y-51207500D01*
X99378500Y-49347500D02*
X99378500Y-51607500D01*
X96078500Y-61277500D02*
X96078500Y-58737500D01*
%TO.C,RN1*%
X112805000Y-102735000D02*
X112805000Y-101735000D01*
X109445000Y-102735000D02*
X109445000Y-101735000D01*
%TO.C,U1*%
X98643000Y-98571000D02*
X104653000Y-98571000D01*
X100893000Y-105391000D02*
X104653000Y-105391000D01*
X104653000Y-98571000D02*
X104653000Y-99831000D01*
X104653000Y-105391000D02*
X104653000Y-104131000D01*
%TO.C,U2*%
X93991500Y-95046000D02*
X93991500Y-96861000D01*
X93746500Y-95046000D02*
X93991500Y-95046000D01*
X93746500Y-91186000D02*
X93746500Y-95046000D01*
X93746500Y-87326000D02*
X93991500Y-87326000D01*
X93746500Y-91186000D02*
X93746500Y-87326000D01*
X111866500Y-95046000D02*
X111621500Y-95046000D01*
X111866500Y-91186000D02*
X111866500Y-95046000D01*
X111866500Y-87326000D02*
X111621500Y-87326000D01*
X111866500Y-91186000D02*
X111866500Y-87326000D01*
%TO.C,J4*%
X116011000Y-81848000D02*
X114681000Y-81848000D01*
X116011000Y-80518000D02*
X116011000Y-81848000D01*
X116011000Y-79248000D02*
X113351000Y-79248000D01*
X113351000Y-79248000D02*
X113351000Y-58868000D01*
X116011000Y-79248000D02*
X116011000Y-58868000D01*
X116011000Y-58868000D02*
X113351000Y-58868000D01*
%TO.C,J1*%
X109126500Y-110830500D02*
X109126500Y-110075500D01*
X98581500Y-114000500D02*
X98581500Y-115050500D01*
X110871500Y-114000500D02*
X110871500Y-115050500D01*
X109126500Y-110830500D02*
X100326500Y-110830500D01*
%TO.C,C3*%
X96620420Y-98935000D02*
X96901580Y-98935000D01*
X96620420Y-97915000D02*
X96901580Y-97915000D01*
%TO.C,R1*%
X111266500Y-105236742D02*
X111266500Y-105711258D01*
X110221500Y-105236742D02*
X110221500Y-105711258D01*
%TO.C,JP1*%
X107835000Y-100060000D02*
X107835000Y-98060000D01*
X110635000Y-100060000D02*
X107835000Y-100060000D01*
X110635000Y-98060000D02*
X110635000Y-100060000D01*
X107835000Y-98060000D02*
X110635000Y-98060000D01*
%TO.C,C5*%
X114533000Y-87102836D02*
X114533000Y-86887164D01*
X113813000Y-87102836D02*
X113813000Y-86887164D01*
%TO.C,C6*%
X114533000Y-95114164D02*
X114533000Y-95329836D01*
X113813000Y-95114164D02*
X113813000Y-95329836D01*
%TO.C,Y1*%
X112373000Y-88136000D02*
X112373000Y-93886000D01*
X115973000Y-88136000D02*
X112373000Y-88136000D01*
X115973000Y-93886000D02*
X115973000Y-88136000D01*
%TD*%
%TO.C,J5*%
D10*
X94662666Y-82300380D02*
X94662666Y-83014666D01*
X94615047Y-83157523D01*
X94519809Y-83252761D01*
X94376952Y-83300380D01*
X94281714Y-83300380D01*
X95615047Y-82300380D02*
X95138857Y-82300380D01*
X95091238Y-82776571D01*
X95138857Y-82728952D01*
X95234095Y-82681333D01*
X95472190Y-82681333D01*
X95567428Y-82728952D01*
X95615047Y-82776571D01*
X95662666Y-82871809D01*
X95662666Y-83109904D01*
X95615047Y-83205142D01*
X95567428Y-83252761D01*
X95472190Y-83300380D01*
X95234095Y-83300380D01*
X95138857Y-83252761D01*
X95091238Y-83205142D01*
%TO.C,C2*%
X94194333Y-102338142D02*
X94146714Y-102385761D01*
X94003857Y-102433380D01*
X93908619Y-102433380D01*
X93765761Y-102385761D01*
X93670523Y-102290523D01*
X93622904Y-102195285D01*
X93575285Y-102004809D01*
X93575285Y-101861952D01*
X93622904Y-101671476D01*
X93670523Y-101576238D01*
X93765761Y-101481000D01*
X93908619Y-101433380D01*
X94003857Y-101433380D01*
X94146714Y-101481000D01*
X94194333Y-101528619D01*
X94575285Y-101528619D02*
X94622904Y-101481000D01*
X94718142Y-101433380D01*
X94956238Y-101433380D01*
X95051476Y-101481000D01*
X95099095Y-101528619D01*
X95146714Y-101623857D01*
X95146714Y-101719095D01*
X95099095Y-101861952D01*
X94527666Y-102433380D01*
X95146714Y-102433380D01*
%TO.C,C1*%
X94194333Y-104751142D02*
X94146714Y-104798761D01*
X94003857Y-104846380D01*
X93908619Y-104846380D01*
X93765761Y-104798761D01*
X93670523Y-104703523D01*
X93622904Y-104608285D01*
X93575285Y-104417809D01*
X93575285Y-104274952D01*
X93622904Y-104084476D01*
X93670523Y-103989238D01*
X93765761Y-103894000D01*
X93908619Y-103846380D01*
X94003857Y-103846380D01*
X94146714Y-103894000D01*
X94194333Y-103941619D01*
X95146714Y-104846380D02*
X94575285Y-104846380D01*
X94861000Y-104846380D02*
X94861000Y-103846380D01*
X94765761Y-103989238D01*
X94670523Y-104084476D01*
X94575285Y-104132095D01*
%TO.C,U1*%
X105283095Y-104354380D02*
X105283095Y-105163904D01*
X105330714Y-105259142D01*
X105378333Y-105306761D01*
X105473571Y-105354380D01*
X105664047Y-105354380D01*
X105759285Y-105306761D01*
X105806904Y-105259142D01*
X105854523Y-105163904D01*
X105854523Y-104354380D01*
X106854523Y-105354380D02*
X106283095Y-105354380D01*
X106568809Y-105354380D02*
X106568809Y-104354380D01*
X106473571Y-104497238D01*
X106378333Y-104592476D01*
X106283095Y-104640095D01*
%TO.C,J4*%
X114347666Y-57110380D02*
X114347666Y-57824666D01*
X114300047Y-57967523D01*
X114204809Y-58062761D01*
X114061952Y-58110380D01*
X113966714Y-58110380D01*
X115252428Y-57443714D02*
X115252428Y-58110380D01*
X115014333Y-57062761D02*
X114776238Y-57777047D01*
X115395285Y-57777047D01*
%TO.C,J1*%
X98599666Y-108037380D02*
X98599666Y-108751666D01*
X98552047Y-108894523D01*
X98456809Y-108989761D01*
X98313952Y-109037380D01*
X98218714Y-109037380D01*
X99599666Y-109037380D02*
X99028238Y-109037380D01*
X99313952Y-109037380D02*
X99313952Y-108037380D01*
X99218714Y-108180238D01*
X99123476Y-108275476D01*
X99028238Y-108323095D01*
%TO.C,C3*%
X94194333Y-98782142D02*
X94146714Y-98829761D01*
X94003857Y-98877380D01*
X93908619Y-98877380D01*
X93765761Y-98829761D01*
X93670523Y-98734523D01*
X93622904Y-98639285D01*
X93575285Y-98448809D01*
X93575285Y-98305952D01*
X93622904Y-98115476D01*
X93670523Y-98020238D01*
X93765761Y-97925000D01*
X93908619Y-97877380D01*
X94003857Y-97877380D01*
X94146714Y-97925000D01*
X94194333Y-97972619D01*
X94527666Y-97877380D02*
X95146714Y-97877380D01*
X94813380Y-98258333D01*
X94956238Y-98258333D01*
X95051476Y-98305952D01*
X95099095Y-98353571D01*
X95146714Y-98448809D01*
X95146714Y-98686904D01*
X95099095Y-98782142D01*
X95051476Y-98829761D01*
X94956238Y-98877380D01*
X94670523Y-98877380D01*
X94575285Y-98829761D01*
X94527666Y-98782142D01*
%TO.C,R1*%
X112626380Y-105640666D02*
X112150190Y-105974000D01*
X112626380Y-106212095D02*
X111626380Y-106212095D01*
X111626380Y-105831142D01*
X111674000Y-105735904D01*
X111721619Y-105688285D01*
X111816857Y-105640666D01*
X111959714Y-105640666D01*
X112054952Y-105688285D01*
X112102571Y-105735904D01*
X112150190Y-105831142D01*
X112150190Y-106212095D01*
X112626380Y-104688285D02*
X112626380Y-105259714D01*
X112626380Y-104974000D02*
X111626380Y-104974000D01*
X111769238Y-105069238D01*
X111864476Y-105164476D01*
X111912095Y-105259714D01*
%TO.C,JP1*%
X111180666Y-98512380D02*
X111180666Y-99226666D01*
X111133047Y-99369523D01*
X111037809Y-99464761D01*
X110894952Y-99512380D01*
X110799714Y-99512380D01*
X111656857Y-99512380D02*
X111656857Y-98512380D01*
X112037809Y-98512380D01*
X112133047Y-98560000D01*
X112180666Y-98607619D01*
X112228285Y-98702857D01*
X112228285Y-98845714D01*
X112180666Y-98940952D01*
X112133047Y-98988571D01*
X112037809Y-99036190D01*
X111656857Y-99036190D01*
X113180666Y-99512380D02*
X112609238Y-99512380D01*
X112894952Y-99512380D02*
X112894952Y-98512380D01*
X112799714Y-98655238D01*
X112704476Y-98750476D01*
X112609238Y-98798095D01*
%TO.C,C5*%
X114657142Y-85002666D02*
X114704761Y-85050285D01*
X114752380Y-85193142D01*
X114752380Y-85288380D01*
X114704761Y-85431238D01*
X114609523Y-85526476D01*
X114514285Y-85574095D01*
X114323809Y-85621714D01*
X114180952Y-85621714D01*
X113990476Y-85574095D01*
X113895238Y-85526476D01*
X113800000Y-85431238D01*
X113752380Y-85288380D01*
X113752380Y-85193142D01*
X113800000Y-85050285D01*
X113847619Y-85002666D01*
X113752380Y-84097904D02*
X113752380Y-84574095D01*
X114228571Y-84621714D01*
X114180952Y-84574095D01*
X114133333Y-84478857D01*
X114133333Y-84240761D01*
X114180952Y-84145523D01*
X114228571Y-84097904D01*
X114323809Y-84050285D01*
X114561904Y-84050285D01*
X114657142Y-84097904D01*
X114704761Y-84145523D01*
X114752380Y-84240761D01*
X114752380Y-84478857D01*
X114704761Y-84574095D01*
X114657142Y-84621714D01*
%TO.C,C6*%
X114530142Y-97448666D02*
X114577761Y-97496285D01*
X114625380Y-97639142D01*
X114625380Y-97734380D01*
X114577761Y-97877238D01*
X114482523Y-97972476D01*
X114387285Y-98020095D01*
X114196809Y-98067714D01*
X114053952Y-98067714D01*
X113863476Y-98020095D01*
X113768238Y-97972476D01*
X113673000Y-97877238D01*
X113625380Y-97734380D01*
X113625380Y-97639142D01*
X113673000Y-97496285D01*
X113720619Y-97448666D01*
X113625380Y-96591523D02*
X113625380Y-96782000D01*
X113673000Y-96877238D01*
X113720619Y-96924857D01*
X113863476Y-97020095D01*
X114053952Y-97067714D01*
X114434904Y-97067714D01*
X114530142Y-97020095D01*
X114577761Y-96972476D01*
X114625380Y-96877238D01*
X114625380Y-96686761D01*
X114577761Y-96591523D01*
X114530142Y-96543904D01*
X114434904Y-96496285D01*
X114196809Y-96496285D01*
X114101571Y-96543904D01*
X114053952Y-96591523D01*
X114006333Y-96686761D01*
X114006333Y-96877238D01*
X114053952Y-96972476D01*
X114101571Y-97020095D01*
X114196809Y-97067714D01*
%TO.C,Y1*%
X115546190Y-87471190D02*
X116022380Y-87471190D01*
X115022380Y-87804523D02*
X115546190Y-87471190D01*
X115022380Y-87137857D01*
X116022380Y-86280714D02*
X116022380Y-86852142D01*
X116022380Y-86566428D02*
X115022380Y-86566428D01*
X115165238Y-86661666D01*
X115260476Y-86756904D01*
X115308095Y-86852142D01*
%TD*%
M02*
