%TF.GenerationSoftware,KiCad,Pcbnew,(5.1.8)-1*%
%TF.CreationDate,2021-03-12T16:38:44+01:00*%
%TF.ProjectId,CH341Apro,43483334-3141-4707-926f-2e6b69636164,rev?*%
%TF.SameCoordinates,Original*%
%TF.FileFunction,Legend,Top*%
%TF.FilePolarity,Positive*%
%FSLAX46Y46*%
G04 Gerber Fmt 4.6, Leading zero omitted, Abs format (unit mm)*
G04 Created by KiCad (PCBNEW (5.1.8)-1) date 2021-03-12 16:38:44*
%MOMM*%
%LPD*%
G01*
G04 APERTURE LIST*
%ADD10C,0.150000*%
%ADD11C,0.120000*%
G04 APERTURE END LIST*
D10*
X109457571Y-47902857D02*
X109505190Y-47855238D01*
X109648047Y-47807619D01*
X109743285Y-47807619D01*
X109886142Y-47855238D01*
X109981380Y-47950476D01*
X110029000Y-48045714D01*
X110076619Y-48236190D01*
X110076619Y-48379047D01*
X110029000Y-48569523D01*
X109981380Y-48664761D01*
X109886142Y-48760000D01*
X109743285Y-48807619D01*
X109648047Y-48807619D01*
X109505190Y-48760000D01*
X109457571Y-48712380D01*
X109029000Y-47807619D02*
X109029000Y-48807619D01*
X109029000Y-48331428D02*
X108457571Y-48331428D01*
X108457571Y-47807619D02*
X108457571Y-48807619D01*
X108076619Y-48807619D02*
X107457571Y-48807619D01*
X107790904Y-48426666D01*
X107648047Y-48426666D01*
X107552809Y-48379047D01*
X107505190Y-48331428D01*
X107457571Y-48236190D01*
X107457571Y-47998095D01*
X107505190Y-47902857D01*
X107552809Y-47855238D01*
X107648047Y-47807619D01*
X107933761Y-47807619D01*
X108029000Y-47855238D01*
X108076619Y-47902857D01*
X106600428Y-48474285D02*
X106600428Y-47807619D01*
X106838523Y-48855238D02*
X107076619Y-48140952D01*
X106457571Y-48140952D01*
X105552809Y-47807619D02*
X106124238Y-47807619D01*
X105838523Y-47807619D02*
X105838523Y-48807619D01*
X105933761Y-48664761D01*
X106029000Y-48569523D01*
X106124238Y-48521904D01*
X105171857Y-48093333D02*
X104695666Y-48093333D01*
X105267095Y-47807619D02*
X104933761Y-48807619D01*
X104600428Y-47807619D01*
X104267095Y-48188571D02*
X103505190Y-48188571D01*
X103029000Y-47807619D02*
X103029000Y-48807619D01*
X102648047Y-48807619D01*
X102552809Y-48760000D01*
X102505190Y-48712380D01*
X102457571Y-48617142D01*
X102457571Y-48474285D01*
X102505190Y-48379047D01*
X102552809Y-48331428D01*
X102648047Y-48283809D01*
X103029000Y-48283809D01*
X102029000Y-47807619D02*
X102029000Y-48474285D01*
X102029000Y-48283809D02*
X101981380Y-48379047D01*
X101933761Y-48426666D01*
X101838523Y-48474285D01*
X101743285Y-48474285D01*
X101267095Y-47807619D02*
X101362333Y-47855238D01*
X101409952Y-47902857D01*
X101457571Y-47998095D01*
X101457571Y-48283809D01*
X101409952Y-48379047D01*
X101362333Y-48426666D01*
X101267095Y-48474285D01*
X101124238Y-48474285D01*
X101029000Y-48426666D01*
X100981380Y-48379047D01*
X100933761Y-48283809D01*
X100933761Y-47998095D01*
X100981380Y-47902857D01*
X101029000Y-47855238D01*
X101124238Y-47807619D01*
X101267095Y-47807619D01*
X100552809Y-48712380D02*
X100505190Y-48760000D01*
X100409952Y-48807619D01*
X100171857Y-48807619D01*
X100076619Y-48760000D01*
X100029000Y-48712380D01*
X99981380Y-48617142D01*
X99981380Y-48521904D01*
X100029000Y-48379047D01*
X100600428Y-47807619D01*
X99981380Y-47807619D01*
X114270666Y-55798333D02*
X114237333Y-55898333D01*
X114237333Y-56065000D01*
X114270666Y-56131666D01*
X114304000Y-56165000D01*
X114370666Y-56198333D01*
X114437333Y-56198333D01*
X114504000Y-56165000D01*
X114537333Y-56131666D01*
X114570666Y-56065000D01*
X114604000Y-55931666D01*
X114637333Y-55865000D01*
X114670666Y-55831666D01*
X114737333Y-55798333D01*
X114804000Y-55798333D01*
X114870666Y-55831666D01*
X114904000Y-55865000D01*
X114937333Y-55931666D01*
X114937333Y-56098333D01*
X114904000Y-56198333D01*
X114237333Y-56498333D02*
X114937333Y-56498333D01*
X114937333Y-56765000D01*
X114904000Y-56831666D01*
X114870666Y-56865000D01*
X114804000Y-56898333D01*
X114704000Y-56898333D01*
X114637333Y-56865000D01*
X114604000Y-56831666D01*
X114570666Y-56765000D01*
X114570666Y-56498333D01*
X114237333Y-57198333D02*
X114937333Y-57198333D01*
X114237333Y-53037666D02*
X114937333Y-53037666D01*
X114870666Y-53337666D02*
X114904000Y-53371000D01*
X114937333Y-53437666D01*
X114937333Y-53604333D01*
X114904000Y-53671000D01*
X114870666Y-53704333D01*
X114804000Y-53737666D01*
X114737333Y-53737666D01*
X114637333Y-53704333D01*
X114237333Y-53304333D01*
X114237333Y-53737666D01*
X114304000Y-54437666D02*
X114270666Y-54404333D01*
X114237333Y-54304333D01*
X114237333Y-54237666D01*
X114270666Y-54137666D01*
X114337333Y-54071000D01*
X114404000Y-54037666D01*
X114537333Y-54004333D01*
X114637333Y-54004333D01*
X114770666Y-54037666D01*
X114837333Y-54071000D01*
X114904000Y-54137666D01*
X114937333Y-54237666D01*
X114937333Y-54304333D01*
X114904000Y-54404333D01*
X114870666Y-54437666D01*
D11*
X113665000Y-53721000D02*
X113665000Y-53340000D01*
X115189000Y-52705000D02*
X115443000Y-52705000D01*
X113919000Y-55245000D02*
X115189000Y-55245000D01*
X115443000Y-54610000D02*
X115443000Y-54991000D01*
X115443000Y-54356000D02*
X115189000Y-54356000D01*
X115189000Y-53975000D02*
X115443000Y-53975000D01*
X113665000Y-53975000D02*
X113919000Y-53975000D01*
X113665000Y-54610000D02*
X113919000Y-54610000D01*
X115189000Y-54610000D02*
X115443000Y-54610000D01*
X113919000Y-54991000D02*
X113665000Y-54991000D01*
X113665000Y-54356000D02*
X113665000Y-53975000D01*
X113665000Y-53086000D02*
X113665000Y-52705000D01*
X115189000Y-53340000D02*
X115443000Y-53340000D01*
X115443000Y-53975000D02*
X115443000Y-54356000D01*
X113665000Y-52705000D02*
X113919000Y-52705000D01*
X115189000Y-52451000D02*
X113919000Y-52451000D01*
X113919000Y-53086000D02*
X113665000Y-53086000D01*
X115443000Y-54991000D02*
X115189000Y-54991000D01*
X114173000Y-55245000D02*
G75*
G02*
X114935000Y-55245000I381000J0D01*
G01*
X115443000Y-53086000D02*
X115189000Y-53086000D01*
X115443000Y-53340000D02*
X115443000Y-53721000D01*
X115443000Y-52705000D02*
X115443000Y-53086000D01*
X113665000Y-53340000D02*
X113919000Y-53340000D01*
X113919000Y-53721000D02*
X113665000Y-53721000D01*
X115189000Y-55245000D02*
X115189000Y-52451000D01*
X113919000Y-54356000D02*
X113665000Y-54356000D01*
X115443000Y-53721000D02*
X115189000Y-53721000D01*
X113665000Y-54991000D02*
X113665000Y-54610000D01*
X113919000Y-52451000D02*
X113919000Y-55245000D01*
X114173000Y-58039000D02*
G75*
G02*
X114935000Y-58039000I381000J0D01*
G01*
X115443000Y-56769000D02*
X115443000Y-57150000D01*
X115443000Y-56515000D02*
X115189000Y-56515000D01*
X115443000Y-55880000D02*
X115189000Y-55880000D01*
X115189000Y-55499000D02*
X115443000Y-55499000D01*
X115443000Y-56134000D02*
X115443000Y-56515000D01*
X115443000Y-57404000D02*
X115443000Y-57785000D01*
X115443000Y-57785000D02*
X115189000Y-57785000D01*
X115189000Y-57404000D02*
X115443000Y-57404000D01*
X115443000Y-57150000D02*
X115189000Y-57150000D01*
X115189000Y-56769000D02*
X115443000Y-56769000D01*
X115189000Y-56134000D02*
X115443000Y-56134000D01*
X115443000Y-55499000D02*
X115443000Y-55880000D01*
X115189000Y-55245000D02*
X113919000Y-55245000D01*
X115189000Y-58039000D02*
X115189000Y-55245000D01*
X113919000Y-58039000D02*
X115189000Y-58039000D01*
X113919000Y-55245000D02*
X113919000Y-58039000D01*
X113665000Y-55499000D02*
X113919000Y-55499000D01*
X113919000Y-55880000D02*
X113665000Y-55880000D01*
X113665000Y-55880000D02*
X113665000Y-55499000D01*
X113665000Y-56134000D02*
X113919000Y-56134000D01*
X113919000Y-56515000D02*
X113665000Y-56515000D01*
X113665000Y-56515000D02*
X113665000Y-56134000D01*
X113665000Y-56769000D02*
X113919000Y-56769000D01*
X113919000Y-57150000D02*
X113665000Y-57150000D01*
X113665000Y-57150000D02*
X113665000Y-56769000D01*
X113665000Y-57404000D02*
X113919000Y-57404000D01*
X113665000Y-57785000D02*
X113665000Y-57404000D01*
X113919000Y-57785000D02*
X113665000Y-57785000D01*
D10*
X95855095Y-57072285D02*
X95855095Y-57691333D01*
X95550333Y-57358000D01*
X95550333Y-57500857D01*
X95512238Y-57596095D01*
X95474142Y-57643714D01*
X95397952Y-57691333D01*
X95207476Y-57691333D01*
X95131285Y-57643714D01*
X95093190Y-57596095D01*
X95055095Y-57500857D01*
X95055095Y-57215142D01*
X95093190Y-57119904D01*
X95131285Y-57072285D01*
X95855095Y-57977047D02*
X95055095Y-58310380D01*
X95855095Y-58643714D01*
X95855095Y-58881809D02*
X95855095Y-59500857D01*
X95550333Y-59167523D01*
X95550333Y-59310380D01*
X95512238Y-59405619D01*
X95474142Y-59453238D01*
X95397952Y-59500857D01*
X95207476Y-59500857D01*
X95131285Y-59453238D01*
X95093190Y-59405619D01*
X95055095Y-59310380D01*
X95055095Y-59024666D01*
X95093190Y-58929428D01*
X95131285Y-58881809D01*
X95055095Y-60691333D02*
X95855095Y-60691333D01*
X95283666Y-61024666D01*
X95855095Y-61358000D01*
X95055095Y-61358000D01*
X95055095Y-61977047D02*
X95093190Y-61881809D01*
X95131285Y-61834190D01*
X95207476Y-61786571D01*
X95436047Y-61786571D01*
X95512238Y-61834190D01*
X95550333Y-61881809D01*
X95588428Y-61977047D01*
X95588428Y-62119904D01*
X95550333Y-62215142D01*
X95512238Y-62262761D01*
X95436047Y-62310380D01*
X95207476Y-62310380D01*
X95131285Y-62262761D01*
X95093190Y-62215142D01*
X95055095Y-62119904D01*
X95055095Y-61977047D01*
X95055095Y-63167523D02*
X95855095Y-63167523D01*
X95093190Y-63167523D02*
X95055095Y-63072285D01*
X95055095Y-62881809D01*
X95093190Y-62786571D01*
X95131285Y-62738952D01*
X95207476Y-62691333D01*
X95436047Y-62691333D01*
X95512238Y-62738952D01*
X95550333Y-62786571D01*
X95588428Y-62881809D01*
X95588428Y-63072285D01*
X95550333Y-63167523D01*
X95093190Y-64024666D02*
X95055095Y-63929428D01*
X95055095Y-63738952D01*
X95093190Y-63643714D01*
X95169380Y-63596095D01*
X95474142Y-63596095D01*
X95550333Y-63643714D01*
X95588428Y-63738952D01*
X95588428Y-63929428D01*
X95550333Y-64024666D01*
X95474142Y-64072285D01*
X95397952Y-64072285D01*
X95321761Y-63596095D01*
X95359857Y-65262761D02*
X95359857Y-66024666D01*
X95855095Y-67548476D02*
X95283666Y-67548476D01*
X95169380Y-67500857D01*
X95093190Y-67405619D01*
X95055095Y-67262761D01*
X95055095Y-67167523D01*
X95055095Y-68024666D02*
X95855095Y-68024666D01*
X95855095Y-68405619D01*
X95817000Y-68500857D01*
X95778904Y-68548476D01*
X95702714Y-68596095D01*
X95588428Y-68596095D01*
X95512238Y-68548476D01*
X95474142Y-68500857D01*
X95436047Y-68405619D01*
X95436047Y-68024666D01*
X95055095Y-69548476D02*
X95055095Y-68977047D01*
X95055095Y-69262761D02*
X95855095Y-69262761D01*
X95740809Y-69167523D01*
X95664619Y-69072285D01*
X95626523Y-68977047D01*
X95131285Y-71310380D02*
X95093190Y-71262761D01*
X95055095Y-71119904D01*
X95055095Y-71024666D01*
X95093190Y-70881809D01*
X95169380Y-70786571D01*
X95245571Y-70738952D01*
X95397952Y-70691333D01*
X95512238Y-70691333D01*
X95664619Y-70738952D01*
X95740809Y-70786571D01*
X95817000Y-70881809D01*
X95855095Y-71024666D01*
X95855095Y-71119904D01*
X95817000Y-71262761D01*
X95778904Y-71310380D01*
X95055095Y-71881809D02*
X95093190Y-71786571D01*
X95169380Y-71738952D01*
X95855095Y-71738952D01*
X95055095Y-72405619D02*
X95093190Y-72310380D01*
X95131285Y-72262761D01*
X95207476Y-72215142D01*
X95436047Y-72215142D01*
X95512238Y-72262761D01*
X95550333Y-72310380D01*
X95588428Y-72405619D01*
X95588428Y-72548476D01*
X95550333Y-72643714D01*
X95512238Y-72691333D01*
X95436047Y-72738952D01*
X95207476Y-72738952D01*
X95131285Y-72691333D01*
X95093190Y-72643714D01*
X95055095Y-72548476D01*
X95055095Y-72405619D01*
X95093190Y-73119904D02*
X95055095Y-73215142D01*
X95055095Y-73405619D01*
X95093190Y-73500857D01*
X95169380Y-73548476D01*
X95207476Y-73548476D01*
X95283666Y-73500857D01*
X95321761Y-73405619D01*
X95321761Y-73262761D01*
X95359857Y-73167523D01*
X95436047Y-73119904D01*
X95474142Y-73119904D01*
X95550333Y-73167523D01*
X95588428Y-73262761D01*
X95588428Y-73405619D01*
X95550333Y-73500857D01*
X95093190Y-74358000D02*
X95055095Y-74262761D01*
X95055095Y-74072285D01*
X95093190Y-73977047D01*
X95169380Y-73929428D01*
X95474142Y-73929428D01*
X95550333Y-73977047D01*
X95588428Y-74072285D01*
X95588428Y-74262761D01*
X95550333Y-74358000D01*
X95474142Y-74405619D01*
X95397952Y-74405619D01*
X95321761Y-73929428D01*
X95893190Y-76310380D02*
X94864619Y-75453238D01*
X95855095Y-77691333D02*
X95283666Y-77691333D01*
X95169380Y-77643714D01*
X95093190Y-77548476D01*
X95055095Y-77405619D01*
X95055095Y-77310380D01*
X95055095Y-78167523D02*
X95855095Y-78167523D01*
X95855095Y-78548476D01*
X95817000Y-78643714D01*
X95778904Y-78691333D01*
X95702714Y-78738952D01*
X95588428Y-78738952D01*
X95512238Y-78691333D01*
X95474142Y-78643714D01*
X95436047Y-78548476D01*
X95436047Y-78167523D01*
X95778904Y-79119904D02*
X95817000Y-79167523D01*
X95855095Y-79262761D01*
X95855095Y-79500857D01*
X95817000Y-79596095D01*
X95778904Y-79643714D01*
X95702714Y-79691333D01*
X95626523Y-79691333D01*
X95512238Y-79643714D01*
X95055095Y-79072285D01*
X95055095Y-79691333D01*
X95778904Y-80834190D02*
X95817000Y-80881809D01*
X95855095Y-80977047D01*
X95855095Y-81215142D01*
X95817000Y-81310380D01*
X95778904Y-81357999D01*
X95702714Y-81405619D01*
X95626523Y-81405619D01*
X95512238Y-81357999D01*
X95055095Y-80786571D01*
X95055095Y-81405619D01*
X95359857Y-81834190D02*
X95359857Y-82596095D01*
X95855095Y-82977047D02*
X95855095Y-83596095D01*
X95550333Y-83262761D01*
X95550333Y-83405619D01*
X95512238Y-83500857D01*
X95474142Y-83548476D01*
X95397952Y-83596095D01*
X95207476Y-83596095D01*
X95131285Y-83548476D01*
X95093190Y-83500857D01*
X95055095Y-83405619D01*
X95055095Y-83119904D01*
X95093190Y-83024666D01*
X95131285Y-82977047D01*
X94505095Y-57929428D02*
X94505095Y-57453238D01*
X94124142Y-57405619D01*
X94162238Y-57453238D01*
X94200333Y-57548476D01*
X94200333Y-57786571D01*
X94162238Y-57881809D01*
X94124142Y-57929428D01*
X94047952Y-57977047D01*
X93857476Y-57977047D01*
X93781285Y-57929428D01*
X93743190Y-57881809D01*
X93705095Y-57786571D01*
X93705095Y-57548476D01*
X93743190Y-57453238D01*
X93781285Y-57405619D01*
X94505095Y-58262761D02*
X93705095Y-58596095D01*
X94505095Y-58929428D01*
X93705095Y-60024666D02*
X94505095Y-60024666D01*
X93933666Y-60358000D01*
X94505095Y-60691333D01*
X93705095Y-60691333D01*
X93705095Y-61310380D02*
X93743190Y-61215142D01*
X93781285Y-61167523D01*
X93857476Y-61119904D01*
X94086047Y-61119904D01*
X94162238Y-61167523D01*
X94200333Y-61215142D01*
X94238428Y-61310380D01*
X94238428Y-61453238D01*
X94200333Y-61548476D01*
X94162238Y-61596095D01*
X94086047Y-61643714D01*
X93857476Y-61643714D01*
X93781285Y-61596095D01*
X93743190Y-61548476D01*
X93705095Y-61453238D01*
X93705095Y-61310380D01*
X93705095Y-62500857D02*
X94505095Y-62500857D01*
X93743190Y-62500857D02*
X93705095Y-62405619D01*
X93705095Y-62215142D01*
X93743190Y-62119904D01*
X93781285Y-62072285D01*
X93857476Y-62024666D01*
X94086047Y-62024666D01*
X94162238Y-62072285D01*
X94200333Y-62119904D01*
X94238428Y-62215142D01*
X94238428Y-62405619D01*
X94200333Y-62500857D01*
X93743190Y-63358000D02*
X93705095Y-63262761D01*
X93705095Y-63072285D01*
X93743190Y-62977047D01*
X93819380Y-62929428D01*
X94124142Y-62929428D01*
X94200333Y-62977047D01*
X94238428Y-63072285D01*
X94238428Y-63262761D01*
X94200333Y-63358000D01*
X94124142Y-63405619D01*
X94047952Y-63405619D01*
X93971761Y-62929428D01*
X94009857Y-65358000D02*
X94009857Y-66119904D01*
X94505095Y-67643714D02*
X93933666Y-67643714D01*
X93819380Y-67596095D01*
X93743190Y-67500857D01*
X93705095Y-67358000D01*
X93705095Y-67262761D01*
X93705095Y-68119904D02*
X94505095Y-68119904D01*
X94505095Y-68500857D01*
X94467000Y-68596095D01*
X94428904Y-68643714D01*
X94352714Y-68691333D01*
X94238428Y-68691333D01*
X94162238Y-68643714D01*
X94124142Y-68596095D01*
X94086047Y-68500857D01*
X94086047Y-68119904D01*
X93705095Y-69643714D02*
X93705095Y-69072285D01*
X93705095Y-69358000D02*
X94505095Y-69358000D01*
X94390809Y-69262761D01*
X94314619Y-69167523D01*
X94276523Y-69072285D01*
X94505095Y-71024666D02*
X94505095Y-71215142D01*
X94467000Y-71310380D01*
X94390809Y-71405619D01*
X94238428Y-71453238D01*
X93971761Y-71453238D01*
X93819380Y-71405619D01*
X93743190Y-71310380D01*
X93705095Y-71215142D01*
X93705095Y-71024666D01*
X93743190Y-70929428D01*
X93819380Y-70834190D01*
X93971761Y-70786571D01*
X94238428Y-70786571D01*
X94390809Y-70834190D01*
X94467000Y-70929428D01*
X94505095Y-71024666D01*
X94238428Y-71881809D02*
X93438428Y-71881809D01*
X94200333Y-71881809D02*
X94238428Y-71977047D01*
X94238428Y-72167523D01*
X94200333Y-72262761D01*
X94162238Y-72310380D01*
X94086047Y-72357999D01*
X93857476Y-72357999D01*
X93781285Y-72310380D01*
X93743190Y-72262761D01*
X93705095Y-72167523D01*
X93705095Y-71977047D01*
X93743190Y-71881809D01*
X93743190Y-73167523D02*
X93705095Y-73072285D01*
X93705095Y-72881809D01*
X93743190Y-72786571D01*
X93819380Y-72738952D01*
X94124142Y-72738952D01*
X94200333Y-72786571D01*
X94238428Y-72881809D01*
X94238428Y-73072285D01*
X94200333Y-73167523D01*
X94124142Y-73215142D01*
X94047952Y-73215142D01*
X93971761Y-72738952D01*
X94238428Y-73643714D02*
X93705095Y-73643714D01*
X94162238Y-73643714D02*
X94200333Y-73691333D01*
X94238428Y-73786571D01*
X94238428Y-73929428D01*
X94200333Y-74024666D01*
X94124142Y-74072285D01*
X93705095Y-74072285D01*
X94543190Y-76024666D02*
X93514619Y-75167523D01*
X94505095Y-77405619D02*
X93933666Y-77405619D01*
X93819380Y-77357999D01*
X93743190Y-77262761D01*
X93705095Y-77119904D01*
X93705095Y-77024666D01*
X93705095Y-77881809D02*
X94505095Y-77881809D01*
X94505095Y-78262761D01*
X94467000Y-78357999D01*
X94428904Y-78405619D01*
X94352714Y-78453238D01*
X94238428Y-78453238D01*
X94162238Y-78405619D01*
X94124142Y-78357999D01*
X94086047Y-78262761D01*
X94086047Y-77881809D01*
X94428904Y-78834190D02*
X94467000Y-78881809D01*
X94505095Y-78977047D01*
X94505095Y-79215142D01*
X94467000Y-79310380D01*
X94428904Y-79357999D01*
X94352714Y-79405619D01*
X94276523Y-79405619D01*
X94162238Y-79357999D01*
X93705095Y-78786571D01*
X93705095Y-79405619D01*
X93705095Y-81119904D02*
X93705095Y-80548476D01*
X93705095Y-80834190D02*
X94505095Y-80834190D01*
X94390809Y-80738952D01*
X94314619Y-80643714D01*
X94276523Y-80548476D01*
X94009857Y-81548476D02*
X94009857Y-82310380D01*
X94428904Y-82738952D02*
X94467000Y-82786571D01*
X94505095Y-82881809D01*
X94505095Y-83119904D01*
X94467000Y-83215142D01*
X94428904Y-83262761D01*
X94352714Y-83310380D01*
X94276523Y-83310380D01*
X94162238Y-83262761D01*
X93705095Y-82691333D01*
X93705095Y-83310380D01*
D11*
%TO.C,JP2*%
X95012000Y-104524000D02*
X95012000Y-101724000D01*
X95712000Y-101074000D02*
X96312000Y-101074000D01*
X97012000Y-101724000D02*
X97012000Y-104524000D01*
X96312000Y-105174000D02*
X95712000Y-105174000D01*
X95012000Y-101774000D02*
G75*
G02*
X95712000Y-101074000I700000J0D01*
G01*
X96312000Y-101074000D02*
G75*
G02*
X97012000Y-101774000I0J-700000D01*
G01*
X97012000Y-104474000D02*
G75*
G02*
X96312000Y-105174000I-700000J0D01*
G01*
X95712000Y-105174000D02*
G75*
G02*
X95012000Y-104474000I0J700000D01*
G01*
%TO.C,J3*%
X100378500Y-53657500D02*
G75*
G03*
X100378500Y-53657500I-2550000J0D01*
G01*
X98728500Y-53657500D02*
G75*
G03*
X98728500Y-53657500I-900000J0D01*
G01*
X97138500Y-56107500D02*
X97138500Y-84847500D01*
X97138500Y-84847500D02*
X112538500Y-84847500D01*
X112538500Y-84847500D02*
X112538500Y-49347500D01*
X112538500Y-49347500D02*
X97138500Y-49347500D01*
X97138500Y-49347500D02*
X97138500Y-51207500D01*
X99378500Y-49347500D02*
X99378500Y-51607500D01*
X96078500Y-61277500D02*
X96078500Y-58737500D01*
%TO.C,RN1*%
X112805000Y-102735000D02*
X112805000Y-101735000D01*
X109445000Y-102735000D02*
X109445000Y-101735000D01*
%TO.C,U1*%
X98643000Y-98571000D02*
X104653000Y-98571000D01*
X100893000Y-105391000D02*
X104653000Y-105391000D01*
X104653000Y-98571000D02*
X104653000Y-99831000D01*
X104653000Y-105391000D02*
X104653000Y-104131000D01*
%TO.C,U2*%
X93991500Y-95046000D02*
X93991500Y-96861000D01*
X93746500Y-95046000D02*
X93991500Y-95046000D01*
X93746500Y-91186000D02*
X93746500Y-95046000D01*
X93746500Y-87326000D02*
X93991500Y-87326000D01*
X93746500Y-91186000D02*
X93746500Y-87326000D01*
X111866500Y-95046000D02*
X111621500Y-95046000D01*
X111866500Y-91186000D02*
X111866500Y-95046000D01*
X111866500Y-87326000D02*
X111621500Y-87326000D01*
X111866500Y-91186000D02*
X111866500Y-87326000D01*
%TO.C,J1*%
X109126500Y-110830500D02*
X109126500Y-110075500D01*
X98581500Y-114000500D02*
X98581500Y-115050500D01*
X110871500Y-114000500D02*
X110871500Y-115050500D01*
X109126500Y-110830500D02*
X100326500Y-110830500D01*
%TO.C,C1*%
X98850267Y-105535000D02*
X98507733Y-105535000D01*
X98850267Y-106555000D02*
X98507733Y-106555000D01*
%TO.C,C2*%
X96602733Y-99824000D02*
X96945267Y-99824000D01*
X96602733Y-98804000D02*
X96945267Y-98804000D01*
%TO.C,C3*%
X109392933Y-97661000D02*
X109735467Y-97661000D01*
X109392933Y-98681000D02*
X109735467Y-98681000D01*
%TO.C,C5*%
X114683000Y-85275267D02*
X114683000Y-84932733D01*
X113663000Y-85275267D02*
X113663000Y-84932733D01*
%TO.C,C6*%
X114683000Y-97096733D02*
X114683000Y-97439267D01*
X113663000Y-97096733D02*
X113663000Y-97439267D01*
%TO.C,PWR*%
X94438000Y-108674000D02*
X94438000Y-111159000D01*
X94438000Y-111159000D02*
X95808000Y-111159000D01*
X95808000Y-111159000D02*
X95808000Y-108674000D01*
%TO.C,RUN*%
X115493000Y-111159000D02*
X115493000Y-108674000D01*
X114123000Y-111159000D02*
X115493000Y-111159000D01*
X114123000Y-108674000D02*
X114123000Y-111159000D01*
%TO.C,JP1*%
X115808000Y-101012000D02*
X115808000Y-102412000D01*
X115108000Y-103112000D02*
X114508000Y-103112000D01*
X113808000Y-102412000D02*
X113808000Y-101012000D01*
X114508000Y-100312000D02*
X115108000Y-100312000D01*
X115808000Y-102412000D02*
G75*
G02*
X115108000Y-103112000I-700000J0D01*
G01*
X114508000Y-103112000D02*
G75*
G02*
X113808000Y-102412000I0J700000D01*
G01*
X113808000Y-101012000D02*
G75*
G02*
X114508000Y-100312000I700000J0D01*
G01*
X115108000Y-100312000D02*
G75*
G02*
X115808000Y-101012000I0J-700000D01*
G01*
%TO.C,R1*%
X110221500Y-105385776D02*
X110221500Y-105895224D01*
X111266500Y-105385776D02*
X111266500Y-105895224D01*
%TO.C,Y1*%
X112373000Y-86636000D02*
X112373000Y-93886000D01*
X115973000Y-86636000D02*
X112373000Y-86636000D01*
X115973000Y-93886000D02*
X115973000Y-86636000D01*
%TO.C,J4*%
X113351000Y-61408000D02*
X114681000Y-61408000D01*
X113351000Y-62738000D02*
X113351000Y-61408000D01*
X113351000Y-64008000D02*
X116011000Y-64008000D01*
X116011000Y-64008000D02*
X116011000Y-81848000D01*
X113351000Y-64008000D02*
X113351000Y-81848000D01*
X113351000Y-81848000D02*
X116011000Y-81848000D01*
%TD*%
%TO.C,JP2*%
D10*
X93664380Y-103957333D02*
X94378666Y-103957333D01*
X94521523Y-104004952D01*
X94616761Y-104100190D01*
X94664380Y-104243047D01*
X94664380Y-104338285D01*
X94664380Y-103481142D02*
X93664380Y-103481142D01*
X93664380Y-103100190D01*
X93712000Y-103004952D01*
X93759619Y-102957333D01*
X93854857Y-102909714D01*
X93997714Y-102909714D01*
X94092952Y-102957333D01*
X94140571Y-103004952D01*
X94188190Y-103100190D01*
X94188190Y-103481142D01*
X93759619Y-102528761D02*
X93712000Y-102481142D01*
X93664380Y-102385904D01*
X93664380Y-102147809D01*
X93712000Y-102052571D01*
X93759619Y-102004952D01*
X93854857Y-101957333D01*
X93950095Y-101957333D01*
X94092952Y-102004952D01*
X94664380Y-102576380D01*
X94664380Y-101957333D01*
X94067380Y-101044333D02*
X94067380Y-100425285D01*
X94448333Y-100758619D01*
X94448333Y-100615761D01*
X94495952Y-100520523D01*
X94543571Y-100472904D01*
X94638809Y-100425285D01*
X94876904Y-100425285D01*
X94972142Y-100472904D01*
X95019761Y-100520523D01*
X95067380Y-100615761D01*
X95067380Y-100901476D01*
X95019761Y-100996714D01*
X94972142Y-101044333D01*
X95194380Y-105378285D02*
X95194380Y-105949714D01*
X95194380Y-105664000D02*
X94194380Y-105664000D01*
X94337238Y-105759238D01*
X94432476Y-105854476D01*
X94480095Y-105949714D01*
%TO.C,RN1*%
X109037380Y-102925476D02*
X108561190Y-103258809D01*
X109037380Y-103496904D02*
X108037380Y-103496904D01*
X108037380Y-103115952D01*
X108085000Y-103020714D01*
X108132619Y-102973095D01*
X108227857Y-102925476D01*
X108370714Y-102925476D01*
X108465952Y-102973095D01*
X108513571Y-103020714D01*
X108561190Y-103115952D01*
X108561190Y-103496904D01*
X109037380Y-102496904D02*
X108037380Y-102496904D01*
X109037380Y-101925476D01*
X108037380Y-101925476D01*
X109037380Y-100925476D02*
X109037380Y-101496904D01*
X109037380Y-101211190D02*
X108037380Y-101211190D01*
X108180238Y-101306428D01*
X108275476Y-101401666D01*
X108323095Y-101496904D01*
%TO.C,U1*%
X105283095Y-104354380D02*
X105283095Y-105163904D01*
X105330714Y-105259142D01*
X105378333Y-105306761D01*
X105473571Y-105354380D01*
X105664047Y-105354380D01*
X105759285Y-105306761D01*
X105806904Y-105259142D01*
X105854523Y-105163904D01*
X105854523Y-104354380D01*
X106854523Y-105354380D02*
X106283095Y-105354380D01*
X106568809Y-105354380D02*
X106568809Y-104354380D01*
X106473571Y-104497238D01*
X106378333Y-104592476D01*
X106283095Y-104640095D01*
%TO.C,J1*%
X98726666Y-108672380D02*
X98726666Y-109386666D01*
X98679047Y-109529523D01*
X98583809Y-109624761D01*
X98440952Y-109672380D01*
X98345714Y-109672380D01*
X99726666Y-109672380D02*
X99155238Y-109672380D01*
X99440952Y-109672380D02*
X99440952Y-108672380D01*
X99345714Y-108815238D01*
X99250476Y-108910476D01*
X99155238Y-108958095D01*
%TO.C,C1*%
X98512333Y-107799142D02*
X98464714Y-107846761D01*
X98321857Y-107894380D01*
X98226619Y-107894380D01*
X98083761Y-107846761D01*
X97988523Y-107751523D01*
X97940904Y-107656285D01*
X97893285Y-107465809D01*
X97893285Y-107322952D01*
X97940904Y-107132476D01*
X97988523Y-107037238D01*
X98083761Y-106942000D01*
X98226619Y-106894380D01*
X98321857Y-106894380D01*
X98464714Y-106942000D01*
X98512333Y-106989619D01*
X99464714Y-107894380D02*
X98893285Y-107894380D01*
X99179000Y-107894380D02*
X99179000Y-106894380D01*
X99083761Y-107037238D01*
X98988523Y-107132476D01*
X98893285Y-107180095D01*
%TO.C,C2*%
X94067333Y-99671142D02*
X94019714Y-99718761D01*
X93876857Y-99766380D01*
X93781619Y-99766380D01*
X93638761Y-99718761D01*
X93543523Y-99623523D01*
X93495904Y-99528285D01*
X93448285Y-99337809D01*
X93448285Y-99194952D01*
X93495904Y-99004476D01*
X93543523Y-98909238D01*
X93638761Y-98814000D01*
X93781619Y-98766380D01*
X93876857Y-98766380D01*
X94019714Y-98814000D01*
X94067333Y-98861619D01*
X94448285Y-98861619D02*
X94495904Y-98814000D01*
X94591142Y-98766380D01*
X94829238Y-98766380D01*
X94924476Y-98814000D01*
X94972095Y-98861619D01*
X95019714Y-98956857D01*
X95019714Y-99052095D01*
X94972095Y-99194952D01*
X94400666Y-99766380D01*
X95019714Y-99766380D01*
%TO.C,C3*%
X111948933Y-98528142D02*
X111901314Y-98575761D01*
X111758457Y-98623380D01*
X111663219Y-98623380D01*
X111520361Y-98575761D01*
X111425123Y-98480523D01*
X111377504Y-98385285D01*
X111329885Y-98194809D01*
X111329885Y-98051952D01*
X111377504Y-97861476D01*
X111425123Y-97766238D01*
X111520361Y-97671000D01*
X111663219Y-97623380D01*
X111758457Y-97623380D01*
X111901314Y-97671000D01*
X111948933Y-97718619D01*
X112282266Y-97623380D02*
X112901314Y-97623380D01*
X112567980Y-98004333D01*
X112710838Y-98004333D01*
X112806076Y-98051952D01*
X112853695Y-98099571D01*
X112901314Y-98194809D01*
X112901314Y-98432904D01*
X112853695Y-98528142D01*
X112806076Y-98575761D01*
X112710838Y-98623380D01*
X112425123Y-98623380D01*
X112329885Y-98575761D01*
X112282266Y-98528142D01*
%TO.C,C5*%
X115927142Y-85270666D02*
X115974761Y-85318285D01*
X116022380Y-85461142D01*
X116022380Y-85556380D01*
X115974761Y-85699238D01*
X115879523Y-85794476D01*
X115784285Y-85842095D01*
X115593809Y-85889714D01*
X115450952Y-85889714D01*
X115260476Y-85842095D01*
X115165238Y-85794476D01*
X115070000Y-85699238D01*
X115022380Y-85556380D01*
X115022380Y-85461142D01*
X115070000Y-85318285D01*
X115117619Y-85270666D01*
X115022380Y-84365904D02*
X115022380Y-84842095D01*
X115498571Y-84889714D01*
X115450952Y-84842095D01*
X115403333Y-84746857D01*
X115403333Y-84508761D01*
X115450952Y-84413523D01*
X115498571Y-84365904D01*
X115593809Y-84318285D01*
X115831904Y-84318285D01*
X115927142Y-84365904D01*
X115974761Y-84413523D01*
X116022380Y-84508761D01*
X116022380Y-84746857D01*
X115974761Y-84842095D01*
X115927142Y-84889714D01*
%TO.C,C6*%
X115960142Y-97434666D02*
X116007761Y-97482285D01*
X116055380Y-97625142D01*
X116055380Y-97720380D01*
X116007761Y-97863238D01*
X115912523Y-97958476D01*
X115817285Y-98006095D01*
X115626809Y-98053714D01*
X115483952Y-98053714D01*
X115293476Y-98006095D01*
X115198238Y-97958476D01*
X115103000Y-97863238D01*
X115055380Y-97720380D01*
X115055380Y-97625142D01*
X115103000Y-97482285D01*
X115150619Y-97434666D01*
X115055380Y-96577523D02*
X115055380Y-96768000D01*
X115103000Y-96863238D01*
X115150619Y-96910857D01*
X115293476Y-97006095D01*
X115483952Y-97053714D01*
X115864904Y-97053714D01*
X115960142Y-97006095D01*
X116007761Y-96958476D01*
X116055380Y-96863238D01*
X116055380Y-96672761D01*
X116007761Y-96577523D01*
X115960142Y-96529904D01*
X115864904Y-96482285D01*
X115626809Y-96482285D01*
X115531571Y-96529904D01*
X115483952Y-96577523D01*
X115436333Y-96672761D01*
X115436333Y-96863238D01*
X115483952Y-96958476D01*
X115531571Y-97006095D01*
X115626809Y-97053714D01*
%TO.C,PWR*%
X97099380Y-110807333D02*
X96099380Y-110807333D01*
X96099380Y-110426380D01*
X96147000Y-110331142D01*
X96194619Y-110283523D01*
X96289857Y-110235904D01*
X96432714Y-110235904D01*
X96527952Y-110283523D01*
X96575571Y-110331142D01*
X96623190Y-110426380D01*
X96623190Y-110807333D01*
X96099380Y-109902571D02*
X97099380Y-109664476D01*
X96385095Y-109474000D01*
X97099380Y-109283523D01*
X96099380Y-109045428D01*
X97099380Y-108093047D02*
X96623190Y-108426380D01*
X97099380Y-108664476D02*
X96099380Y-108664476D01*
X96099380Y-108283523D01*
X96147000Y-108188285D01*
X96194619Y-108140666D01*
X96289857Y-108093047D01*
X96432714Y-108093047D01*
X96527952Y-108140666D01*
X96575571Y-108188285D01*
X96623190Y-108283523D01*
X96623190Y-108664476D01*
%TO.C,RUN*%
X113880380Y-110212095D02*
X113404190Y-110545428D01*
X113880380Y-110783523D02*
X112880380Y-110783523D01*
X112880380Y-110402571D01*
X112928000Y-110307333D01*
X112975619Y-110259714D01*
X113070857Y-110212095D01*
X113213714Y-110212095D01*
X113308952Y-110259714D01*
X113356571Y-110307333D01*
X113404190Y-110402571D01*
X113404190Y-110783523D01*
X112880380Y-109783523D02*
X113689904Y-109783523D01*
X113785142Y-109735904D01*
X113832761Y-109688285D01*
X113880380Y-109593047D01*
X113880380Y-109402571D01*
X113832761Y-109307333D01*
X113785142Y-109259714D01*
X113689904Y-109212095D01*
X112880380Y-109212095D01*
X113880380Y-108735904D02*
X112880380Y-108735904D01*
X113880380Y-108164476D01*
X112880380Y-108164476D01*
%TO.C,JP1*%
X114369904Y-105187666D02*
X114941333Y-105187666D01*
X115055619Y-105225761D01*
X115131809Y-105301952D01*
X115169904Y-105416238D01*
X115169904Y-105492428D01*
X115169904Y-104806714D02*
X114369904Y-104806714D01*
X114369904Y-104501952D01*
X114408000Y-104425761D01*
X114446095Y-104387666D01*
X114522285Y-104349571D01*
X114636571Y-104349571D01*
X114712761Y-104387666D01*
X114750857Y-104425761D01*
X114788952Y-104501952D01*
X114788952Y-104806714D01*
X115169904Y-103587666D02*
X115169904Y-104044809D01*
X115169904Y-103816238D02*
X114369904Y-103816238D01*
X114484190Y-103892428D01*
X114560380Y-103968619D01*
X114598476Y-104044809D01*
%TO.C,R1*%
X112626380Y-105807166D02*
X112150190Y-106140500D01*
X112626380Y-106378595D02*
X111626380Y-106378595D01*
X111626380Y-105997642D01*
X111674000Y-105902404D01*
X111721619Y-105854785D01*
X111816857Y-105807166D01*
X111959714Y-105807166D01*
X112054952Y-105854785D01*
X112102571Y-105902404D01*
X112150190Y-105997642D01*
X112150190Y-106378595D01*
X112626380Y-104854785D02*
X112626380Y-105426214D01*
X112626380Y-105140500D02*
X111626380Y-105140500D01*
X111769238Y-105235738D01*
X111864476Y-105330976D01*
X111912095Y-105426214D01*
%TO.C,Y1*%
X116949190Y-91662190D02*
X117425380Y-91662190D01*
X116425380Y-91995523D02*
X116949190Y-91662190D01*
X116425380Y-91328857D01*
X117425380Y-90471714D02*
X117425380Y-91043142D01*
X117425380Y-90757428D02*
X116425380Y-90757428D01*
X116568238Y-90852666D01*
X116663476Y-90947904D01*
X116711095Y-91043142D01*
%TO.C,J4*%
X114133380Y-60404333D02*
X114847666Y-60404333D01*
X114990523Y-60451952D01*
X115085761Y-60547190D01*
X115133380Y-60690047D01*
X115133380Y-60785285D01*
X114466714Y-59499571D02*
X115133380Y-59499571D01*
X114085761Y-59737666D02*
X114800047Y-59975761D01*
X114800047Y-59356714D01*
%TD*%
M02*
