%TF.GenerationSoftware,KiCad,Pcbnew,(5.1.8)-1*%
%TF.CreationDate,2021-03-12T16:38:44+01:00*%
%TF.ProjectId,CH341Apro,43483334-3141-4707-926f-2e6b69636164,rev?*%
%TF.SameCoordinates,Original*%
%TF.FileFunction,Legend,Bot*%
%TF.FilePolarity,Positive*%
%FSLAX46Y46*%
G04 Gerber Fmt 4.6, Leading zero omitted, Abs format (unit mm)*
G04 Created by KiCad (PCBNEW (5.1.8)-1) date 2021-03-12 16:38:44*
%MOMM*%
%LPD*%
G01*
G04 APERTURE LIST*
%ADD10C,0.120000*%
%ADD11C,0.150000*%
G04 APERTURE END LIST*
D10*
X104267000Y-78994000D02*
G75*
G02*
X105791000Y-78994000I762000J0D01*
G01*
X104267000Y-68834000D02*
G75*
G02*
X105791000Y-68834000I762000J0D01*
G01*
D11*
X97981428Y-93019619D02*
X97981428Y-94019619D01*
X98314761Y-93305333D01*
X98648095Y-94019619D01*
X98648095Y-93019619D01*
X99124285Y-93019619D02*
X99124285Y-93686285D01*
X99124285Y-94019619D02*
X99076666Y-93972000D01*
X99124285Y-93924380D01*
X99171904Y-93972000D01*
X99124285Y-94019619D01*
X99124285Y-93924380D01*
X99600476Y-93686285D02*
X99600476Y-93019619D01*
X99600476Y-93591047D02*
X99648095Y-93638666D01*
X99743333Y-93686285D01*
X99886190Y-93686285D01*
X99981428Y-93638666D01*
X100029047Y-93543428D01*
X100029047Y-93019619D01*
X100505238Y-93019619D02*
X100505238Y-93686285D01*
X100505238Y-94019619D02*
X100457619Y-93972000D01*
X100505238Y-93924380D01*
X100552857Y-93972000D01*
X100505238Y-94019619D01*
X100505238Y-93924380D01*
X101743333Y-93019619D02*
X101743333Y-94019619D01*
X102124285Y-94019619D01*
X102219523Y-93972000D01*
X102267142Y-93924380D01*
X102314761Y-93829142D01*
X102314761Y-93686285D01*
X102267142Y-93591047D01*
X102219523Y-93543428D01*
X102124285Y-93495809D01*
X101743333Y-93495809D01*
X102743333Y-93019619D02*
X102743333Y-93686285D01*
X102743333Y-93495809D02*
X102790952Y-93591047D01*
X102838571Y-93638666D01*
X102933809Y-93686285D01*
X103029047Y-93686285D01*
X103505238Y-93019619D02*
X103410000Y-93067238D01*
X103362380Y-93114857D01*
X103314761Y-93210095D01*
X103314761Y-93495809D01*
X103362380Y-93591047D01*
X103410000Y-93638666D01*
X103505238Y-93686285D01*
X103648095Y-93686285D01*
X103743333Y-93638666D01*
X103790952Y-93591047D01*
X103838571Y-93495809D01*
X103838571Y-93210095D01*
X103790952Y-93114857D01*
X103743333Y-93067238D01*
X103648095Y-93019619D01*
X103505238Y-93019619D01*
X104695714Y-93686285D02*
X104695714Y-92876761D01*
X104648095Y-92781523D01*
X104600476Y-92733904D01*
X104505238Y-92686285D01*
X104362380Y-92686285D01*
X104267142Y-92733904D01*
X104695714Y-93067238D02*
X104600476Y-93019619D01*
X104410000Y-93019619D01*
X104314761Y-93067238D01*
X104267142Y-93114857D01*
X104219523Y-93210095D01*
X104219523Y-93495809D01*
X104267142Y-93591047D01*
X104314761Y-93638666D01*
X104410000Y-93686285D01*
X104600476Y-93686285D01*
X104695714Y-93638666D01*
X105171904Y-93019619D02*
X105171904Y-93686285D01*
X105171904Y-93495809D02*
X105219523Y-93591047D01*
X105267142Y-93638666D01*
X105362380Y-93686285D01*
X105457619Y-93686285D01*
X106219523Y-93019619D02*
X106219523Y-93543428D01*
X106171904Y-93638666D01*
X106076666Y-93686285D01*
X105886190Y-93686285D01*
X105790952Y-93638666D01*
X106219523Y-93067238D02*
X106124285Y-93019619D01*
X105886190Y-93019619D01*
X105790952Y-93067238D01*
X105743333Y-93162476D01*
X105743333Y-93257714D01*
X105790952Y-93352952D01*
X105886190Y-93400571D01*
X106124285Y-93400571D01*
X106219523Y-93448190D01*
X106695714Y-93019619D02*
X106695714Y-93686285D01*
X106695714Y-93591047D02*
X106743333Y-93638666D01*
X106838571Y-93686285D01*
X106981428Y-93686285D01*
X107076666Y-93638666D01*
X107124285Y-93543428D01*
X107124285Y-93019619D01*
X107124285Y-93543428D02*
X107171904Y-93638666D01*
X107267142Y-93686285D01*
X107410000Y-93686285D01*
X107505238Y-93638666D01*
X107552857Y-93543428D01*
X107552857Y-93019619D01*
X108029047Y-93019619D02*
X108029047Y-93686285D01*
X108029047Y-93591047D02*
X108076666Y-93638666D01*
X108171904Y-93686285D01*
X108314761Y-93686285D01*
X108410000Y-93638666D01*
X108457619Y-93543428D01*
X108457619Y-93019619D01*
X108457619Y-93543428D02*
X108505238Y-93638666D01*
X108600476Y-93686285D01*
X108743333Y-93686285D01*
X108838571Y-93638666D01*
X108886190Y-93543428D01*
X108886190Y-93019619D01*
X109743333Y-93067238D02*
X109648095Y-93019619D01*
X109457619Y-93019619D01*
X109362380Y-93067238D01*
X109314761Y-93162476D01*
X109314761Y-93543428D01*
X109362380Y-93638666D01*
X109457619Y-93686285D01*
X109648095Y-93686285D01*
X109743333Y-93638666D01*
X109790952Y-93543428D01*
X109790952Y-93448190D01*
X109314761Y-93352952D01*
X110219523Y-93019619D02*
X110219523Y-93686285D01*
X110219523Y-93495809D02*
X110267142Y-93591047D01*
X110314761Y-93638666D01*
X110410000Y-93686285D01*
X110505238Y-93686285D01*
X111505238Y-93686285D02*
X111743333Y-93019619D01*
X111981428Y-93686285D01*
X112314761Y-93924380D02*
X112362380Y-93972000D01*
X112457619Y-94019619D01*
X112695714Y-94019619D01*
X112790952Y-93972000D01*
X112838571Y-93924380D01*
X112886190Y-93829142D01*
X112886190Y-93733904D01*
X112838571Y-93591047D01*
X112267142Y-93019619D01*
X112886190Y-93019619D01*
X101888571Y-94642857D02*
X101807619Y-94561904D01*
X101564761Y-94480952D01*
X101402857Y-94480952D01*
X101160000Y-94561904D01*
X100998095Y-94723809D01*
X100917142Y-94885714D01*
X100836190Y-95209523D01*
X100836190Y-95452380D01*
X100917142Y-95776190D01*
X100998095Y-95938095D01*
X101160000Y-96100000D01*
X101402857Y-96180952D01*
X101564761Y-96180952D01*
X101807619Y-96100000D01*
X101888571Y-96019047D01*
X102617142Y-94480952D02*
X102617142Y-96180952D01*
X102617142Y-95371428D02*
X103588571Y-95371428D01*
X103588571Y-94480952D02*
X103588571Y-96180952D01*
X104236190Y-96180952D02*
X105288571Y-96180952D01*
X104721904Y-95533333D01*
X104964761Y-95533333D01*
X105126666Y-95452380D01*
X105207619Y-95371428D01*
X105288571Y-95209523D01*
X105288571Y-94804761D01*
X105207619Y-94642857D01*
X105126666Y-94561904D01*
X104964761Y-94480952D01*
X104479047Y-94480952D01*
X104317142Y-94561904D01*
X104236190Y-94642857D01*
X106745714Y-95614285D02*
X106745714Y-94480952D01*
X106340952Y-96261904D02*
X105936190Y-95047619D01*
X106988571Y-95047619D01*
X108526666Y-94480952D02*
X107555238Y-94480952D01*
X108040952Y-94480952D02*
X108040952Y-96180952D01*
X107879047Y-95938095D01*
X107717142Y-95776190D01*
X107555238Y-95695238D01*
X109174285Y-94966666D02*
X109983809Y-94966666D01*
X109012380Y-94480952D02*
X109579047Y-96180952D01*
X110145714Y-94480952D01*
X105798428Y-66769904D02*
X105798428Y-66436571D01*
X105274619Y-66293714D02*
X105274619Y-66769904D01*
X106274619Y-66769904D01*
X106274619Y-66293714D01*
X105798428Y-65865142D02*
X105798428Y-65531809D01*
X105274619Y-65388952D02*
X105274619Y-65865142D01*
X106274619Y-65865142D01*
X106274619Y-65388952D01*
X105274619Y-64960380D02*
X106274619Y-64960380D01*
X106274619Y-64579428D01*
X106227000Y-64484190D01*
X106179380Y-64436571D01*
X106084142Y-64388952D01*
X105941285Y-64388952D01*
X105846047Y-64436571D01*
X105798428Y-64484190D01*
X105750809Y-64579428D01*
X105750809Y-64960380D01*
X105274619Y-63388952D02*
X105750809Y-63722285D01*
X105274619Y-63960380D02*
X106274619Y-63960380D01*
X106274619Y-63579428D01*
X106227000Y-63484190D01*
X106179380Y-63436571D01*
X106084142Y-63388952D01*
X105941285Y-63388952D01*
X105846047Y-63436571D01*
X105798428Y-63484190D01*
X105750809Y-63579428D01*
X105750809Y-63960380D01*
X106274619Y-62769904D02*
X106274619Y-62579428D01*
X106227000Y-62484190D01*
X106131761Y-62388952D01*
X105941285Y-62341333D01*
X105607952Y-62341333D01*
X105417476Y-62388952D01*
X105322238Y-62484190D01*
X105274619Y-62579428D01*
X105274619Y-62769904D01*
X105322238Y-62865142D01*
X105417476Y-62960380D01*
X105607952Y-63008000D01*
X105941285Y-63008000D01*
X106131761Y-62960380D01*
X106227000Y-62865142D01*
X106274619Y-62769904D01*
X105274619Y-61912761D02*
X106274619Y-61912761D01*
X105560333Y-61579428D01*
X106274619Y-61246095D01*
X105274619Y-61246095D01*
X104529380Y-66365142D02*
X104577000Y-66317523D01*
X104624619Y-66222285D01*
X104624619Y-65984190D01*
X104577000Y-65888952D01*
X104529380Y-65841333D01*
X104434142Y-65793714D01*
X104338904Y-65793714D01*
X104196047Y-65841333D01*
X103624619Y-66412761D01*
X103624619Y-65793714D01*
X104291285Y-64936571D02*
X103624619Y-64936571D01*
X104672238Y-65174666D02*
X103957952Y-65412761D01*
X103957952Y-64793714D01*
X103624619Y-63650857D02*
X104624619Y-63650857D01*
X104529380Y-63222285D02*
X104577000Y-63174666D01*
X104624619Y-63079428D01*
X104624619Y-62841333D01*
X104577000Y-62746095D01*
X104529380Y-62698476D01*
X104434142Y-62650857D01*
X104338904Y-62650857D01*
X104196047Y-62698476D01*
X103624619Y-63269904D01*
X103624619Y-62650857D01*
X103719857Y-61650857D02*
X103672238Y-61698476D01*
X103624619Y-61841333D01*
X103624619Y-61936571D01*
X103672238Y-62079428D01*
X103767476Y-62174666D01*
X103862714Y-62222285D01*
X104053190Y-62269904D01*
X104196047Y-62269904D01*
X104386523Y-62222285D01*
X104481761Y-62174666D01*
X104577000Y-62079428D01*
X104624619Y-61936571D01*
X104624619Y-61841333D01*
X104577000Y-61698476D01*
X104529380Y-61650857D01*
X105798428Y-74826666D02*
X105750809Y-74683809D01*
X105703190Y-74636190D01*
X105607952Y-74588571D01*
X105465095Y-74588571D01*
X105369857Y-74636190D01*
X105322238Y-74683809D01*
X105274619Y-74779047D01*
X105274619Y-75160000D01*
X106274619Y-75160000D01*
X106274619Y-74826666D01*
X106227000Y-74731428D01*
X106179380Y-74683809D01*
X106084142Y-74636190D01*
X105988904Y-74636190D01*
X105893666Y-74683809D01*
X105846047Y-74731428D01*
X105798428Y-74826666D01*
X105798428Y-75160000D01*
X105274619Y-74160000D02*
X106274619Y-74160000D01*
X106274619Y-73493333D02*
X106274619Y-73302857D01*
X106227000Y-73207619D01*
X106131761Y-73112380D01*
X105941285Y-73064761D01*
X105607952Y-73064761D01*
X105417476Y-73112380D01*
X105322238Y-73207619D01*
X105274619Y-73302857D01*
X105274619Y-73493333D01*
X105322238Y-73588571D01*
X105417476Y-73683809D01*
X105607952Y-73731428D01*
X105941285Y-73731428D01*
X106131761Y-73683809D01*
X106227000Y-73588571D01*
X106274619Y-73493333D01*
X105322238Y-72683809D02*
X105274619Y-72540952D01*
X105274619Y-72302857D01*
X105322238Y-72207619D01*
X105369857Y-72160000D01*
X105465095Y-72112380D01*
X105560333Y-72112380D01*
X105655571Y-72160000D01*
X105703190Y-72207619D01*
X105750809Y-72302857D01*
X105798428Y-72493333D01*
X105846047Y-72588571D01*
X105893666Y-72636190D01*
X105988904Y-72683809D01*
X106084142Y-72683809D01*
X106179380Y-72636190D01*
X106227000Y-72588571D01*
X106274619Y-72493333D01*
X106274619Y-72255238D01*
X106227000Y-72112380D01*
X104529380Y-76017142D02*
X104577000Y-75969523D01*
X104624619Y-75874285D01*
X104624619Y-75636190D01*
X104577000Y-75540952D01*
X104529380Y-75493333D01*
X104434142Y-75445714D01*
X104338904Y-75445714D01*
X104196047Y-75493333D01*
X103624619Y-76064761D01*
X103624619Y-75445714D01*
X104624619Y-74540952D02*
X104624619Y-75017142D01*
X104148428Y-75064761D01*
X104196047Y-75017142D01*
X104243666Y-74921904D01*
X104243666Y-74683809D01*
X104196047Y-74588571D01*
X104148428Y-74540952D01*
X104053190Y-74493333D01*
X103815095Y-74493333D01*
X103719857Y-74540952D01*
X103672238Y-74588571D01*
X103624619Y-74683809D01*
X103624619Y-74921904D01*
X103672238Y-75017142D01*
X103719857Y-75064761D01*
X103672238Y-73350476D02*
X103624619Y-73207619D01*
X103624619Y-72969523D01*
X103672238Y-72874285D01*
X103719857Y-72826666D01*
X103815095Y-72779047D01*
X103910333Y-72779047D01*
X104005571Y-72826666D01*
X104053190Y-72874285D01*
X104100809Y-72969523D01*
X104148428Y-73160000D01*
X104196047Y-73255238D01*
X104243666Y-73302857D01*
X104338904Y-73350476D01*
X104434142Y-73350476D01*
X104529380Y-73302857D01*
X104577000Y-73255238D01*
X104624619Y-73160000D01*
X104624619Y-72921904D01*
X104577000Y-72779047D01*
X103624619Y-72350476D02*
X104624619Y-72350476D01*
X104624619Y-71969523D01*
X104577000Y-71874285D01*
X104529380Y-71826666D01*
X104434142Y-71779047D01*
X104291285Y-71779047D01*
X104196047Y-71826666D01*
X104148428Y-71874285D01*
X104100809Y-71969523D01*
X104100809Y-72350476D01*
X103624619Y-71350476D02*
X104624619Y-71350476D01*
D10*
X100076000Y-58928000D02*
X100076000Y-68834000D01*
X109728000Y-58928000D02*
X100076000Y-58928000D01*
X109728000Y-68834000D02*
X109728000Y-58928000D01*
X100076000Y-68834000D02*
X109728000Y-68834000D01*
X100076000Y-78994000D02*
X100076000Y-68834000D01*
X109728000Y-78994000D02*
X100076000Y-78994000D01*
X109728000Y-68834000D02*
X109728000Y-78994000D01*
D11*
X110998095Y-81018000D02*
X110902857Y-81065619D01*
X110760000Y-81065619D01*
X110617142Y-81018000D01*
X110521904Y-80922761D01*
X110474285Y-80827523D01*
X110426666Y-80637047D01*
X110426666Y-80494190D01*
X110474285Y-80303714D01*
X110521904Y-80208476D01*
X110617142Y-80113238D01*
X110760000Y-80065619D01*
X110855238Y-80065619D01*
X110998095Y-80113238D01*
X111045714Y-80160857D01*
X111045714Y-80494190D01*
X110855238Y-80494190D01*
X111474285Y-80065619D02*
X111474285Y-81065619D01*
X112045714Y-80065619D01*
X112045714Y-81065619D01*
X112521904Y-80065619D02*
X112521904Y-81065619D01*
X112760000Y-81065619D01*
X112902857Y-81018000D01*
X112998095Y-80922761D01*
X113045714Y-80827523D01*
X113093333Y-80637047D01*
X113093333Y-80494190D01*
X113045714Y-80303714D01*
X112998095Y-80208476D01*
X112902857Y-80113238D01*
X112760000Y-80065619D01*
X112521904Y-80065619D01*
X112228333Y-77620857D02*
X112180714Y-77573238D01*
X112037857Y-77525619D01*
X111942619Y-77525619D01*
X111799761Y-77573238D01*
X111704523Y-77668476D01*
X111656904Y-77763714D01*
X111609285Y-77954190D01*
X111609285Y-78097047D01*
X111656904Y-78287523D01*
X111704523Y-78382761D01*
X111799761Y-78478000D01*
X111942619Y-78525619D01*
X112037857Y-78525619D01*
X112180714Y-78478000D01*
X112228333Y-78430380D01*
X112609285Y-77573238D02*
X112752142Y-77525619D01*
X112990238Y-77525619D01*
X113085476Y-77573238D01*
X113133095Y-77620857D01*
X113180714Y-77716095D01*
X113180714Y-77811333D01*
X113133095Y-77906571D01*
X113085476Y-77954190D01*
X112990238Y-78001809D01*
X112799761Y-78049428D01*
X112704523Y-78097047D01*
X112656904Y-78144666D01*
X112609285Y-78239904D01*
X112609285Y-78335142D01*
X112656904Y-78430380D01*
X112704523Y-78478000D01*
X112799761Y-78525619D01*
X113037857Y-78525619D01*
X113180714Y-78478000D01*
X111418761Y-74953857D02*
X111371142Y-74906238D01*
X111228285Y-74858619D01*
X111133047Y-74858619D01*
X110990190Y-74906238D01*
X110894952Y-75001476D01*
X110847333Y-75096714D01*
X110799714Y-75287190D01*
X110799714Y-75430047D01*
X110847333Y-75620523D01*
X110894952Y-75715761D01*
X110990190Y-75811000D01*
X111133047Y-75858619D01*
X111228285Y-75858619D01*
X111371142Y-75811000D01*
X111418761Y-75763380D01*
X112323523Y-74858619D02*
X111847333Y-74858619D01*
X111847333Y-75858619D01*
X112656857Y-74858619D02*
X112656857Y-75858619D01*
X113228285Y-74858619D02*
X112799714Y-75430047D01*
X113228285Y-75858619D02*
X112656857Y-75287190D01*
X110061571Y-72445619D02*
X110061571Y-73445619D01*
X110394904Y-72731333D01*
X110728238Y-73445619D01*
X110728238Y-72445619D01*
X111394904Y-73445619D02*
X111585380Y-73445619D01*
X111680619Y-73398000D01*
X111775857Y-73302761D01*
X111823476Y-73112285D01*
X111823476Y-72778952D01*
X111775857Y-72588476D01*
X111680619Y-72493238D01*
X111585380Y-72445619D01*
X111394904Y-72445619D01*
X111299666Y-72493238D01*
X111204428Y-72588476D01*
X111156809Y-72778952D01*
X111156809Y-73112285D01*
X111204428Y-73302761D01*
X111299666Y-73398000D01*
X111394904Y-73445619D01*
X112204428Y-72493238D02*
X112347285Y-72445619D01*
X112585380Y-72445619D01*
X112680619Y-72493238D01*
X112728238Y-72540857D01*
X112775857Y-72636095D01*
X112775857Y-72731333D01*
X112728238Y-72826571D01*
X112680619Y-72874190D01*
X112585380Y-72921809D01*
X112394904Y-72969428D01*
X112299666Y-73017047D01*
X112252047Y-73064666D01*
X112204428Y-73159904D01*
X112204428Y-73255142D01*
X112252047Y-73350380D01*
X112299666Y-73398000D01*
X112394904Y-73445619D01*
X112633000Y-73445619D01*
X112775857Y-73398000D01*
X113204428Y-72445619D02*
X113204428Y-73445619D01*
X110061571Y-69905619D02*
X110061571Y-70905619D01*
X110394904Y-70191333D01*
X110728238Y-70905619D01*
X110728238Y-69905619D01*
X111204428Y-69905619D02*
X111204428Y-70905619D01*
X111633000Y-69953238D02*
X111775857Y-69905619D01*
X112013952Y-69905619D01*
X112109190Y-69953238D01*
X112156809Y-70000857D01*
X112204428Y-70096095D01*
X112204428Y-70191333D01*
X112156809Y-70286571D01*
X112109190Y-70334190D01*
X112013952Y-70381809D01*
X111823476Y-70429428D01*
X111728238Y-70477047D01*
X111680619Y-70524666D01*
X111633000Y-70619904D01*
X111633000Y-70715142D01*
X111680619Y-70810380D01*
X111728238Y-70858000D01*
X111823476Y-70905619D01*
X112061571Y-70905619D01*
X112204428Y-70858000D01*
X112823476Y-70905619D02*
X113013952Y-70905619D01*
X113109190Y-70858000D01*
X113204428Y-70762761D01*
X113252047Y-70572285D01*
X113252047Y-70238952D01*
X113204428Y-70048476D01*
X113109190Y-69953238D01*
X113013952Y-69905619D01*
X112823476Y-69905619D01*
X112728238Y-69953238D01*
X112633000Y-70048476D01*
X112585380Y-70238952D01*
X112585380Y-70572285D01*
X112633000Y-70762761D01*
X112728238Y-70858000D01*
X112823476Y-70905619D01*
X110672714Y-67540238D02*
X110815571Y-67492619D01*
X111053666Y-67492619D01*
X111148904Y-67540238D01*
X111196523Y-67587857D01*
X111244142Y-67683095D01*
X111244142Y-67778333D01*
X111196523Y-67873571D01*
X111148904Y-67921190D01*
X111053666Y-67968809D01*
X110863190Y-68016428D01*
X110767952Y-68064047D01*
X110720333Y-68111666D01*
X110672714Y-68206904D01*
X110672714Y-68302142D01*
X110720333Y-68397380D01*
X110767952Y-68445000D01*
X110863190Y-68492619D01*
X111101285Y-68492619D01*
X111244142Y-68445000D01*
X111672714Y-67492619D02*
X111672714Y-68492619D01*
X111910809Y-68492619D01*
X112053666Y-68445000D01*
X112148904Y-68349761D01*
X112196523Y-68254523D01*
X112244142Y-68064047D01*
X112244142Y-67921190D01*
X112196523Y-67730714D01*
X112148904Y-67635476D01*
X112053666Y-67540238D01*
X111910809Y-67492619D01*
X111672714Y-67492619D01*
X112625095Y-67778333D02*
X113101285Y-67778333D01*
X112529857Y-67492619D02*
X112863190Y-68492619D01*
X113196523Y-67492619D01*
X110696523Y-64873238D02*
X110839380Y-64825619D01*
X111077476Y-64825619D01*
X111172714Y-64873238D01*
X111220333Y-64920857D01*
X111267952Y-65016095D01*
X111267952Y-65111333D01*
X111220333Y-65206571D01*
X111172714Y-65254190D01*
X111077476Y-65301809D01*
X110887000Y-65349428D01*
X110791761Y-65397047D01*
X110744142Y-65444666D01*
X110696523Y-65539904D01*
X110696523Y-65635142D01*
X110744142Y-65730380D01*
X110791761Y-65778000D01*
X110887000Y-65825619D01*
X111125095Y-65825619D01*
X111267952Y-65778000D01*
X112267952Y-64920857D02*
X112220333Y-64873238D01*
X112077476Y-64825619D01*
X111982238Y-64825619D01*
X111839380Y-64873238D01*
X111744142Y-64968476D01*
X111696523Y-65063714D01*
X111648904Y-65254190D01*
X111648904Y-65397047D01*
X111696523Y-65587523D01*
X111744142Y-65682761D01*
X111839380Y-65778000D01*
X111982238Y-65825619D01*
X112077476Y-65825619D01*
X112220333Y-65778000D01*
X112267952Y-65730380D01*
X113172714Y-64825619D02*
X112696523Y-64825619D01*
X112696523Y-65825619D01*
X110299666Y-63412619D02*
X110633000Y-62412619D01*
X110966333Y-63412619D01*
X111871095Y-62507857D02*
X111823476Y-62460238D01*
X111680619Y-62412619D01*
X111585380Y-62412619D01*
X111442523Y-62460238D01*
X111347285Y-62555476D01*
X111299666Y-62650714D01*
X111252047Y-62841190D01*
X111252047Y-62984047D01*
X111299666Y-63174523D01*
X111347285Y-63269761D01*
X111442523Y-63365000D01*
X111585380Y-63412619D01*
X111680619Y-63412619D01*
X111823476Y-63365000D01*
X111871095Y-63317380D01*
X112871095Y-62507857D02*
X112823476Y-62460238D01*
X112680619Y-62412619D01*
X112585380Y-62412619D01*
X112442523Y-62460238D01*
X112347285Y-62555476D01*
X112299666Y-62650714D01*
X112252047Y-62841190D01*
X112252047Y-62984047D01*
X112299666Y-63174523D01*
X112347285Y-63269761D01*
X112442523Y-63365000D01*
X112585380Y-63412619D01*
X112680619Y-63412619D01*
X112823476Y-63365000D01*
X112871095Y-63317380D01*
M02*
