M48
; DRILL file {KiCad (5.1.8)-1} date 03/15/21 19:10:10
; FORMAT={-:-/ absolute / inch / decimal}
; #@! TF.CreationDate,2021-03-15T19:10:10+01:00
; #@! TF.GenerationSoftware,Kicad,Pcbnew,(5.1.8)-1
; #@! TF.FileFunction,Plated,1,2,PTH
FMAT,2
INCH
T1C0.0157
T2C0.0354
T3C0.0394
%
G90
G05
T1
X5.3916Y-3.992
X5.3916Y-4.3857
X5.3925Y-2.8099
X5.3925Y-2.8887
X5.3925Y-2.9674
X5.3925Y-3.0462
X5.3925Y-3.1249
X5.3925Y-3.2036
X5.3925Y-3.2824
X5.3925Y-3.3611
X5.3925Y-3.4399
X5.3925Y-3.5186
X5.3925Y-3.5973
X5.3925Y-3.6761
X5.3925Y-3.7548
X5.3925Y-3.8336
X5.3925Y-3.9123
X5.3925Y-4.0698
X5.3925Y-4.1485
X5.3925Y-4.2273
X5.3925Y-4.306
X5.3925Y-4.4635
X5.3925Y-4.5422
X5.3925Y-4.621
X5.3925Y-4.6997
X5.3925Y-4.7784
X5.3925Y-4.8572
X5.3925Y-4.9359
X5.3925Y-5.0147
X5.3925Y-5.0934
X5.4274Y-2.6865
X5.47Y-4.7
X5.4766Y-2.6078
X5.485Y-4.155
X5.5356Y-2.5487
X5.595Y-4.355
X5.6045Y-2.5093
X5.61Y-4.685
X5.63Y-3.495
X5.66Y-4.205
X5.665Y-3.88
X5.69Y-3.96
X5.6904Y-2.4825
X5.7692Y-2.4825
X5.77Y-4.165
X5.79Y-3.965
X5.81Y-4.595
X5.825Y-3.675
X5.8479Y-2.4825
X5.849Y-4.887
X5.915Y-3.37
X5.925Y-3.21
X5.9266Y-2.4825
X5.9275Y-4.8875
X5.9354Y-4.5254
X5.985Y-4.535
X6.0054Y-2.4825
X6.025Y-4.645
X6.086Y-4.608
X6.1055Y-2.4825
X6.117Y-4.642
X6.135Y-4.155
X6.148Y-4.609
X6.16Y-4.825
X6.181Y-4.642
X6.1951Y-2.5093
X6.2738Y-2.5585
X6.295Y-4.915
X6.3329Y-2.6176
X6.3723Y-2.6865
X6.3955Y-3.9821
X6.3955Y-4.3758
X6.3964Y-2.7734
X6.3964Y-2.8788
X6.3964Y-2.9576
X6.3964Y-3.0363
X6.3964Y-3.1151
X6.3964Y-3.1938
X6.3964Y-3.2725
X6.3964Y-3.3513
X6.3964Y-3.43
X6.3964Y-3.5088
X6.3964Y-3.5875
X6.3964Y-3.6662
X6.3964Y-3.745
X6.3964Y-3.8237
X6.3964Y-3.9025
X6.3964Y-4.0599
X6.3964Y-4.1387
X6.3964Y-4.2174
X6.3964Y-4.2962
X6.3964Y-4.4536
X6.3964Y-4.5324
X6.3964Y-4.6111
X6.3964Y-4.6899
X6.3964Y-4.7686
X6.3964Y-4.8473
X6.3964Y-4.9261
X6.3964Y-5.0048
X6.3964Y-5.0836
T3
X6.28Y-3.14
X6.28Y-3.24
X6.28Y-3.34
X6.28Y-3.44
X6.28Y-3.54
X6.28Y-3.64
X6.28Y-3.74
X6.28Y-3.84
X5.7425Y-3.0325
X5.7425Y-3.1325
X5.7425Y-3.2325
X5.7425Y-3.3325
X5.7425Y-3.4325
X5.7425Y-3.5325
X5.7425Y-3.6325
X5.7425Y-3.7325
X6.0425Y-3.0325
X6.0425Y-3.1325
X6.0425Y-3.2325
X6.0425Y-3.3325
X6.0425Y-3.4325
X6.0425Y-3.5325
X6.0425Y-3.6325
X6.0425Y-3.7325
X5.545Y-4.675
X5.545Y-4.775
X5.545Y-4.875
X6.28Y-4.695
X6.28Y-4.795
T2
G00X5.6637Y-5.046
M15
G01X5.6637Y-5.109
M16
G05
G00X6.1125Y-5.046
M15
G01X6.1125Y-5.109
M16
G05
T0
M30
